{
.appVersion = "3337";
copyright = "Copyright (c) 1997-2025, Sparksoft Systems";
customParameters = (
{
name = panose;
value = (
0,
0,
4,
0,
0,
0,
0,
0,
0,
0
);
},
{
name = unicodeRanges;
value = (
0,
1,
71
);
},
{
name = fsType;
value = (
2
);
},
{
name = glyphOrder;
value = (
.notdef,
.null,
CR,
space,
noName00004,
noName00005,
exclam,
quotedbl,
numbersign,
dollar,
percent,
ampersand,
quotesingle,
parenleft,
parenright,
asterisk,
plus,
comma,
hyphen,
period,
slash,
zero,
one,
two,
three,
four,
five,
six,
seven,
eight,
nine,
colon,
semicolon,
less,
equal,
greater,
question,
at,
A,
B,
C,
D,
E,
F,
G,
H,
I,
J,
K,
L,
M,
N,
O,
P,
Q,
R,
S,
T,
U,
V,
W,
X,
Y,
Z,
bracketleft,
backslash,
bracketright,
asciicircum,
underscore,
grave,
a,
b,
c,
d,
e,
f,
g,
h,
i,
j,
k,
l,
m,
n,
o,
p,
q,
r,
s,
t,
u,
v,
w,
x,
y,
z,
braceleft,
bar,
braceright,
asciitilde,
exclamdown,
cent,
sterling,
currency,
yen,
brokenbar,
section,
dieresis,
copyright,
ordfeminine,
guillemotleft,
logicalnot,
registered,
overscore,
degree,
plusminus,
twosuperior,
threesuperior,
acute,
mu1,
paragraph,
middot,
cedilla,
onesuperior,
ordmasculine,
guillemotright,
onequarter,
onehalf,
threequarters,
questiondown,
Agrave,
Aacute,
Acircumflex,
Atilde,
Adieresis,
Aring,
AE,
Ccedilla,
Egrave,
Eacute,
Ecircumflex,
Edieresis,
Igrave,
Iacute,
Icircumflex,
Idieresis,
Eth,
Ntilde,
Ograve,
Oacute,
Ocircumflex,
Otilde,
Odieresis,
multiply,
Oslash,
Ugrave,
Uacute,
Ucircumflex,
Udieresis,
Yacute,
Thorn,
germandbls,
agrave,
aacute,
acircumflex,
atilde,
adieresis,
aring,
ae,
ccedilla,
egrave,
eacute,
ecircumflex,
edieresis,
igrave,
iacute,
icircumflex,
idieresis,
eth,
ntilde,
ograve,
oacute,
ocircumflex,
otilde,
odieresis,
divide,
oslash,
ugrave,
uacute,
ucircumflex,
udieresis,
yacute,
thorn,
ydieresis,
Amacron,
amacron,
Emacron,
emacron,
Imacron,
imacron,
Omacron,
omacron,
Umacron,
umacron,
U02c0,
U02c1,
U02d2,
U02d3,
quoteleft,
quoteright,
quotedblleft,
quotedblright,
noName00212,
U1e06,
U1e07,
U1e0c,
U1e0d,
U1e0e,
U1e0f,

glyphs = (
{
glyphname = .notdef;
lastChange = "2025-02-10 17:39:31 +0000";
layers = (
{
background = {
paths = (
{
closed = 1;
nodes = (
"896 1400 LINE",
"128 1400 LINE",
"128 0 LINE",
"896 0 LINE"
);
},
{
closed = 1;
nodes = (
"768 1272 LINE",
"768 128 LINE",
"256 128 LINE",
"256 1272 LINE"
);
}
);
};
layerId = m01;
paths = (
{
closed = 1;
nodes = (
"896 0 LINE",
"896 1400 LINE",
"128 1400 LINE",
"128 0 LINE"
);
},
{
closed = 1;
nodes = (
"256 1272 LINE",
"768 1272 LINE",
"768 128 LINE",
"256 128 LINE"
);
}
);
width = 1024;
}
);
note = .notdef;
},
{
glyphname = exclam;
lastChange = "2025-02-10 17:39:31 +0000";
layers = (
{
background = {
paths = (
{
closed = 1;
nodes = (
"297 628 OFFCURVE",
"297 644 QCURVE SMOOTH",
"297 731 OFFCURVE",
"225 731 QCURVE SMOOTH",
"187 731 OFFCURVE",
"153 678 OFFCURVE",
"153 644 QCURVE SMOOTH",
"153 635 OFFCURVE",
"157 601 OFFCURVE",
"157 592 QCURVE",
"217 190 LINE",
"233 190 LINE",
"293 592 LINE SMOOTH"
);
},
{
closed = 1;
nodes = (
"147 71 OFFCURVE",
"147 45 QCURVE SMOOTH",
"147 21 OFFCURVE",
"196 -14 OFFCURVE",
"225 -14 QCURVE SMOOTH",
"255 -14 OFFCURVE",
"303 19 OFFCURVE",
"303 45 QCURVE SMOOTH",
"303 71 OFFCURVE",
"259 110 OFFCURVE",
"225 110 QCURVE SMOOTH",
"192 110 OFFCURVE"
);
}
);
};
layerId = m01;
paths = (
{
closed = 1;
nodes = (
"233 190 LINE",
"293 592 LINE SMOOTH",
"296 616 OFFCURVE",
"297 633 OFFCURVE",
"297 644 CURVE SMOOTH",
"297 702 OFFCURVE",
"273 731 OFFCURVE",
"225 731 CURVE SMOOTH",
"174 731 OFFCURVE",
"153 689 OFFCURVE",
"153 644 CURVE SMOOTH",
"155 618 LINE",
"157 592 LINE",
"217 190 LINE"
);
},
{
closed = 1;
nodes = (
"265 -14 OFFCURVE",
"303 10 OFFCURVE",
"303 45 CURVE SMOOTH",
"303 80 OFFCURVE",
"270 110 OFFCURVE",
"225 110 CURVE SMOOTH",
"181 110 OFFCURVE",
"147 80 OFFCURVE",
"147 45 CURVE SMOOTH",
"147 13 OFFCURVE",
"186 -14 OFFCURVE",
"225 -14 CURVE SMOOTH"
);
}
);
width = 450;
}
);
note = exclam;
unicode = 0021;
},
{
glyphname = quotedbl;
lastChange = "2025-02-10 17:39:31 +0000";
layers = (
{
background = {
paths = (
{
closed = 1;
nodes = (
"211 694 LINE",
"211 713 OFFCURVE",
"177 741 OFFCURVE",
"154 741 QCURVE SMOOTH",
"130 741 OFFCURVE",
"94 710 OFFCURVE",
"94 694 QCURVE",
"140 482 LINE",
"166 482 LINE"
);
},
{
closed = 1;
nodes = (
"455 694 LINE",
"455 713 OFFCURVE",
"421 741 OFFCURVE",
"398 741 QCURVE SMOOTH",
"374 741 OFFCURVE",
"340 713 OFFCURVE",
"340 694 QCURVE",
"383 482 LINE",
"412 482 LINE"
);
}
);
};
layerId = m01;
paths = (
{
closed = 1;
nodes = (
"166 482 LINE",
"211 694 LINE",
"211 719 OFFCURVE",
"185 741 OFFCURVE",
"154 741 CURVE SMOOTH",
"122 741 OFFCURVE",
"94 715 OFFCURVE",
"94 694 CURVE",
"140 482 LINE"
);
},
{
closed = 1;
nodes = (
"412 482 LINE",
"455 694 LINE",
"455 719 OFFCURVE",
"429 741 OFFCURVE",
"398 741 CURVE SMOOTH",
"366 741 OFFCURVE",
"340 719 OFFCURVE",
"340 694 CURVE",
"383 482 LINE"
);
}
);
width = 551;
}
);
note = quotedbl;
unicode = 0022;
},
{
glyphname = numbersign;
lastChange = "2025-02-10 17:39:31 +0000";
layers = (
{
background = {
paths = (
{
closed = 1;
nodes = (
"500 294 LINE",
"527 438 LINE",
"670 438 LINE",
"670 498 LINE",
"539 498 LINE",
"578 716 LINE",
"500 716 LINE",
"459 498 LINE",
"281 498 LINE",
"322 716 LINE",
"244 716 LINE",
"201 498 LINE",
"41 498 LINE",
"41 438 LINE",
"191 438 LINE",
"162 294 LINE",
"6 294 LINE",
"6 234 LINE",
"150 234 LINE",
"105 0 LINE",
"185 0 LINE",
"230 234 LINE",
"410 234 LINE",
"369 0 LINE",
"447 0 LINE",
"488 234 LINE",
"635 234 LINE",
"635 294 LINE"
);
},
{
closed = 1;
nodes = (
"422 294 LINE",
"240 294 LINE",
"269 438 LINE",
"449 438 LINE"
);
}
);
};
layerId = m01;
paths = (
{
closed = 1;
nodes = (
"185 0 LINE",
"230 234 LINE",
"410 234 LINE",
"369 0 LINE",
"447 0 LINE",
"488 234 LINE",
"635 234 LINE",
"635 294 LINE",
"500 294 LINE",
"527 438 LINE",
"670 438 LINE",
"670 498 LINE",
"539 498 LINE",
"578 716 LINE",
"500 716 LINE",
"459 498 LINE",
"281 498 LINE",
"322 716 LINE",
"244 716 LINE",
"201 498 LINE",
"41 498 LINE",
"41 438 LINE",
"191 438 LINE",
"162 294 LINE",
"6 294 LINE",
"6 234 LINE",
"150 234 LINE",
"105 0 LINE"
);
},
{
closed = 1;
nodes = (
"269 438 LINE",
"449 438 LINE",
"422 294 LINE",
"240 294 LINE"
);
}
);
width = 676;
}
);
note = numbersign;
unicode = 0023;
},
{
glyphname = dollar;
lastChange = "2025-02-10 17:39:31 +0000";
layers = (
{
background = {
paths = (
{
closed = 1;
nodes = (
"171 0 OFFCURVE",
"311 0 QCURVE",
"311 -93 LINE",
"356 -93 LINE",
"356 0 LINE",
"469 6 OFFCURVE",
"616 106 OFFCURVE",
"616 192 QCURVE SMOOTH",
"616 251 OFFCURVE",
"542 334 OFFCURVE",
"444 385 OFFCURVE",
"356 423 QCURVE",
"356 688 LINE",
"435 685 OFFCURVE",
"543 603 OFFCURVE",
"555 541 QCURVE",
"573 541 LINE",
"573 661 LINE",
"487 714 OFFCURVE",
"356 716 QCURVE",
"356 786 LINE",
"311 786 LINE",
"311 716 LINE",
"212 715 OFFCURVE",
"69 628 OFFCURVE",
"69 550 QCURVE SMOOTH",
"69 501 OFFCURVE",
"141 422 OFFCURVE",
"232 373 OFFCURVE",
"311 336 QCURVE",
"311 30 LINE",
"113 32 OFFCURVE",
"80 195 QCURVE",
"59 195 LINE",
"59 56 LINE"
);
},
{
closed = 1;
nodes = (
"307 444 OFFCURVE",
"234 485 OFFCURVE",
"197 513 OFFCURVE",
"172 553 OFFCURVE",
"172 577 QCURVE SMOOTH",
"172 623 OFFCURVE",
"270 688 OFFCURVE",
"311 688 QCURVE",
"311 441 LINE"
);
},
{
closed = 1;
nodes = (
"510 253 OFFCURVE",
"510 164 QCURVE SMOOTH",
"510 107 OFFCURVE",
"428 37 OFFCURVE",
"356 30 QCURVE",
"356 317 LINE"
);
}
);
};
layerId = m01;
paths = (
{
closed = 1;
nodes = (
"356 -93 LINE",
"356 0 LINE",
"507 8 OFFCURVE",
"616 77 OFFCURVE",
"616 192 CURVE SMOOTH",
"616 271 OFFCURVE",
"558 326 OFFCURVE",
"493 360 CURVE SMOOTH",
"460 377 OFFCURVE",
"415 398 OFFCURVE",
"356 423 CURVE",
"356 688 LINE",
"461 684 OFFCURVE",
"539 624 OFFCURVE",
"555 541 CURVE",
"573 541 LINE",
"573 661 LINE",
"516 696 OFFCURVE",
"443 715 OFFCURVE",
"356 716 CURVE",
"356 786 LINE",
"311 786 LINE",
"311 716 LINE",
"179 715 OFFCURVE",
"69 654 OFFCURVE",
"69 550 CURVE SMOOTH",
"69 485 OFFCURVE",
"126 430 OFFCURVE",
"187 398 CURVE SMOOTH",
"217 381 OFFCURVE",
"258 361 OFFCURVE",
"311 336 CURVE",
"311 30 LINE",
"179 31 OFFCURVE",
"102 86 OFFCURVE",
"80 195 CURVE",
"59 195 LINE",
"59 56 LINE",
"134 19 OFFCURVE",
"218 0 OFFCURVE",
"311 0 CURVE",
"311 -93 LINE"
);
},
{
closed = 1;
nodes = (
"356 317 LINE",
"459 274 OFFCURVE",
"510 223 OFFCURVE",
"510 164 CURVE SMOOTH",
"510 88 OFFCURVE",
"452 39 OFFCURVE",
"356 30 CURVE"
);
},
{
closed = 1;
nodes = (
"270 472 OFFCURVE",
"234 485 OFFCURVE",
"216 499 CURVE SMOOTH",
"191 518 OFFCURVE",
"172 545 OFFCURVE",
"172 577 CURVE SMOOTH",
"172 638 OFFCURVE",
"256 688 OFFCURVE",
"311 688 CURVE",
"311 441 LINE"
);
}
);
width = 676;
}
);
note = dollar;
unicode = 0024;
},
{
glyphname = percent;
lastChange = "2025-02-10 17:39:31 +0000";
layers = (
{
background = {
paths = (
{
closed = 1;
nodes = (
"778 -14 QCURVE SMOOTH",
"838 -14 OFFCURVE",
"963 57 OFFCURVE",
"1045 186 OFFCURVE",
"1045 267 QCURVE SMOOTH",
"1045 314 OFFCURVE",
"965 387 OFFCURVE",
"901 387 QCURVE SMOOTH",
"828 387 OFFCURVE",
"690 310 OFFCURVE",
"606 190 OFFCURVE",
"606 133 QCURVE SMOOTH",
"606 -14 OFFCURVE"
);
},
{
closed = 1;
nodes = (
"793 731 LINE",
"760 696 OFFCURVE",
"650 657 OFFCURVE",
"590 657 QCURVE SMOOTH",
"524 657 OFFCURVE",
"484 682 QCURVE SMOOTH",
"435 716 OFFCURVE",
"375 716 QCURVE SMOOTH",
"302 716 OFFCURVE",
"165 638 OFFCURVE",
"82 516 OFFCURVE",
"82 459 QCURVE SMOOTH",
"82 389 OFFCURVE",
"165 311 OFFCURVE",
"244 311 QCURVE SMOOTH",
"303 311 OFFCURVE",
"433 388 OFFCURVE",
"518 514 OFFCURVE",
"518 583 QCURVE SMOOTH",
"518 594 OFFCURVE",
"510 634 OFFCURVE",
"510 641 QCURVE",
"540 633 OFFCURVE",
"576 633 QCURVE SMOOTH",
"659 633 OFFCURVE",
"742 661 QCURVE",
"744 659 LINE",
"273 -14 LINE",
"336 -14 LINE",
"856 731 LINE"
);
},
{
closed = 1;
nodes = (
"916 351 QCURVE SMOOTH",
"959 351 OFFCURVE",
"1008 296 OFFCURVE",
"1008 261 QCURVE SMOOTH",
"1008 214 OFFCURVE",
"951 99 OFFCURVE",
"852 18 OFFCURVE",
"793 18 QCURVE SMOOTH",
"711 18 OFFCURVE",
"711 94 QCURVE SMOOTH",
"711 155 OFFCURVE",
"764 242 QCURVE SMOOTH",
"827 351 OFFCURVE"
);
},
{
closed = 1;
nodes = (
"429 432 OFFCURVE",
"331 354 OFFCURVE",
"269 349 QCURVE",
"185 349 OFFCURVE",
"185 430 QCURVE SMOOTH",
"185 497 OFFCURVE",
"257 614 OFFCURVE",
"352 685 OFFCURVE",
"379 685 QCURVE SMOOTH",
"391 685 OFFCURVE",
"445 655 OFFCURVE",
"473 649 QCURVE",
"475 643 OFFCURVE",
"481 621 OFFCURVE",
"484 609 OFFCURVE",
"484 600 QCURVE SMOOTH",
"484 546 OFFCURVE"
);
}
);
};
layerId = m01;
paths = (
{
closed = 1;
nodes = (
"336 -14 LINE",
"856 731 LINE",
"793 731 LINE",
"749 684 OFFCURVE",
"670 657 OFFCURVE",
"590 657 CURVE SMOOTH",
"546 657 OFFCURVE",
"511 665 OFFCURVE",
"484 682 CURVE SMOOTH",
"451 705 OFFCURVE",
"415 716 OFFCURVE",
"375 716 CURVE SMOOTH",
"278 716 OFFCURVE",
"179 658 OFFCURVE",
"124 577 CURVE SMOOTH",
"96 536 OFFCURVE",
"82 497 OFFCURVE",
"82 459 CURVE SMOOTH",
"82 366 OFFCURVE",
"139 311 OFFCURVE",
"244 311 CURVE SMOOTH",
"323 311 OFFCURVE",
"419 367 OFFCURVE",
"476 451 CURVE SMOOTH",
"504 493 OFFCURVE",
"518 537 OFFCURVE",
"518 583 CURVE SMOOTH",
"518 590 OFFCURVE",
"517 601 OFFCURVE",
"514 614 CURVE SMOOTH",
"511 627 OFFCURVE",
"510 636 OFFCURVE",
"510 641 CURVE",
"530 636 OFFCURVE",
"552 633 OFFCURVE",
"576 633 CURVE SMOOTH",
"631 633 OFFCURVE",
"687 642 OFFCURVE",
"742 661 CURVE",
"744 659 LINE",
"273 -14 LINE"
);
},
{
closed = 1;
nodes = (
"213 349 OFFCURVE",
"185 376 OFFCURVE",
"185 430 CURVE SMOOTH",
"185 519 OFFCURVE",
"241 602 OFFCURVE",
"305 650 CURVE SMOOTH",
"336 673 OFFCURVE",
"361 685 OFFCURVE",
"379 685 CURVE SMOOTH",
"387 685 OFFCURVE",
"400 680 OFFCURVE",
"418 670 CURVE SMOOTH",
"436 660 OFFCURVE",
"454 653 OFFCURVE",
"473 649 CURVE",
"479 630 OFFCURVE",
"484 613 OFFCURVE",
"484 600 CURVE SMOOTH",
"484 494 OFFCURVE",
"399 359 OFFCURVE",
"269 349 CURVE"
);
},
{
closed = 1;
nodes = (
"858 -14 OFFCURVE",
"949 36 OFFCURVE",
"1004 122 CURVE SMOOTH",
"1031 165 OFFCURVE",
"1045 213 OFFCURVE",
"1045 267 CURVE SMOOTH",
"1045 330 OFFCURVE",
"986 387 OFFCURVE",
"901 387 CURVE SMOOTH",
"804 387 OFFCURVE",
"704 330 OFFCURVE",
"648 250 CURVE SMOOTH",
"620 210 OFFCURVE",
"606 171 OFFCURVE",
"606 133 CURVE SMOOTH",
"606 35 OFFCURVE",
"663 -14 OFFCURVE",
"778 -14 CURVE SMOOTH"
);
},
{
closed = 1;
nodes = (
"738 18 OFFCURVE",
"711 43 OFFCURVE",
"711 94 CURVE SMOOTH",
"711 135 OFFCURVE",
"729 184 OFFCURVE",
"764 242 CURVE SMOOTH",
"806 315 OFFCURVE",
"857 351 OFFCURVE",
"916 351 CURVE SMOOTH",
"973 351 OFFCURVE",
"1008 308 OFFCURVE",
"1008 261 CURVE SMOOTH",
"1008 168 OFFCURVE",
"917 18 OFFCURVE",
"793 18 CURVE SMOOTH"
);
}
);
width = 1126;
}
);
note = percent;
unicode = 0025;
},
{
glyphname = ampersand;
lastChange = "2025-02-10 17:39:31 +0000";
layers = (
{
background = {
paths = (
{
closed = 1;
nodes = (
"669 441 LINE",
"718 438 OFFCURVE",
"755 413 OFFCURVE",
"755 387 QCURVE SMOOTH",
"755 348 OFFCURVE",
"678 236 OFFCURVE",
"633 192 QCURVE",
"543 282 OFFCURVE",
"454 414 QCURVE",
"663 487 OFFCURVE",
"663 602 QCURVE SMOOTH",
"663 662 OFFCURVE",
"557 731 OFFCURVE",
"479 731 QCURVE SMOOTH",
"390 731 OFFCURVE",
"272 631 OFFCURVE",
"272 559 QCURVE SMOOTH",
"272 511 OFFCURVE",
"319 408 QCURVE",
"258 383 OFFCURVE",
"140 311 OFFCURVE",
"57 212 OFFCURVE",
"57 156 QCURVE SMOOTH",
"57 74 OFFCURVE",
"183 -14 OFFCURVE",
"297 -14 QCURVE SMOOTH",
"449 -14 OFFCURVE",
"579 84 QCURVE",
"698 -14 OFFCURVE",
"811 -14 QCURVE SMOOTH",
"855 -14 OFFCURVE",
"921 12 OFFCURVE",
"974 61 OFFCURVE",
"1014 108 QCURVE",
"993 120 LINE",
"943 62 OFFCURVE",
"872 62 QCURVE SMOOTH",
"812 62 OFFCURVE",
"720 112 OFFCURVE",
"665 159 QCURVE",
"776 293 OFFCURVE",
"817 349 QCURVE SMOOTH",
"840 382 OFFCURVE",
"870 415 OFFCURVE",
"920 437 OFFCURVE",
"960 441 QCURVE",
"960 461 LINE",
"669 461 LINE"
);
},
{
closed = 1;
nodes = (
"498 475 OFFCURVE",
"434 450 QCURVE",
"379 539 OFFCURVE",
"379 594 QCURVE SMOOTH",
"379 697 OFFCURVE",
"485 697 QCURVE SMOOTH",
"530 697 OFFCURVE",
"592 643 OFFCURVE",
"592 606 QCURVE SMOOTH",
"592 558 OFFCURVE"
);
},
{
closed = 1;
nodes = (
"262 333 OFFCURVE",
"340 370 QCURVE",
"463 194 OFFCURVE",
"547 114 QCURVE",
"503 82 OFFCURVE",
"397 42 OFFCURVE",
"356 42 QCURVE SMOOTH",
"287 42 OFFCURVE",
"180 132 OFFCURVE",
"180 187 QCURVE SMOOTH",
"180 250 OFFCURVE"
);
}
);
};
layerId = m01;
paths = (
{
closed = 1;
nodes = (
"398 -14 OFFCURVE",
"492 19 OFFCURVE",
"579 84 CURVE",
"658 19 OFFCURVE",
"736 -14 OFFCURVE",
"811 -14 CURVE SMOOTH",
"870 -14 OFFCURVE",
"912 4 OFFCURVE",
"948 37 CURVE SMOOTH",
"965 53 OFFCURVE",
"987 77 OFFCURVE",
"1014 108 CURVE",
"993 120 LINE",
"960 81 OFFCURVE",
"919 62 OFFCURVE",
"872 62 CURVE SMOOTH",
"792 62 OFFCURVE",
"738 96 OFFCURVE",
"665 159 CURVE",
"739 248 OFFCURVE",
"790 312 OFFCURVE",
"817 349 CURVE SMOOTH",
"848 393 OFFCURVE",
"862 411 OFFCURVE",
"895 426 CURVE SMOOTH",
"912 433 OFFCURVE",
"933 438 OFFCURVE",
"960 441 CURVE",
"960 461 LINE",
"669 461 LINE",
"669 441 LINE",
"734 437 OFFCURVE",
"755 422 OFFCURVE",
"755 387 CURVE SMOOTH",
"755 335 OFFCURVE",
"693 251 OFFCURVE",
"633 192 CURVE",
"573 252 OFFCURVE",
"513 326 OFFCURVE",
"454 414 CURVE",
"593 463 OFFCURVE",
"663 525 OFFCURVE",
"663 602 CURVE SMOOTH",
"663 682 OFFCURVE",
"583 731 OFFCURVE",
"479 731 CURVE SMOOTH",
"360 731 OFFCURVE",
"272 655 OFFCURVE",
"272 559 CURVE SMOOTH",
"272 527 OFFCURVE",
"288 477 OFFCURVE",
"319 408 CURVE",
"238 375 OFFCURVE",
"154 328 OFFCURVE",
"99 262 CURVE SMOOTH",
"71 229 OFFCURVE",
"57 193 OFFCURVE",
"57 156 CURVE SMOOTH",
"57 47 OFFCURVE",
"145 -14 OFFCURVE",
"297 -14 CURVE SMOOTH"
);
},
{
closed = 1;
nodes = (
"264 42 OFFCURVE",
"180 114 OFFCURVE",
"180 187 CURVE SMOOTH",
"180 271 OFFCURVE",
"236 321 OFFCURVE",
"340 370 CURVE",
"422 253 OFFCURVE",
"491 167 OFFCURVE",
"547 114 CURVE",
"488 71 OFFCURVE",
"411 42 OFFCURVE",
"356 42 CURVE SMOOTH"
);
},
{
closed = 1;
nodes = (
"397 509 OFFCURVE",
"379 557 OFFCURVE",
"379 594 CURVE SMOOTH",
"379 663 OFFCURVE",
"414 697 OFFCURVE",
"485 697 CURVE SMOOTH",
"545 697 OFFCURVE",
"592 655 OFFCURVE",
"592 606 CURVE SMOOTH",
"592 542 OFFCURVE",
"519 483 OFFCURVE",
"434 450 CURVE"
);
}
);
width = 1050;
}
);
note = ampersand;
unicode = 0026;
},
{
glyphname = quotesingle;
lastChange = "2025-02-10 17:39:31 +0000";
layers = (
{
background = {
paths = (
{
closed = 1;
nodes = (
"220 636 OFFCURVE",
"220 766 QCURVE",
"60 766 LINE",
"60 636 OFFCURVE",
"88 494 QCURVE",
"196 494 LINE"
);
}
);
};
layerId = m01;
paths = (
{
closed = 1;
nodes = (
"196 494 LINE",
"212 589 OFFCURVE",
"220 679 OFFCURVE",
"220 766 CURVE",
"60 766 LINE",
"60 679 OFFCURVE",
"69 589 OFFCURVE",
"88 494 CURVE"
);
}
);
width = 278;
}
);
note = quotesingle;
unicode = 0027;
},
{
glyphname = parenleft;
lastChange = "2025-02-10 17:39:31 +0000";
layers = (
{
background = {
paths = (
{
closed = 1;
nodes = (
"210 274 QCURVE SMOOTH",
"210 502 OFFCURVE",
"336 778 QCURVE",
"236 778 LINE",
"70 542 OFFCURVE",
"70 278 QCURVE SMOOTH",
"70 22 OFFCURVE",
"233 -225 QCURVE",
"334 -225 LINE",
"210 45 OFFCURVE"
);
}
);
};
layerId = m01;
paths = (
{
closed = 1;
nodes = (
"334 -225 LINE",
"251 -45 OFFCURVE",
"210 121 OFFCURVE",
"210 274 CURVE SMOOTH",
"210 426 OFFCURVE",
"252 594 OFFCURVE",
"336 778 CURVE",
"236 778 LINE",
"125 621 OFFCURVE",
"70 454 OFFCURVE",
"70 278 CURVE SMOOTH",
"70 107 OFFCURVE",
"124 -60 OFFCURVE",
"233 -225 CURVE"
);
}
);
width = 429;
}
);
note = parenleft;
unicode = 0028;
},
{
glyphname = parenright;
lastChange = "2025-02-10 17:39:31 +0000";
layers = (
{
background = {
paths = (
{
closed = 1;
nodes = (
"361 20 OFFCURVE",
"361 282 QCURVE SMOOTH",
"361 539 OFFCURVE",
"194 775 QCURVE",
"95 775 LINE",
"220 499 OFFCURVE",
"220 271 QCURVE SMOOTH",
"220 38 OFFCURVE",
"96 -228 QCURVE",
"197 -228 LINE"
);
}
);
};
layerId = m01;
paths = (
{
closed = 1;
nodes = (
"197 -228 LINE",
"306 -63 OFFCURVE",
"361 107 OFFCURVE",
"361 282 CURVE SMOOTH",
"361 453 OFFCURVE",
"305 618 OFFCURVE",
"194 775 CURVE",
"95 775 LINE",
"178 591 OFFCURVE",
"220 423 OFFCURVE",
"220 271 CURVE SMOOTH",
"220 116 OFFCURVE",
"179 -51 OFFCURVE",
"96 -228 CURVE"
);
}
);
width = 465;
}
);
note = parenright;
unicode = 0029;
},
{
glyphname = asterisk;
lastChange = "2025-02-10 17:39:31 +0000";
layers = (
{
background = {
paths = (
{
closed = 1;
nodes = (
"204 534 QCURVE",
"275 418 LINE",
"355 470 LINE",
"328 501 OFFCURVE",
"325 505 QCURVE SMOOTH",
"263 575 LINE",
"339 588 OFFCURVE",
"397 601 QCURVE",
"369 696 LINE",
"281 658 OFFCURVE",
"237 638 QCURVE",
"252 741 OFFCURVE",
"252 778 QCURVE",
"159 778 LINE",
"159 725 OFFCURVE",
"172 640 QCURVE",
"117 673 OFFCURVE",
"49 701 QCURVE",
"18 609 LINE",
"60 595 OFFCURVE",
"152 575 QCURVE",
"104 532 OFFCURVE",
"52 474 QCURVE",
"132 414 LINE",
"173 478 OFFCURVE"
);
}
);
};
layerId = m01;
paths = (
{
closed = 1;
nodes = (
"159 457 OFFCURVE",
"183 497 OFFCURVE",
"204 534 CURVE",
"275 418 LINE",
"355 470 LINE",
"325 505 LINE",
"263 575 LINE",
"314 584 OFFCURVE",
"358 592 OFFCURVE",
"397 601 CURVE",
"369 696 LINE",
"237 638 LINE",
"247 707 OFFCURVE",
"252 753 OFFCURVE",
"252 778 CURVE",
"159 778 LINE",
"159 743 OFFCURVE",
"163 697 OFFCURVE",
"172 640 CURVE",
"135 662 OFFCURVE",
"94 682 OFFCURVE",
"49 701 CURVE",
"18 609 LINE",
"46 600 OFFCURVE",
"91 588 OFFCURVE",
"152 575 CURVE",
"120 546 OFFCURVE",
"87 513 OFFCURVE",
"52 474 CURVE",
"132 414 LINE"
);
}
);
width = 425;
}
);
note = asterisk;
unicode = 002A;
},
{
glyphname = plus;
lastChange = "2025-02-10 17:47:16 +0000";
layers = (
{
background = {
paths = (
{
closed = 1;
nodes = (
"306 627 LINE",
"306 597 LINE SMOOTH",
"306 519 OFFCURVE",
"310 411 QCURVE",
"69 412 LINE",
"75 373 LINE",
"66 268 LINE",
"305 276 LINE",
"310 0 LINE",
"399 -3 OFFCURVE",
"431 -3 QCURVE SMOOTH",
"448 -3 OFFCURVE",
"450 -2 QCURVE",
"465 0 LINE",
"467 137 OFFCURVE",
"467 266 QCURVE",
"670 264 LINE",
"678 414 LINE",
"467 413 LINE",
"465 620 LINE"
);
}
);
};
layerId = m01;
paths = (
{
closed = 1;
nodes = (
"442 -3 OFFCURVE",
"449 -3 OFFCURVE",
"450 -2 CURVE",
"465 0 LINE",
"467 266 LINE",
"670 264 LINE",
"678 414 LINE",
"467 413 LINE",
"465 620 LINE",
"306 627 LINE",
"306 597 LINE SMOOTH",
"306 545 OFFCURVE",
"307 483 OFFCURVE",
"310 411 CURVE",
"69 412 LINE",
"75 373 LINE",
"66 268 LINE",
"305 276 LINE",
"310 0 LINE",
"431 -3 LINE SMOOTH"
);
}
);
width = 738;
}
);
note = plus;
unicode = 002B;
},
{
glyphname = comma;
lastChange = "2025-02-10 17:47:58 +0000";
layers = (
{
background = {
paths = (
{
closed = 1;
nodes = (
"196 -12 OFFCURVE",
"196 -17 QCURVE SMOOTH",
"196 -38 OFFCURVE",
"176 -62 QCURVE SMOOTH",
"160 -81 OFFCURVE",
"114 -105 OFFCURVE",
"69 -119 OFFCURVE",
"69 -120 QCURVE",
"81 -138 LINE",
"114 -130 OFFCURVE",
"223 -77 OFFCURVE",
"243 -26 QCURVE SMOOTH",
"256 7 OFFCURVE",
"256 43 QCURVE SMOOTH",
"256 100 OFFCURVE",
"227 131 QCURVE SMOOTH",
"204 155 OFFCURVE",
"157 155 QCURVE SMOOTH",
"114 155 OFFCURVE",
"88 127 QCURVE SMOOTH",
"73 111 OFFCURVE",
"73 90 QCURVE SMOOTH",
"73 69 OFFCURVE",
"101 35 OFFCURVE",
"122 31 QCURVE SMOOTH",
"143 27 OFFCURVE",
"151 27 QCURVE",
"189 19 OFFCURVE",
"195 -7 QCURVE SMOOTH"
);
}
);
};
layerId = m01;
paths = (
{
closed = 1;
nodes = (
"125 -127 OFFCURVE",
"216 -94 OFFCURVE",
"243 -26 CURVE SMOOTH",
"252 -4 OFFCURVE",
"256 19 OFFCURVE",
"256 43 CURVE SMOOTH",
"256 81 OFFCURVE",
"246 110 OFFCURVE",
"227 131 CURVE SMOOTH",
"212 147 OFFCURVE",
"188 155 OFFCURVE",
"157 155 CURVE SMOOTH",
"128 155 OFFCURVE",
"105 146 OFFCURVE",
"88 127 CURVE SMOOTH",
"78 116 OFFCURVE",
"73 104 OFFCURVE",
"73 90 CURVE SMOOTH",
"73 62 OFFCURVE",
"94 36 OFFCURVE",
"122 31 CURVE SMOOTH",
"136 28 OFFCURVE",
"146 27 OFFCURVE",
"151 27 CURVE",
"176 22 OFFCURVE",
"191 10 OFFCURVE",
"195 -7 CURVE SMOOTH",
"196 -10 OFFCURVE",
"196 -14 OFFCURVE",
"196 -17 CURVE SMOOTH",
"196 -31 OFFCURVE",
"189 -46 OFFCURVE",
"176 -62 CURVE SMOOTH",
"154 -88 OFFCURVE",
"120 -104 OFFCURVE",
"69 -120 CURVE",
"81 -138 LINE"
);
}
);
width = 331;
}
);
note = comma;
unicode = 002C;
},
{
glyphname = hyphen;
lastChange = "2025-02-10 17:39:31 +0000";
layers = (
{
background = {
paths = (
{
closed = 1;
nodes = (
"125 310 LINE",
"155 155 LINE",
"620 155 LINE",
"590 310 LINE"
);
}
);
};
layerId = m01;
paths = (
{
closed = 1;
nodes = (
"620 155 LINE",
"590 310 LINE",
"125 310 LINE",
"155 155 LINE"
);
}
);
width = 717;
}
);
note = hyphen;
unicode = 2010;
},
{
glyphname = period;
lastChange = "2025-02-10 17:39:31 +0000";
layers = (
{
background = {
paths = (
{
closed = 1;
nodes = (
"44 155 LINE",
"71 0 LINE",
"243 0 LINE",
"224 155 LINE"
);
}
);
};
layerId = m01;
paths = (
{
closed = 1;
nodes = (
"243 0 LINE",
"224 155 LINE",
"44 155 LINE",
"71 0 LINE"
);
}
);
width = 334;
}
);
note = period;
unicode = 002E;
},
{
glyphname = slash;
lastChange = "2025-02-10 17:39:31 +0000";
layers = (
{
background = {
paths = (
{
closed = 1;
nodes = (
"298 778 LINE",
"188 778 LINE",
"-2 -13 LINE",
"106 -13 LINE"
);
}
);
};
layerId = m01;
paths = (
{
closed = 1;
nodes = (
"106 -13 LINE",
"298 778 LINE",
"188 778 LINE",
"-2 -13 LINE"
);
}
);
width = 296;
}
);
note = slash;
unicode = 002F;
},
{
glyphname = zero;
lastChange = "2025-02-10 17:39:31 +0000";
layers = (
{
background = {
paths = (
{
closed = 1;
nodes = (
"67 487 QCURVE SMOOTH",
"67 440 OFFCURVE",
"73 385 QCURVE SMOOTH",
"114 -7 OFFCURVE",
"363 -7 QCURVE SMOOTH",
"577 -7 OFFCURVE",
"577 281 QCURVE SMOOTH",
"577 329 OFFCURVE",
"571 384 QCURVE SMOOTH",
"530 775 OFFCURVE",
"281 775 QCURVE SMOOTH",
"67 775 OFFCURVE"
);
},
{
closed = 1;
nodes = (
"401 536 OFFCURVE",
"417 384 QCURVE SMOOTH",
"425 307 OFFCURVE",
"425 254 QCURVE SMOOTH",
"425 202 OFFCURVE",
"418 174 QCURVE SMOOTH",
"402 115 OFFCURVE",
"350 115 QCURVE SMOOTH",
"304 115 OFFCURVE",
"245 218 OFFCURVE",
"227 384 QCURVE SMOOTH",
"219 464 OFFCURVE",
"219 517 QCURVE SMOOTH",
"219 574 OFFCURVE",
"228 601 QCURVE SMOOTH",
"246 653 OFFCURVE",
"294 653 QCURVE SMOOTH",
"343 653 OFFCURVE"
);
}
);
};
layerId = m01;
paths = (
{
closed = 1;
nodes = (
"506 -7 OFFCURVE",
"577 89 OFFCURVE",
"577 281 CURVE SMOOTH",
"577 313 OFFCURVE",
"575 347 OFFCURVE",
"571 384 CURVE SMOOTH",
"544 645 OFFCURVE",
"447 775 OFFCURVE",
"281 775 CURVE SMOOTH",
"138 775 OFFCURVE",
"67 679 OFFCURVE",
"67 487 CURVE SMOOTH",
"67 456 OFFCURVE",
"69 422 OFFCURVE",
"73 385 CURVE SMOOTH",
"100 124 OFFCURVE",
"197 -7 OFFCURVE",
"363 -7 CURVE SMOOTH"
);
},
{
closed = 1;
nodes = (
"319 115 OFFCURVE",
"294 132 OFFCURVE",
"275 167 CURVE SMOOTH",
"255 201 OFFCURVE",
"239 273 OFFCURVE",
"227 384 CURVE SMOOTH",
"222 437 OFFCURVE",
"219 482 OFFCURVE",
"219 517 CURVE SMOOTH",
"219 555 OFFCURVE",
"222 583 OFFCURVE",
"228 601 CURVE SMOOTH",
"240 636 OFFCURVE",
"262 653 OFFCURVE",
"294 653 CURVE SMOOTH",
"327 653 OFFCURVE",
"353 634 OFFCURVE",
"372 595 CURVE SMOOTH",
"391 556 OFFCURVE",
"406 485 OFFCURVE",
"417 384 CURVE SMOOTH",
"422 333 OFFCURVE",
"425 289 OFFCURVE",
"425 254 CURVE SMOOTH",
"425 219 OFFCURVE",
"423 193 OFFCURVE",
"418 174 CURVE SMOOTH",
"407 135 OFFCURVE",
"385 115 OFFCURVE",
"350 115 CURVE SMOOTH"
);
}
);
width = 620;
}
);
note = zero;
unicode = 0030;
},
{
glyphname = one;
lastChange = "2025-02-10 17:39:31 +0000";
layers = (
{
background = {
paths = (
{
closed = 1;
nodes = (
"267 775 LINE",
"347 0 LINE",
"493 0 LINE",
"413 775 LINE"
);
}
);
};
layerId = m01;
paths = (
{
closed = 1;
nodes = (
"493 0 LINE",
"413 775 LINE",
"267 775 LINE",
"347 0 LINE"
);
}
);
width = 660;
}
);
note = one;
unicode = 0031;
},
{
glyphname = two;
lastChange = "2025-02-10 17:39:31 +0000";
layers = (
{
background = {
paths = (
{
closed = 1;
nodes = (
"297 180 OFFCURVE",
"391 274 QCURVE SMOOTH",
"529 411 OFFCURVE",
"529 538 QCURVE SMOOTH",
"529 550 OFFCURVE",
"528 562 QCURVE SMOOTH",
"517 660 OFFCURVE",
"371 775 OFFCURVE",
"263 775 QCURVE SMOOTH",
"33 775 OFFCURVE",
"33 548 QCURVE",
"181 533 LINE",
"181 547 LINE SMOOTH",
"181 653 OFFCURVE",
"272 653 QCURVE SMOOTH",
"371 653 OFFCURVE",
"382 552 QCURVE",
"382 543 LINE SMOOTH",
"382 464 OFFCURVE",
"249 328 QCURVE SMOOTH",
"128 206 OFFCURVE",
"100 137 QCURVE SMOOTH",
"72 70 OFFCURVE",
"72 10 QCURVE SMOOTH",
"72 6 LINE",
"586 6 LINE",
"572 142 LINE",
"281 142 LINE"
);
}
);
};
layerId = m01;
paths = (
{
closed = 1;
nodes = (
"586 6 LINE",
"572 142 LINE",
"281 142 LINE",
"292 167 OFFCURVE",
"328 211 OFFCURVE",
"391 274 CURVE SMOOTH",
"483 365 OFFCURVE",
"529 453 OFFCURVE",
"529 538 CURVE SMOOTH",
"528 562 LINE",
"513 693 OFFCURVE",
"407 775 OFFCURVE",
"263 775 CURVE SMOOTH",
"110 775 OFFCURVE",
"33 699 OFFCURVE",
"33 548 CURVE",
"181 533 LINE",
"181 547 LINE SMOOTH",
"181 618 OFFCURVE",
"211 653 OFFCURVE",
"272 653 CURVE SMOOTH",
"338 653 OFFCURVE",
"375 619 OFFCURVE",
"382 552 CURVE",
"382 543 LINE SMOOTH",
"382 490 OFFCURVE",
"338 419 OFFCURVE",
"249 328 CURVE SMOOTH",
"168 247 OFFCURVE",
"119 183 OFFCURVE",
"100 137 CURVE SMOOTH",
"81 92 OFFCURVE",
"72 50 OFFCURVE",
"72 10 CURVE SMOOTH",
"72 6 LINE"
);
}
);
width = 654;
}
);
note = two;
unicode = 0032;
},
{
glyphname = three;
lastChange = "2025-02-10 17:39:31 +0000";
layers = (
{
background = {
paths = (
{
closed = 1;
nodes = (
"249 -7 OFFCURVE",
"354 -7 QCURVE SMOOTH",
"461 -7 OFFCURVE",
"529 62 QCURVE SMOOTH",
"588 120 OFFCURVE",
"588 207 QCURVE SMOOTH",
"588 221 OFFCURVE",
"586 236 QCURVE SMOOTH",
"570 383 OFFCURVE",
"422 417 QCURVE",
"516 472 OFFCURVE",
"516 560 QCURVE SMOOTH",
"516 569 OFFCURVE",
"515 578 QCURVE SMOOTH",
"506 656 OFFCURVE",
"368 775 OFFCURVE",
"267 775 QCURVE SMOOTH",
"71 775 OFFCURVE",
"52 575 QCURVE",
"189 552 LINE",
"191 654 OFFCURVE",
"276 654 QCURVE SMOOTH",
"360 654 OFFCURVE",
"369 569 QCURVE SMOOTH",
"370 562 OFFCURVE",
"370 555 QCURVE SMOOTH",
"370 471 OFFCURVE",
"257 471 QCURVE",
"253 352 LINE",
"291 362 OFFCURVE",
"319 362 QCURVE SMOOTH",
"370 362 OFFCURVE",
"429 288 OFFCURVE",
"434 242 QCURVE SMOOTH",
"435 233 OFFCURVE",
"435 225 QCURVE SMOOTH",
"435 185 OFFCURVE",
"416 154 QCURVE SMOOTH",
"392 115 OFFCURVE",
"340 115 QCURVE SMOOTH",
"245 115 OFFCURVE",
"220 226 QCURVE",
"79 209 LINE",
"101 111 OFFCURVE"
);
}
);
};
layerId = m01;
paths = (
{
closed = 1;
nodes = (
"425 -7 OFFCURVE",
"484 16 OFFCURVE",
"529 62 CURVE SMOOTH",
"568 101 OFFCURVE",
"588 149 OFFCURVE",
"588 207 CURVE SMOOTH",
"588 216 OFFCURVE",
"587 226 OFFCURVE",
"586 236 CURVE SMOOTH",
"575 334 OFFCURVE",
"521 394 OFFCURVE",
"422 417 CURVE",
"485 454 OFFCURVE",
"516 501 OFFCURVE",
"516 560 CURVE SMOOTH",
"515 578 LINE SMOOTH",
"503 682 OFFCURVE",
"402 775 OFFCURVE",
"267 775 CURVE SMOOTH",
"136 775 OFFCURVE",
"65 708 OFFCURVE",
"52 575 CURVE",
"189 552 LINE",
"190 620 OFFCURVE",
"219 654 OFFCURVE",
"276 654 CURVE SMOOTH",
"332 654 OFFCURVE",
"363 626 OFFCURVE",
"369 569 CURVE SMOOTH",
"370 555 LINE SMOOTH",
"370 499 OFFCURVE",
"332 471 OFFCURVE",
"257 471 CURVE",
"253 352 LINE",
"278 359 OFFCURVE",
"300 362 OFFCURVE",
"319 362 CURVE SMOOTH",
"387 362 OFFCURVE",
"427 303 OFFCURVE",
"434 242 CURVE SMOOTH",
"435 225 LINE SMOOTH",
"435 198 OFFCURVE",
"429 175 OFFCURVE",
"416 154 CURVE SMOOTH",
"400 128 OFFCURVE",
"375 115 OFFCURVE",
"340 115 CURVE SMOOTH",
"277 115 OFFCURVE",
"237 152 OFFCURVE",
"220 226 CURVE",
"79 209 LINE",
"108 78 OFFCURVE",
"214 -7 OFFCURVE",
"354 -7 CURVE SMOOTH"
);
}
);
width = 648;
}
);
note = three;
unicode = 0033;
},
{
glyphname = four;
lastChange = "2025-02-10 17:39:31 +0000";
layers = (
{
background = {
paths = (
{
closed = 1;
nodes = (
"496 154 LINE",
"591 154 LINE",
"578 283 LINE",
"483 283 LINE",
"432 769 LINE",
"309 769 LINE",
"28 282 LINE",
"41 154 LINE",
"354 154 LINE",
"371 0 LINE",
"513 0 LINE"
);
},
{
closed = 1;
nodes = (
"313 545 LINE",
"341 283 LINE",
"165 283 LINE"
);
}
);
};
layerId = m01;
paths = (
{
closed = 1;
nodes = (
"513 0 LINE",
"496 154 LINE",
"591 154 LINE",
"578 283 LINE",
"483 283 LINE",
"432 769 LINE",
"309 769 LINE",
"28 282 LINE",
"41 154 LINE",
"354 154 LINE",
"371 0 LINE"
);
},
{
closed = 1;
nodes = (
"313 545 LINE",
"341 283 LINE",
"165 283 LINE"
);
}
);
width = 657;
}
);
note = four;
unicode = 0034;
},
{
glyphname = five;
lastChange = "2025-02-10 17:39:31 +0000";
layers = (
{
background = {
paths = (
{
closed = 1;
nodes = (
"331 0 QCURVE SMOOTH",
"465 0 OFFCURVE",
"520 88 QCURVE SMOOTH",
"567 162 OFFCURVE",
"567 241 QCURVE SMOOTH",
"567 255 OFFCURVE",
"565 270 QCURVE SMOOTH",
"553 379 OFFCURVE",
"408 525 OFFCURVE",
"305 525 QCURVE SMOOTH",
"253 525 OFFCURVE",
"207 501 QCURVE",
"217 631 LINE",
"494 631 LINE",
"479 768 LINE",
"91 768 LINE",
"57 370 LINE",
"178 352 LINE",
"222 408 OFFCURVE",
"285 408 QCURVE SMOOTH",
"399 408 OFFCURVE",
"414 267 QCURVE SMOOTH",
"416 248 OFFCURVE",
"416 232 QCURVE SMOOTH",
"416 118 OFFCURVE",
"320 118 QCURVE SMOOTH",
"229 118 OFFCURVE",
"200 225 QCURVE",
"56 210 LINE",
"110 0 OFFCURVE"
);
}
);
};
layerId = m01;
paths = (
{
closed = 1;
nodes = (
"420 0 OFFCURVE",
"483 29 OFFCURVE",
"520 88 CURVE SMOOTH",
"551 137 OFFCURVE",
"567 188 OFFCURVE",
"567 241 CURVE SMOOTH",
"567 250 OFFCURVE",
"566 260 OFFCURVE",
"565 270 CURVE SMOOTH",
"549 415 OFFCURVE",
"442 525 OFFCURVE",
"305 525 CURVE SMOOTH",
"270 525 OFFCURVE",
"238 517 OFFCURVE",
"207 501 CURVE",
"217 631 LINE",
"494 631 LINE",
"479 768 LINE",
"91 768 LINE",
"57 370 LINE",
"178 352 LINE",
"207 389 OFFCURVE",
"243 408 OFFCURVE",
"285 408 CURVE SMOOTH",
"361 408 OFFCURVE",
"404 361 OFFCURVE",
"414 267 CURVE SMOOTH",
"415 254 OFFCURVE",
"416 243 OFFCURVE",
"416 232 CURVE SMOOTH",
"416 156 OFFCURVE",
"384 118 OFFCURVE",
"320 118 CURVE SMOOTH",
"259 118 OFFCURVE",
"219 154 OFFCURVE",
"200 225 CURVE",
"56 210 LINE",
"92 70 OFFCURVE",
"184 0 OFFCURVE",
"331 0 CURVE SMOOTH"
);
}
);
width = 615;
}
);
note = five;
unicode = 0035;
},
{
glyphname = six;
lastChange = "2025-02-10 17:39:31 +0000";
layers = (
{
background = {
paths = (
{
closed = 1;
nodes = (
"283 775 QCURVE SMOOTH",
"40 775 OFFCURVE",
"40 475 QCURVE SMOOTH",
"40 430 OFFCURVE",
"45 378 QCURVE SMOOTH",
"85 -7 OFFCURVE",
"350 -7 QCURVE SMOOTH",
"475 -7 OFFCURVE",
"528 72 QCURVE SMOOTH",
"571 137 OFFCURVE",
"571 218 QCURVE SMOOTH",
"571 235 OFFCURVE",
"569 252 QCURVE SMOOTH",
"558 358 OFFCURVE",
"419 503 OFFCURVE",
"320 503 QCURVE SMOOTH",
"238 503 OFFCURVE",
"190 439 QCURVE",
"189 454 OFFCURVE",
"189 468 QCURVE SMOOTH",
"189 654 OFFCURVE",
"287 654 QCURVE SMOOTH",
"361 654 OFFCURVE",
"380 568 QCURVE",
"520 584 LINE",
"468 775 OFFCURVE"
);
},
{
closed = 1;
nodes = (
"219 294 QCURVE SMOOTH",
"219 395 OFFCURVE",
"308 395 QCURVE SMOOTH",
"410 395 OFFCURVE",
"425 251 QCURVE SMOOTH",
"427 233 OFFCURVE",
"427 218 QCURVE SMOOTH",
"427 115 OFFCURVE",
"345 115 QCURVE SMOOTH",
"295 115 OFFCURVE",
"227 203 OFFCURVE",
"221 264 QCURVE SMOOTH",
"219 280 OFFCURVE"
);
}
);
};
layerId = m01;
paths = (
{
closed = 1;
nodes = (
"433 -7 OFFCURVE",
"493 19 OFFCURVE",
"528 72 CURVE SMOOTH",
"557 115 OFFCURVE",
"571 164 OFFCURVE",
"571 218 CURVE SMOOTH",
"571 229 OFFCURVE",
"570 241 OFFCURVE",
"569 252 CURVE SMOOTH",
"554 393 OFFCURVE",
"452 503 OFFCURVE",
"320 503 CURVE SMOOTH",
"265 503 OFFCURVE",
"222 482 OFFCURVE",
"190 439 CURVE",
"189 468 LINE SMOOTH",
"189 592 OFFCURVE",
"222 654 OFFCURVE",
"287 654 CURVE SMOOTH",
"336 654 OFFCURVE",
"367 625 OFFCURVE",
"380 568 CURVE",
"520 584 LINE",
"485 711 OFFCURVE",
"406 775 OFFCURVE",
"283 775 CURVE SMOOTH",
"121 775 OFFCURVE",
"40 675 OFFCURVE",
"40 475 CURVE SMOOTH",
"40 445 OFFCURVE",
"42 413 OFFCURVE",
"45 378 CURVE SMOOTH",
"72 121 OFFCURVE",
"173 -7 OFFCURVE",
"350 -7 CURVE SMOOTH"
);
},
{
closed = 1;
nodes = (
"278 115 OFFCURVE",
"229 183 OFFCURVE",
"221 264 CURVE SMOOTH",
"220 275 OFFCURVE",
"219 285 OFFCURVE",
"219 294 CURVE SMOOTH",
"219 361 OFFCURVE",
"249 395 OFFCURVE",
"308 395 CURVE SMOOTH",
"376 395 OFFCURVE",
"415 347 OFFCURVE",
"425 251 CURVE SMOOTH",
"426 239 OFFCURVE",
"427 228 OFFCURVE",
"427 218 CURVE SMOOTH",
"427 149 OFFCURVE",
"400 115 OFFCURVE",
"345 115 CURVE SMOOTH"
);
}
);
width = 616;
}
);
note = six;
unicode = 0036;
},
{
glyphname = seven;
lastChange = "2025-02-10 17:39:31 +0000";
layers = (
{
background = {
paths = (
{
closed = 1;
nodes = (
"220 367 OFFCURVE",
"220 72 QCURVE SMOOTH",
"220 36 OFFCURVE",
"222 0 QCURVE",
"364 0 LINE",
"360 38 OFFCURVE",
"360 78 QCURVE SMOOTH",
"360 203 OFFCURVE",
"398 344 QCURVE SMOOTH",
"447 531 OFFCURVE",
"554 649 QCURVE",
"543 755 LINE",
"41 755 LINE",
"55 619 LINE",
"389 619 LINE"
);
}
);
};
layerId = m01;
paths = (
{
closed = 1;
nodes = (
"364 0 LINE",
"361 25 OFFCURVE",
"360 51 OFFCURVE",
"360 78 CURVE SMOOTH",
"360 161 OFFCURVE",
"373 250 OFFCURVE",
"398 344 CURVE SMOOTH",
"431 469 OFFCURVE",
"483 570 OFFCURVE",
"554 649 CURVE",
"543 755 LINE",
"41 755 LINE",
"55 619 LINE",
"389 619 LINE",
"276 451 OFFCURVE",
"220 269 OFFCURVE",
"220 72 CURVE SMOOTH",
"222 0 LINE"
);
}
);
width = 619;
}
);
note = seven;
unicode = 0037;
},
{
glyphname = eight;
lastChange = "2025-02-10 17:39:31 +0000";
layers = (
{
background = {
paths = (
{
closed = 1;
nodes = (
"74 254 QCURVE SMOOTH",
"74 240 OFFCURVE",
"76 225 QCURVE SMOOTH",
"88 106 OFFCURVE",
"255 -8 OFFCURVE",
"356 -8 QCURVE SMOOTH",
"466 -8 OFFCURVE",
"528 57 QCURVE SMOOTH",
"580 111 OFFCURVE",
"580 197 QCURVE SMOOTH",
"580 213 OFFCURVE",
"578 231 QCURVE SMOOTH",
"564 367 OFFCURVE",
"429 419 QCURVE",
"519 460 OFFCURVE",
"519 554 QCURVE SMOOTH",
"519 565 OFFCURVE",
"518 577 QCURVE SMOOTH",
"507 679 OFFCURVE",
"359 775 OFFCURVE",
"268 775 QCURVE SMOOTH",
"164 775 OFFCURVE",
"106 723 QCURVE SMOOTH",
"57 678 OFFCURVE",
"57 604 QCURVE SMOOTH",
"57 591 OFFCURVE",
"58 577 QCURVE SMOOTH",
"70 465 OFFCURVE",
"183 419 QCURVE",
"74 370 OFFCURVE"
);
},
{
closed = 1;
nodes = (
"197 584 QCURVE SMOOTH",
"197 658 OFFCURVE",
"281 658 QCURVE SMOOTH",
"371 658 OFFCURVE",
"381 568 QCURVE SMOOTH",
"382 559 OFFCURVE",
"382 550 QCURVE SMOOTH",
"382 474 OFFCURVE",
"300 474 QCURVE SMOOTH",
"208 474 OFFCURVE",
"198 567 QCURVE SMOOTH",
"197 576 OFFCURVE"
);
},
{
closed = 1;
nodes = (
"218 255 QCURVE SMOOTH",
"218 295 OFFCURVE",
"239 323 QCURVE SMOOTH",
"264 356 OFFCURVE",
"313 356 QCURVE SMOOTH",
"420 356 OFFCURVE",
"433 237 QCURVE SMOOTH",
"434 223 OFFCURVE",
"434 211 QCURVE SMOOTH",
"434 111 OFFCURVE",
"342 111 QCURVE SMOOTH",
"233 111 OFFCURVE",
"219 239 QCURVE SMOOTH",
"218 247 OFFCURVE"
);
}
);
};
layerId = m01;
paths = (
{
closed = 1;
nodes = (
"429 -8 OFFCURVE",
"487 14 OFFCURVE",
"528 57 CURVE SMOOTH",
"563 93 OFFCURVE",
"580 140 OFFCURVE",
"580 197 CURVE SMOOTH",
"580 208 OFFCURVE",
"579 219 OFFCURVE",
"578 231 CURVE SMOOTH",
"569 322 OFFCURVE",
"519 384 OFFCURVE",
"429 419 CURVE",
"489 446 OFFCURVE",
"519 491 OFFCURVE",
"519 554 CURVE SMOOTH",
"518 577 LINE",
"503 713 OFFCURVE",
"389 775 OFFCURVE",
"268 775 CURVE SMOOTH",
"199 775 OFFCURVE",
"145 758 OFFCURVE",
"106 723 CURVE SMOOTH",
"73 693 OFFCURVE",
"57 653 OFFCURVE",
"57 604 CURVE SMOOTH",
"58 577 LINE",
"66 502 OFFCURVE",
"108 450 OFFCURVE",
"183 419 CURVE",
"110 386 OFFCURVE",
"74 331 OFFCURVE",
"74 254 CURVE SMOOTH",
"74 245 OFFCURVE",
"75 235 OFFCURVE",
"76 225 CURVE SMOOTH",
"92 66 OFFCURVE",
"221 -8 OFFCURVE",
"356 -8 CURVE SMOOTH"
);
},
{
closed = 1;
nodes = (
"269 111 OFFCURVE",
"228 154 OFFCURVE",
"219 239 CURVE SMOOTH",
"218 255 LINE SMOOTH",
"218 282 OFFCURVE",
"225 304 OFFCURVE",
"239 323 CURVE SMOOTH",
"256 345 OFFCURVE",
"280 356 OFFCURVE",
"313 356 CURVE SMOOTH",
"384 356 OFFCURVE",
"424 316 OFFCURVE",
"433 237 CURVE",
"434 211 LINE SMOOTH",
"434 144 OFFCURVE",
"403 111 OFFCURVE",
"342 111 CURVE SMOOTH"
);
},
{
closed = 1;
nodes = (
"239 474 OFFCURVE",
"205 505 OFFCURVE",
"198 567 CURVE SMOOTH",
"197 584 LINE SMOOTH",
"197 633 OFFCURVE",
"225 658 OFFCURVE",
"281 658 CURVE SMOOTH",
"341 658 OFFCURVE",
"374 628 OFFCURVE",
"381 568 CURVE SMOOTH",
"382 550 LINE SMOOTH",
"382 499 OFFCURVE",
"355 474 OFFCURVE",
"300 474 CURVE SMOOTH"
);
}
);
width = 648;
}
);
note = eight;
unicode = 0038;
},
{
glyphname = nine;
lastChange = "2025-02-10 17:39:31 +0000";
layers = (
{
background = {
paths = (
{
closed = 1;
nodes = (
"332 -8 QCURVE SMOOTH",
"576 -8 OFFCURVE",
"576 292 QCURVE SMOOTH",
"576 337 OFFCURVE",
"571 388 QCURVE SMOOTH",
"530 775 OFFCURVE",
"264 775 QCURVE SMOOTH",
"140 775 OFFCURVE",
"88 696 QCURVE SMOOTH",
"44 630 OFFCURVE",
"44 550 QCURVE SMOOTH",
"44 533 OFFCURVE",
"46 516 QCURVE SMOOTH",
"56 417 OFFCURVE",
"192 264 OFFCURVE",
"294 264 QCURVE SMOOTH",
"377 264 OFFCURVE",
"425 328 QCURVE",
"426 311 OFFCURVE",
"426 295 QCURVE SMOOTH",
"426 113 OFFCURVE",
"330 113 QCURVE SMOOTH",
"255 113 OFFCURVE",
"236 199 QCURVE",
"96 183 LINE",
"147 -8 OFFCURVE"
);
},
{
closed = 1;
nodes = (
"396 474 QCURVE SMOOTH",
"396 372 OFFCURVE",
"308 372 QCURVE SMOOTH",
"206 372 OFFCURVE",
"191 516 QCURVE SMOOTH",
"189 535 OFFCURVE",
"189 551 QCURVE SMOOTH",
"189 653 OFFCURVE",
"270 653 QCURVE SMOOTH",
"324 653 OFFCURVE",
"388 560 OFFCURVE",
"394 504 QCURVE SMOOTH",
"396 488 OFFCURVE"
);
}
);
};
layerId = m01;
paths = (
{
closed = 1;
nodes = (
"495 -8 OFFCURVE",
"576 92 OFFCURVE",
"576 292 CURVE SMOOTH",
"576 322 OFFCURVE",
"574 354 OFFCURVE",
"571 388 CURVE SMOOTH",
"544 646 OFFCURVE",
"441 775 OFFCURVE",
"264 775 CURVE SMOOTH",
"181 775 OFFCURVE",
"123 749 OFFCURVE",
"88 696 CURVE SMOOTH",
"59 652 OFFCURVE",
"44 603 OFFCURVE",
"44 550 CURVE SMOOTH",
"44 539 OFFCURVE",
"45 527 OFFCURVE",
"46 516 CURVE SMOOTH",
"59 384 OFFCURVE",
"158 264 OFFCURVE",
"294 264 CURVE SMOOTH",
"349 264 OFFCURVE",
"393 285 OFFCURVE",
"425 328 CURVE",
"426 295 LINE SMOOTH",
"426 174 OFFCURVE",
"394 113 OFFCURVE",
"330 113 CURVE SMOOTH",
"280 113 OFFCURVE",
"249 142 OFFCURVE",
"236 199 CURVE",
"96 183 LINE",
"130 56 OFFCURVE",
"209 -8 OFFCURVE",
"332 -8 CURVE SMOOTH"
);
},
{
closed = 1;
nodes = (
"240 372 OFFCURVE",
"201 420 OFFCURVE",
"191 516 CURVE SMOOTH",
"190 529 OFFCURVE",
"189 540 OFFCURVE",
"189 551 CURVE SMOOTH",
"189 619 OFFCURVE",
"216 653 OFFCURVE",
"270 653 CURVE SMOOTH",
"342 653 OFFCURVE",
"386 579 OFFCURVE",
"394 504 CURVE SMOOTH",
"395 493 OFFCURVE",
"396 483 OFFCURVE",
"396 474 CURVE SMOOTH",
"396 406 OFFCURVE",
"367 372 OFFCURVE",
"308 372 CURVE SMOOTH"
);
}
);
width = 654;
}
);
note = nine;
unicode = 0039;
},
{
glyphname = colon;
lastChange = "2025-02-10 17:39:31 +0000";
layers = (
{
background = {
paths = (
{
closed = 1;
nodes = (
"161 209 LINE",
"188 54 LINE",
"360 54 LINE",
"341 209 LINE"
);
},
{
closed = 1;
nodes = (
"155 581 LINE",
"182 426 LINE",
"354 426 LINE",
"335 581 LINE"
);
}
);
};
layerId = m01;
paths = (
{
closed = 1;
nodes = (
"354 426 LINE",
"335 581 LINE",
"155 581 LINE",
"182 426 LINE"
);
},
{
closed = 1;
nodes = (
"360 54 LINE",
"341 209 LINE",
"161 209 LINE",
"188 54 LINE"
);
}
);
width = 546;
}
);
note = colon;
unicode = 003A;
},
{
glyphname = semicolon;
lastChange = "2025-02-10 17:39:31 +0000";
layers = (
{
background = {
paths = (
{
closed = 1;
nodes = (
"300 55 OFFCURVE",
"300 50 QCURVE SMOOTH",
"300 29 OFFCURVE",
"280 5 QCURVE SMOOTH",
"264 -14 OFFCURVE",
"218 -38 OFFCURVE",
"173 -52 OFFCURVE",
"173 -53 QCURVE",
"185 -71 LINE",
"218 -63 OFFCURVE",
"327 -10 OFFCURVE",
"347 41 QCURVE SMOOTH",
"360 74 OFFCURVE",
"360 110 QCURVE SMOOTH",
"360 167 OFFCURVE",
"331 198 QCURVE SMOOTH",
"308 222 OFFCURVE",
"261 222 QCURVE SMOOTH",
"218 222 OFFCURVE",
"192 194 QCURVE SMOOTH",
"177 178 OFFCURVE",
"177 157 QCURVE SMOOTH",
"177 136 OFFCURVE",
"205 102 OFFCURVE",
"226 98 QCURVE SMOOTH",
"247 94 OFFCURVE",
"255 94 QCURVE",
"293 86 OFFCURVE",
"299 60 QCURVE SMOOTH"
);
},
{
closed = 1;
nodes = (
"155 536 LINE",
"182 381 LINE",
"354 381 LINE",
"335 536 LINE"
);
}
);
};
layerId = m01;
paths = (
{
closed = 1;
nodes = (
"229 -60 OFFCURVE",
"320 -27 OFFCURVE",
"347 41 CURVE SMOOTH",
"356 63 OFFCURVE",
"360 86 OFFCURVE",
"360 110 CURVE SMOOTH",
"360 148 OFFCURVE",
"350 177 OFFCURVE",
"331 198 CURVE SMOOTH",
"316 214 OFFCURVE",
"292 222 OFFCURVE",
"261 222 CURVE SMOOTH",
"232 222 OFFCURVE",
"209 213 OFFCURVE",
"192 194 CURVE SMOOTH",
"182 183 OFFCURVE",
"177 171 OFFCURVE",
"177 157 CURVE SMOOTH",
"177 129 OFFCURVE",
"198 103 OFFCURVE",
"226 98 CURVE SMOOTH",
"240 95 OFFCURVE",
"250 94 OFFCURVE",
"255 94 CURVE",
"280 89 OFFCURVE",
"295 77 OFFCURVE",
"299 60 CURVE SMOOTH",
"300 57 OFFCURVE",
"300 53 OFFCURVE",
"300 50 CURVE SMOOTH",
"300 36 OFFCURVE",
"293 21 OFFCURVE",
"280 5 CURVE SMOOTH",
"245 -37 OFFCURVE",
"173 -35 OFFCURVE",
"173 -53 CURVE",
"185 -71 LINE"
);
},
{
closed = 1;
nodes = (
"354 381 LINE",
"335 536 LINE",
"155 536 LINE",
"182 381 LINE"
);
}
);
width = 522;
}
);
note = semicolon;
unicode = 003B;
},
{
glyphname = less;
lastChange = "2025-02-10 17:39:31 +0000";
layers = (
{
background = {
paths = (
{
closed = 1;
nodes = (
"276 323 LINE",
"602 474 LINE",
"602 564 LINE",
"102 323 LINE",
"604 86 LINE",
"604 175 LINE"
);
}
);
};
layerId = m01;
paths = (
{
closed = 1;
nodes = (
"604 175 LINE",
"276 323 LINE",
"602 474 LINE",
"602 564 LINE",
"102 323 LINE",
"604 86 LINE"
);
}
);
width = 702;
}
);
note = less;
unicode = 003C;
},
{
glyphname = equal;
lastChange = "2025-02-10 17:39:31 +0000";
layers = (
{
background = {
paths = (
{
closed = 1;
nodes = (
"733 262 LINE",
"92 262 LINE",
"92 192 LINE",
"733 192 LINE"
);
},
{
closed = 1;
nodes = (
"92 469 LINE",
"92 398 LINE",
"733 398 LINE",
"733 469 LINE"
);
}
);
};
layerId = m01;
paths = (
{
closed = 1;
nodes = (
"733 398 LINE",
"733 469 LINE",
"92 469 LINE",
"92 398 LINE"
);
},
{
closed = 1;
nodes = (
"733 192 LINE",
"733 262 LINE",
"92 262 LINE",
"92 192 LINE"
);
}
);
width = 821;
}
);
note = equal;
unicode = 003D;
},
{
glyphname = greater;
lastChange = "2025-02-10 17:39:31 +0000";
layers = (
{
background = {
paths = (
{
closed = 1;
nodes = (
"612 323 LINE",
"112 564 LINE",
"112 474 LINE",
"438 323 LINE",
"110 175 LINE",
"110 86 LINE"
);
}
);
};
layerId = m01;
paths = (
{
closed = 1;
nodes = (
"612 323 LINE",
"112 564 LINE",
"112 474 LINE",
"438 323 LINE",
"110 175 LINE",
"110 86 LINE"
);
}
);
width = 702;
}
);
note = greater;
unicode = 003E;
},
{
glyphname = question;
lastChange = "2025-02-10 17:39:31 +0000";
layers = (
{
background = {
paths = (
{
closed = 1;
nodes = (
"482 436 OFFCURVE",
"534 514 OFFCURVE",
"534 561 QCURVE SMOOTH",
"534 604 OFFCURVE",
"476 682 OFFCURVE",
"366 731 OFFCURVE",
"293 731 QCURVE SMOOTH",
"236 731 OFFCURVE",
"131 695 OFFCURVE",
"65 626 OFFCURVE",
"65 580 QCURVE SMOOTH",
"65 552 OFFCURVE",
"93 508 OFFCURVE",
"125 508 QCURVE SMOOTH",
"153 508 OFFCURVE",
"186 532 OFFCURVE",
"186 552 QCURVE SMOOTH",
"186 570 OFFCURVE",
"166 592 QCURVE SMOOTH",
"164 594 OFFCURVE",
"140 618 OFFCURVE",
"139 619 QCURVE",
"139 658 OFFCURVE",
"220 700 OFFCURVE",
"264 700 QCURVE SMOOTH",
"333 700 OFFCURVE",
"409 618 OFFCURVE",
"409 559 QCURVE SMOOTH",
"409 513 OFFCURVE",
"378 435 OFFCURVE",
"314 325 OFFCURVE",
"280 234 OFFCURVE",
"280 178 QCURVE",
"303 178 LINE",
"320 266 OFFCURVE",
"391 342 QCURVE SMOOTH",
"432 383 LINE SMOOTH"
);
},
{
closed = 1;
nodes = (
"321 110 OFFCURVE",
"293 110 QCURVE SMOOTH",
"262 110 OFFCURVE",
"213 71 OFFCURVE",
"213 46 QCURVE SMOOTH",
"213 22 OFFCURVE",
"263 -14 OFFCURVE",
"293 -14 QCURVE SMOOTH",
"321 -14 OFFCURVE",
"368 21 OFFCURVE",
"368 46 QCURVE SMOOTH",
"368 72 OFFCURVE"
);
}
);
};
layerId = m01;
paths = (
{
closed = 1;
nodes = (
"303 178 LINE",
"314 237 OFFCURVE",
"344 291 OFFCURVE",
"391 342 CURVE SMOOTH",
"432 383 LINE SMOOTH",
"499 454 OFFCURVE",
"534 498 OFFCURVE",
"534 561 CURVE SMOOTH",
"534 618 OFFCURVE",
"494 674 OFFCURVE",
"421 707 CURVE SMOOTH",
"384 723 OFFCURVE",
"342 731 OFFCURVE",
"293 731 CURVE SMOOTH",
"171 731 OFFCURVE",
"65 670 OFFCURVE",
"65 580 CURVE SMOOTH",
"65 543 OFFCURVE",
"82 508 OFFCURVE",
"125 508 CURVE SMOOTH",
"162 508 OFFCURVE",
"186 525 OFFCURVE",
"186 552 CURVE SMOOTH",
"186 564 OFFCURVE",
"179 577 OFFCURVE",
"166 592 CURVE SMOOTH",
"139 619 LINE",
"139 671 OFFCURVE",
"205 700 OFFCURVE",
"264 700 CURVE SMOOTH",
"356 700 OFFCURVE",
"409 638 OFFCURVE",
"409 559 CURVE SMOOTH",
"409 498 OFFCURVE",
"389 453 OFFCURVE",
"346 380 CURVE SMOOTH",
"303 307 OFFCURVE",
"280 253 OFFCURVE",
"280 178 CURVE"
);
},
{
closed = 1;
nodes = (
"330 -14 OFFCURVE",
"368 13 OFFCURVE",
"368 46 CURVE SMOOTH",
"368 81 OFFCURVE",
"330 110 OFFCURVE",
"293 110 CURVE SMOOTH",
"252 110 OFFCURVE",
"213 79 OFFCURVE",
"213 46 CURVE SMOOTH",
"213 14 OFFCURVE",
"253 -14 OFFCURVE",
"293 -14 CURVE SMOOTH"
);
}
);
width = 600;
}
);
note = question;
unicode = 003F;
},
{
glyphname = at;
lastChange = "2025-02-10 17:50:25 +0000";
layers = (
{
background = {
paths = (
{
closed = 1;
nodes = (
"577 -129 QCURVE SMOOTH",
"360 -129 OFFCURVE",
"135 80 OFFCURVE",
"135 245 QCURVE SMOOTH",
"135 421 OFFCURVE",
"350 683 OFFCURVE",
"573 683 QCURVE SMOOTH",
"730 683 OFFCURVE",
"926 522 OFFCURVE",
"926 382 QCURVE SMOOTH",
"926 257 OFFCURVE",
"783 106 OFFCURVE",
"742 106 QCURVE SMOOTH",
"722 106 OFFCURVE",
"722 133 QCURVE SMOOTH",
"722 144 OFFCURVE",
"729 178 QCURVE SMOOTH",
"807 553 LINE",
"670 553 LINE",
"657 495 LINE",
"612 566 OFFCURVE",
"519 566 QCURVE SMOOTH",
"398 566 OFFCURVE",
"236 353 OFFCURVE",
"236 219 QCURVE SMOOTH",
"236 122 OFFCURVE",
"346 0 OFFCURVE",
"438 0 QCURVE SMOOTH",
"518 0 OFFCURVE",
"579 59 QCURVE",
"594 0 OFFCURVE",
"674 0 QCURVE SMOOTH",
"839 0 OFFCURVE",
"1019 249 OFFCURVE",
"1019 377 QCURVE SMOOTH",
"1019 547 OFFCURVE",
"790 779 OFFCURVE",
"575 779 QCURVE SMOOTH",
"324 779 OFFCURVE",
"40 473 OFFCURVE",
"40 252 QCURVE SMOOTH",
"40 41 OFFCURVE",
"308 -225 OFFCURVE",
"585 -225 QCURVE SMOOTH",
"931 -225 OFFCURVE",
"1047 10 QCURVE",
"936 10 LINE",
"826 -129 OFFCURVE"
);
},
{
closed = 1;
nodes = (
"449 472 OFFCURVE",
"531 472 QCURVE SMOOTH",
"628 472 OFFCURVE",
"628 350 QCURVE SMOOTH",
"628 267 OFFCURVE",
"543 95 OFFCURVE",
"465 95 QCURVE SMOOTH",
"371 95 OFFCURVE",
"371 225 QCURVE SMOOTH",
"371 302 OFFCURVE"
);
}
);
};
layerId = m01;
paths = (
{
closed = 1;
nodes = (
"816 -225 OFFCURVE",
"970 -147 OFFCURVE",
"1047 10 CURVE",
"936 10 LINE",
"863 -83 OFFCURVE",
"743 -129 OFFCURVE",
"577 -129 CURVE SMOOTH",
"288 -129 OFFCURVE",
"135 25 OFFCURVE",
"135 245 CURVE SMOOTH",
"135 460 OFFCURVE",
"256 683 OFFCURVE",
"573 683 CURVE SMOOTH",
"782 683 OFFCURVE",
"926 569 OFFCURVE",
"926 382 CURVE SMOOTH",
"926 215 OFFCURVE",
"797 106 OFFCURVE",
"742 106 CURVE SMOOTH",
"729 106 OFFCURVE",
"722 115 OFFCURVE",
"722 133 CURVE SMOOTH",
"722 140 OFFCURVE",
"724 155 OFFCURVE",
"729 178 CURVE SMOOTH",
"807 553 LINE",
"670 553 LINE",
"657 495 LINE",
"627 542 OFFCURVE",
"581 566 OFFCURVE",
"519 566 CURVE SMOOTH",
"358 566 OFFCURVE",
"236 398 OFFCURVE",
"236 219 CURVE SMOOTH",
"236 90 OFFCURVE",
"315 0 OFFCURVE",
"438 0 CURVE SMOOTH",
"491 0 OFFCURVE",
"538 20 OFFCURVE",
"579 59 CURVE",
"589 20 OFFCURVE",
"621 0 OFFCURVE",
"674 0 CURVE SMOOTH",
"924 0 OFFCURVE",
"1019 236 OFFCURVE",
"1019 377 CURVE SMOOTH",
"1019 604 OFFCURVE",
"862 779 OFFCURVE",
"575 779 CURVE SMOOTH",
"230 779 OFFCURVE",
"40 537 OFFCURVE",
"40 252 CURVE SMOOTH",
"40 -29 OFFCURVE",
"216 -225 OFFCURVE",
"585 -225 CURVE SMOOTH"
);
},
{
closed = 1;
nodes = (
"402 95 OFFCURVE",
"371 138 OFFCURVE",
"371 225 CURVE SMOOTH",
"371 314 OFFCURVE",
"412 472 OFFCURVE",
"531 472 CURVE SMOOTH",
"596 472 OFFCURVE",
"628 431 OFFCURVE",
"628 350 CURVE SMOOTH",
"628 249 OFFCURVE",
"576 95 OFFCURVE",
"465 95 CURVE SMOOTH"
);
}
);
width = 1052;
}
);
note = at;
unicode = 0040;
},
{
glyphname = A;
lastChange = "2025-02-10 17:39:31 +0000";
layers = (
{
background = {
paths = (
{
closed = 1;
nodes = (
"298 766 LINE",
"0 0 LINE",
"164 0 LINE",
"227 174 LINE",
"534 174 LINE",
"600 0 LINE",
"768 0 LINE",
"462 766 LINE"
);
},
{
closed = 1;
nodes = (
"378 587 LINE",
"483 303 LINE",
"274 303 LINE"
);
}
);
};
layerId = m01;
paths = (
{
closed = 1;
nodes = (
"164 0 LINE",
"227 174 LINE",
"534 174 LINE",
"600 0 LINE",
"768 0 LINE",
"462 766 LINE",
"298 766 LINE",
"0 0 LINE"
);
},
{
closed = 1;
nodes = (
"378 587 LINE",
"483 303 LINE",
"274 303 LINE"
);
}
);
width = 773;
}
);
note = A;
unicode = 0041;
},
{
glyphname = B;
lastChange = "2025-02-10 17:39:31 +0000";
layers = (
{
background = {
paths = (
{
closed = 1;
nodes = (
"359 0 LINE SMOOTH",
"533 0 OFFCURVE",
"649 29 OFFCURVE",
"740 139 OFFCURVE",
"740 222 QCURVE SMOOTH",
"740 365 OFFCURVE",
"594 407 QCURVE",
"702 455 OFFCURVE",
"702 573 QCURVE SMOOTH",
"702 653 OFFCURVE",
"588 766 OFFCURVE",
"404 766 QCURVE SMOOTH",
"98 766 LINE",
"98 0 LINE"
);
},
{
closed = 1;
nodes = (
"483 638 OFFCURVE",
"552 605 OFFCURVE",
"552 551 QCURVE SMOOTH",
"552 494 OFFCURVE",
"474 461 OFFCURVE",
"354 461 QCURVE SMOOTH",
"252 461 LINE",
"252 638 LINE",
"341 638 LINE SMOOTH"
);
},
{
closed = 1;
nodes = (
"497 334 OFFCURVE",
"580 290 OFFCURVE",
"580 230 QCURVE SMOOTH",
"580 167 OFFCURVE",
"503 129 OFFCURVE",
"396 129 QCURVE SMOOTH",
"252 129 LINE",
"252 334 LINE",
"377 334 LINE SMOOTH"
);
}
);
};
layerId = m01;
paths = (
{
closed = 1;
nodes = (
"359 0 LINE SMOOTH",
"475 0 OFFCURVE",
"552 5 OFFCURVE",
"591 15 CURVE SMOOTH",
"668 34 OFFCURVE",
"740 111 OFFCURVE",
"740 222 CURVE SMOOTH",
"740 317 OFFCURVE",
"691 379 OFFCURVE",
"594 407 CURVE",
"666 439 OFFCURVE",
"702 494 OFFCURVE",
"702 573 CURVE SMOOTH",
"702 680 OFFCURVE",
"649 766 OFFCURVE",
"404 766 CURVE SMOOTH",
"98 766 LINE",
"98 0 LINE"
);
},
{
closed = 1;
nodes = (
"252 334 LINE",
"377 334 LINE SMOOTH",
"457 334 OFFCURVE",
"511 327 OFFCURVE",
"539 312 CURVE SMOOTH",
"566 297 OFFCURVE",
"580 270 OFFCURVE",
"580 230 CURVE SMOOTH",
"580 146 OFFCURVE",
"539 129 OFFCURVE",
"396 129 CURVE SMOOTH",
"252 129 LINE"
);
},
{
closed = 1;
nodes = (
"252 638 LINE",
"341 638 LINE SMOOTH",
"436 638 OFFCURVE",
"495 633 OFFCURVE",
"518 622 CURVE SMOOTH",
"541 611 OFFCURVE",
"552 587 OFFCURVE",
"552 551 CURVE SMOOTH",
"552 513 OFFCURVE",
"539 489 OFFCURVE",
"513 478 CURVE SMOOTH",
"487 467 OFFCURVE",
"434 461 OFFCURVE",
"354 461 CURVE SMOOTH",
"252 461 LINE"
);
}
);
width = 805;
}
);
note = B;
unicode = 0042;
},
{
glyphname = C;
lastChange = "2025-02-10 17:39:31 +0000";
layers = (
{
background = {
paths = (
{
closed = 1;
nodes = (
"410 119 QCURVE SMOOTH",
"222 119 OFFCURVE",
"222 387 QCURVE SMOOTH",
"222 646 OFFCURVE",
"413 646 QCURVE SMOOTH",
"545 646 OFFCURVE",
"575 518 QCURVE",
"728 554 LINE",
"665 778 OFFCURVE",
"421 778 QCURVE SMOOTH",
"253 778 OFFCURVE",
"63 559 OFFCURVE",
"63 376 QCURVE SMOOTH",
"63 222 OFFCURVE",
"233 -13 OFFCURVE",
"412 -13 QCURVE SMOOTH",
"662 -13 OFFCURVE",
"730 234 QCURVE",
"581 282 LINE",
"543 119 OFFCURVE"
);
}
);
};
layerId = m01;
paths = (
{
closed = 1;
nodes = (
"579 -13 OFFCURVE",
"685 69 OFFCURVE",
"730 234 CURVE",
"581 282 LINE",
"556 173 OFFCURVE",
"499 119 OFFCURVE",
"410 119 CURVE SMOOTH",
"285 119 OFFCURVE",
"222 208 OFFCURVE",
"222 387 CURVE SMOOTH",
"222 560 OFFCURVE",
"286 646 OFFCURVE",
"413 646 CURVE SMOOTH",
"501 646 OFFCURVE",
"555 603 OFFCURVE",
"575 518 CURVE",
"728 554 LINE",
"686 703 OFFCURVE",
"584 778 OFFCURVE",
"421 778 CURVE SMOOTH",
"197 778 OFFCURVE",
"63 620 OFFCURVE",
"63 376 CURVE SMOOTH",
"63 171 OFFCURVE",
"173 -13 OFFCURVE",
"412 -13 CURVE SMOOTH"
);
}
);
width = 798;
}
);
note = C;
unicode = 0043;
},
{
glyphname = D;
lastChange = "2025-02-10 17:39:31 +0000";
layers = (
{
background = {
paths = (
{
closed = 1;
nodes = (
"387 0 LINE SMOOTH",
"739 0 OFFCURVE",
"739 375 QCURVE SMOOTH",
"739 514 OFFCURVE",
"647 700 OFFCURVE",
"499 766 OFFCURVE",
"379 766 QCURVE SMOOTH",
"97 766 LINE",
"97 0 LINE"
);
},
{
closed = 1;
nodes = (
"431 636 OFFCURVE",
"521 605 OFFCURVE",
"579 495 OFFCURVE",
"579 382 QCURVE SMOOTH",
"579 231 OFFCURVE",
"485 129 OFFCURVE",
"367 129 QCURVE SMOOTH",
"251 129 LINE",
"251 636 LINE",
"321 636 LINE SMOOTH"
);
}
);
};
layerId = m01;
paths = (
{
closed = 1;
nodes = (
"387 0 LINE SMOOTH",
"622 0 OFFCURVE",
"739 125 OFFCURVE",
"739 375 CURVE SMOOTH",
"739 560 OFFCURVE",
"672 689 OFFCURVE",
"573 733 CURVE SMOOTH",
"524 755 OFFCURVE",
"459 766 OFFCURVE",
"379 766 CURVE SMOOTH",
"97 766 LINE",
"97 0 LINE"
);
},
{
closed = 1;
nodes = (
"251 636 LINE",
"321 636 LINE SMOOTH",
"468 636 OFFCURVE",
"511 623 OFFCURVE",
"550 550 CURVE SMOOTH",
"569 513 OFFCURVE",
"579 457 OFFCURVE",
"579 382 CURVE SMOOTH",
"579 181 OFFCURVE",
"524 129 OFFCURVE",
"367 129 CURVE SMOOTH",
"251 129 LINE"
);
}
);
width = 805;
}
);
note = D;
unicode = 0044;
},
{
glyphname = E;
lastChange = "2025-02-10 17:39:31 +0000";
layers = (
{
background = {
paths = (
{
closed = 1;
nodes = (
"679 129 LINE",
"251 129 LINE",
"251 338 LINE",
"636 338 LINE",
"636 466 LINE",
"251 466 LINE",
"251 636 LINE",
"665 636 LINE",
"665 766 LINE",
"97 766 LINE",
"97 0 LINE",
"679 0 LINE"
);
}
);
};
layerId = m01;
paths = (
{
closed = 1;
nodes = (
"679 0 LINE",
"679 129 LINE",
"251 129 LINE",
"251 338 LINE",
"636 338 LINE",
"636 466 LINE",
"251 466 LINE",
"251 636 LINE",
"665 636 LINE",
"665 766 LINE",
"97 766 LINE",
"97 0 LINE"
);
}
);
width = 746;
}
);
note = E;
unicode = 0045;
},
{
glyphname = F;
lastChange = "2025-02-10 17:39:31 +0000";
layers = (
{
background = {
paths = (
{
closed = 1;
nodes = (
"253 326 LINE",
"573 326 LINE",
"573 455 LINE",
"253 455 LINE",
"253 636 LINE",
"624 636 LINE",
"624 766 LINE",
"99 766 LINE",
"99 0 LINE",
"253 0 LINE"
);
}
);
};
layerId = m01;
paths = (
{
closed = 1;
nodes = (
"253 0 LINE",
"253 326 LINE",
"573 326 LINE",
"573 455 LINE",
"253 455 LINE",
"253 636 LINE",
"624 636 LINE",
"624 766 LINE",
"99 766 LINE",
"99 0 LINE"
);
}
);
width = 686;
}
);
note = F;
unicode = 0046;
},
{
glyphname = G;
lastChange = "2025-02-10 17:39:31 +0000";
layers = (
{
background = {
paths = (
{
closed = 1;
nodes = (
"624 184 LINE",
"540 119 OFFCURVE",
"442 119 QCURVE SMOOTH",
"336 119 OFFCURVE",
"223 265 OFFCURVE",
"223 392 QCURVE SMOOTH",
"223 646 OFFCURVE",
"444 646 QCURVE SMOOTH",
"582 646 OFFCURVE",
"617 525 QCURVE",
"770 554 LINE",
"721 778 OFFCURVE",
"444 778 QCURVE SMOOTH",
"285 778 OFFCURVE",
"64 582 OFFCURVE",
"64 386 QCURVE SMOOTH",
"64 210 OFFCURVE",
"262 -13 OFFCURVE",
"453 -13 QCURVE SMOOTH",
"651 -13 OFFCURVE",
"780 106 QCURVE",
"780 410 LINE",
"446 410 LINE",
"446 282 LINE",
"624 282 LINE"
);
}
);
};
layerId = m01;
paths = (
{
closed = 1;
nodes = (
"585 -13 OFFCURVE",
"694 27 OFFCURVE",
"780 106 CURVE",
"780 410 LINE",
"446 410 LINE",
"446 282 LINE",
"624 282 LINE",
"624 184 LINE",
"568 141 OFFCURVE",
"507 119 OFFCURVE",
"442 119 CURVE SMOOTH",
"301 119 OFFCURVE",
"223 223 OFFCURVE",
"223 392 CURVE SMOOTH",
"223 561 OFFCURVE",
"297 646 OFFCURVE",
"444 646 CURVE SMOOTH",
"536 646 OFFCURVE",
"594 606 OFFCURVE",
"617 525 CURVE",
"770 554 LINE",
"737 703 OFFCURVE",
"629 778 OFFCURVE",
"444 778 CURVE SMOOTH",
"232 778 OFFCURVE",
"64 647 OFFCURVE",
"64 386 CURVE SMOOTH",
"64 151 OFFCURVE",
"198 -13 OFFCURVE",
"453 -13 CURVE SMOOTH"
);
}
);
width = 861;
}
);
note = G;
unicode = 0047;
},
{
glyphname = H;
lastChange = "2025-02-10 17:39:31 +0000";
layers = (
{
background = {
paths = (
{
closed = 1;
nodes = (
"252 334 LINE",
"556 334 LINE",
"556 0 LINE",
"710 0 LINE",
"710 766 LINE",
"556 766 LINE",
"556 464 LINE",
"252 464 LINE",
"252 766 LINE",
"98 766 LINE",
"98 0 LINE",
"252 0 LINE"
);
}
);
};
layerId = m01;
paths = (
{
closed = 1;
nodes = (
"252 0 LINE",
"252 334 LINE",
"556 334 LINE",
"556 0 LINE",
"710 0 LINE",
"710 766 LINE",
"556 766 LINE",
"556 464 LINE",
"252 464 LINE",
"252 766 LINE",
"98 766 LINE",
"98 0 LINE"
);
}
);
width = 812;
}
);
note = H;
unicode = 0048;
},
{
glyphname = I;
lastChange = "2025-02-10 17:39:31 +0000";
layers = (
{
background = {
paths = (
{
closed = 1;
nodes = (
"246 766 LINE",
"91 766 LINE",
"91 0 LINE",
"246 0 LINE"
);
}
);
};
layerId = m01;
paths = (
{
closed = 1;
nodes = (
"246 0 LINE",
"246 766 LINE",
"91 766 LINE",
"91 0 LINE"
);
}
);
width = 332;
}
);
note = I;
unicode = 0049;
},
{
glyphname = J;
lastChange = "2025-02-10 17:39:31 +0000";
layers = (
{
background = {
paths = (
{
closed = 1;
nodes = (
"359 185 OFFCURVE",
"319 119 OFFCURVE",
"264 119 QCURVE SMOOTH",
"170 119 OFFCURVE",
"169 254 QCURVE",
"23 237 LINE",
"24 -13 OFFCURVE",
"259 -13 QCURVE SMOOTH",
"404 -13 OFFCURVE",
"513 140 OFFCURVE",
"513 281 QCURVE SMOOTH",
"513 766 LINE",
"359 766 LINE",
"359 271 LINE SMOOTH"
);
}
);
};
layerId = m01;
paths = (
{
closed = 1;
nodes = (
"452 -13 OFFCURVE",
"513 93 OFFCURVE",
"513 281 CURVE SMOOTH",
"513 766 LINE",
"359 766 LINE",
"359 271 LINE SMOOTH",
"359 156 OFFCURVE",
"337 119 OFFCURVE",
"264 119 CURVE SMOOTH",
"201 119 OFFCURVE",
"170 164 OFFCURVE",
"169 254 CURVE",
"23 237 LINE",
"24 70 OFFCURVE",
"102 -13 OFFCURVE",
"259 -13 CURVE SMOOTH"
);
}
);
width = 622;
}
);
note = J;
unicode = 004A;
},
{
glyphname = K;
lastChange = "2025-02-10 17:39:31 +0000";
layers = (
{
background = {
paths = (
{
closed = 1;
nodes = (
"254 231 LINE",
"380 359 LINE",
"590 0 LINE",
"790 0 LINE",
"486 467 LINE",
"774 766 LINE",
"566 766 LINE",
"254 426 LINE",
"254 766 LINE",
"100 766 LINE",
"100 0 LINE",
"254 0 LINE"
);
}
);
};
layerId = m01;
paths = (
{
closed = 1;
nodes = (
"254 0 LINE",
"254 231 LINE",
"380 359 LINE",
"590 0 LINE",
"790 0 LINE",
"486 467 LINE",
"774 766 LINE",
"566 766 LINE",
"254 426 LINE",
"254 766 LINE",
"100 766 LINE",
"100 0 LINE"
);
}
);
width = 792;
}
);
note = K;
unicode = 004B;
},
{
glyphname = L;
lastChange = "2025-02-10 17:39:31 +0000";
layers = (
{
background = {
paths = (
{
closed = 1;
nodes = (
"636 129 LINE",
"252 129 LINE",
"252 766 LINE",
"97 766 LINE",
"97 0 LINE",
"636 0 LINE"
);
}
);
};
layerId = m01;
paths = (
{
closed = 1;
nodes = (
"636 0 LINE",
"636 129 LINE",
"252 129 LINE",
"252 766 LINE",
"97 766 LINE",
"97 0 LINE"
);
}
);
width = 682;
}
);
note = L;
unicode = 004C;
},
{
glyphname = M;
lastChange = "2025-02-10 17:39:31 +0000";
layers = (
{
background = {
paths = (
{
closed = 1;
nodes = (
"238 602 LINE",
"389 0 LINE",
"539 0 LINE",
"691 602 LINE",
"691 0 LINE",
"834 0 LINE",
"834 766 LINE",
"602 766 LINE",
"465 243 LINE",
"326 766 LINE",
"95 766 LINE",
"95 0 LINE",
"238 0 LINE"
);
}
);
};
layerId = m01;
paths = (
{
closed = 1;
nodes = (
"238 0 LINE",
"238 602 LINE",
"389 0 LINE",
"539 0 LINE",
"691 602 LINE",
"691 0 LINE",
"834 0 LINE",
"834 766 LINE",
"602 766 LINE",
"465 243 LINE",
"326 766 LINE",
"95 766 LINE",
"95 0 LINE"
);
}
);
width = 929;
}
);
note = M;
unicode = 004D;
},
{
glyphname = N;
lastChange = "2025-02-10 17:39:31 +0000";
layers = (
{
background = {
paths = (
{
closed = 1;
nodes = (
"243 499 LINE",
"552 0 LINE",
"706 0 LINE",
"706 766 LINE",
"563 766 LINE",
"563 254 LINE",
"249 766 LINE",
"99 766 LINE",
"99 0 LINE",
"243 0 LINE"
);
}
);
};
layerId = m01;
paths = (
{
closed = 1;
nodes = (
"243 0 LINE",
"243 499 LINE",
"552 0 LINE",
"706 0 LINE",
"706 766 LINE",
"563 766 LINE",
"563 254 LINE",
"249 766 LINE",
"99 766 LINE",
"99 0 LINE"
);
}
);
width = 813;
}
);
note = N;
unicode = 004E;
},
{
glyphname = O;
lastChange = "2025-02-10 17:39:31 +0000";
layers = (
{
background = {
paths = (
{
closed = 1;
nodes = (
"256 -13 OFFCURVE",
"431 -13 QCURVE SMOOTH",
"604 -13 OFFCURVE",
"800 199 OFFCURVE",
"800 382 QCURVE SMOOTH",
"800 543 OFFCURVE",
"626 778 OFFCURVE",
"428 778 QCURVE SMOOTH",
"254 778 OFFCURVE",
"58 564 OFFCURVE",
"58 378 QCURVE SMOOTH",
"58 197 OFFCURVE"
);
},
{
closed = 1;
nodes = (
"430 646 QCURVE SMOOTH",
"641 646 OFFCURVE",
"641 386 QCURVE SMOOTH",
"641 271 OFFCURVE",
"536 119 OFFCURVE",
"430 119 QCURVE SMOOTH",
"328 119 OFFCURVE",
"217 264 OFFCURVE",
"217 383 QCURVE SMOOTH",
"217 646 OFFCURVE"
);
}
);
};
layerId = m01;
paths = (
{
closed = 1;
nodes = (
"662 -13 OFFCURVE",
"800 138 OFFCURVE",
"800 382 CURVE SMOOTH",
"800 597 OFFCURVE",
"692 778 OFFCURVE",
"428 778 CURVE SMOOTH",
"196 778 OFFCURVE",
"58 626 OFFCURVE",
"58 378 CURVE SMOOTH",
"58 137 OFFCURVE",
"198 -13 OFFCURVE",
"431 -13 CURVE SMOOTH"
);
},
{
closed = 1;
nodes = (
"294 119 OFFCURVE",
"217 224 OFFCURVE",
"217 383 CURVE SMOOTH",
"217 558 OFFCURVE",
"288 646 OFFCURVE",
"430 646 CURVE SMOOTH",
"571 646 OFFCURVE",
"641 559 OFFCURVE",
"641 386 CURVE SMOOTH",
"641 233 OFFCURVE",
"571 119 OFFCURVE",
"430 119 CURVE SMOOTH"
);
}
);
width = 854;
}
);
note = O;
unicode = 004F;
},
{
glyphname = P;
lastChange = "2025-02-10 17:39:31 +0000";
layers = (
{
background = {
paths = (
{
closed = 1;
nodes = (
"251 289 LINE",
"352 289 LINE SMOOTH",
"492 289 OFFCURVE",
"610 334 OFFCURVE",
"683 446 OFFCURVE",
"683 530 QCURVE SMOOTH",
"683 625 OFFCURVE",
"590 743 OFFCURVE",
"472 766 OFFCURVE",
"345 766 QCURVE SMOOTH",
"97 766 LINE",
"97 0 LINE",
"251 0 LINE"
);
},
{
closed = 1;
nodes = (
"448 636 OFFCURVE",
"524 590 OFFCURVE",
"524 528 QCURVE SMOOTH",
"524 464 OFFCURVE",
"439 419 OFFCURVE",
"336 419 QCURVE SMOOTH",
"251 419 LINE",
"251 636 LINE",
"327 636 LINE SMOOTH"
);
}
);
};
layerId = m01;
paths = (
{
closed = 1;
nodes = (
"251 0 LINE",
"251 289 LINE",
"352 289 LINE SMOOTH",
"539 289 OFFCURVE",
"598 315 OFFCURVE",
"647 390 CURVE SMOOTH",
"671 427 OFFCURVE",
"683 474 OFFCURVE",
"683 530 CURVE SMOOTH",
"683 657 OFFCURVE",
"610 739 OFFCURVE",
"531 755 CURVE SMOOTH",
"492 762 OFFCURVE",
"430 766 OFFCURVE",
"345 766 CURVE SMOOTH",
"97 766 LINE",
"97 0 LINE"
);
},
{
closed = 1;
nodes = (
"251 636 LINE",
"327 636 LINE SMOOTH",
"488 636 OFFCURVE",
"524 611 OFFCURVE",
"524 528 CURVE SMOOTH",
"524 443 OFFCURVE",
"473 419 OFFCURVE",
"336 419 CURVE SMOOTH",
"251 419 LINE"
);
}
);
width = 745;
}
);
note = P;
unicode = 0050;
},
{
glyphname = Q;
lastChange = "2025-02-10 17:39:31 +0000";
layers = (
{
background = {
paths = (
{
closed = 1;
nodes = (
"800 383 QCURVE SMOOTH",
"800 567 OFFCURVE",
"605 778 OFFCURVE",
"431 778 QCURVE SMOOTH",
"255 778 OFFCURVE",
"58 567 OFFCURVE",
"58 383 QCURVE SMOOTH",
"58 219 OFFCURVE",
"234 -13 OFFCURVE",
"435 -13 QCURVE SMOOTH",
"526 -13 OFFCURVE",
"601 20 QCURVE",
"718 -62 OFFCURVE",
"772 -77 QCURVE",
"829 32 LINE",
"763 57 OFFCURVE",
"706 97 QCURVE",
"800 208 OFFCURVE"
);
},
{
closed = 1;
nodes = (
"436 262 QCURVE",
"392 174 LINE",
"441 157 OFFCURVE",
"488 126 QCURVE",
"458 115 OFFCURVE",
"424 115 QCURVE SMOOTH",
"314 115 OFFCURVE",
"217 274 OFFCURVE",
"217 383 QCURVE SMOOTH",
"217 505 OFFCURVE",
"327 646 OFFCURVE",
"429 646 QCURVE SMOOTH",
"641 646 OFFCURVE",
"641 383 QCURVE SMOOTH",
"641 254 OFFCURVE",
"581 184 QCURVE",
"512 237 OFFCURVE"
);
}
);
};
layerId = m01;
paths = (
{
closed = 1;
nodes = (
"829 32 LINE",
"785 49 OFFCURVE",
"744 70 OFFCURVE",
"706 97 CURVE",
"769 171 OFFCURVE",
"800 266 OFFCURVE",
"800 383 CURVE SMOOTH",
"800 628 OFFCURVE",
"663 778 OFFCURVE",
"431 778 CURVE SMOOTH",
"196 778 OFFCURVE",
"58 628 OFFCURVE",
"58 383 CURVE SMOOTH",
"58 164 OFFCURVE",
"167 -13 OFFCURVE",
"435 -13 CURVE SMOOTH",
"496 -13 OFFCURVE",
"551 -2 OFFCURVE",
"601 20 CURVE",
"679 -35 OFFCURVE",
"736 -67 OFFCURVE",
"772 -77 CURVE"
);
},
{
closed = 1;
nodes = (
"277 115 OFFCURVE",
"217 238 OFFCURVE",
"217 383 CURVE SMOOTH",
"217 546 OFFCURVE",
"293 646 OFFCURVE",
"429 646 CURVE SMOOTH",
"570 646 OFFCURVE",
"641 558 OFFCURVE",
"641 383 CURVE SMOOTH",
"641 297 OFFCURVE",
"621 231 OFFCURVE",
"581 184 CURVE",
"535 219 OFFCURVE",
"487 245 OFFCURVE",
"436 262 CURVE",
"392 174 LINE",
"425 163 OFFCURVE",
"457 147 OFFCURVE",
"488 126 CURVE",
"468 119 OFFCURVE",
"447 115 OFFCURVE",
"424 115 CURVE SMOOTH"
);
}
);
width = 847;
}
);
note = Q;
unicode = 0051;
},
{
glyphname = R;
lastChange = "2025-02-10 17:39:31 +0000";
layers = (
{
background = {
paths = (
{
closed = 1;
nodes = (
"252 320 LINE",
"284 320 LINE SMOOTH",
"349 320 OFFCURVE",
"410 285 OFFCURVE",
"435 248 QCURVE SMOOTH",
"601 0 LINE",
"786 0 LINE",
"692 150 LINE SMOOTH",
"600 297 OFFCURVE",
"522 338 QCURVE",
"724 367 OFFCURVE",
"724 551 QCURVE SMOOTH",
"724 674 OFFCURVE",
"575 766 OFFCURVE",
"424 766 QCURVE SMOOTH",
"98 766 LINE",
"98 0 LINE",
"252 0 LINE"
);
},
{
closed = 1;
nodes = (
"373 636 LINE SMOOTH",
"498 636 OFFCURVE",
"565 598 OFFCURVE",
"565 541 QCURVE SMOOTH",
"565 481 OFFCURVE",
"484 442 OFFCURVE",
"367 442 QCURVE SMOOTH",
"252 442 LINE",
"252 636 LINE"
);
}
);
};
layerId = m01;
paths = (
{
closed = 1;
nodes = (
"252 0 LINE",
"252 320 LINE",
"284 320 LINE SMOOTH",
"371 320 OFFCURVE",
"402 297 OFFCURVE",
"435 248 CURVE SMOOTH",
"601 0 LINE",
"786 0 LINE",
"692 150 LINE SMOOTH",
"631 248 OFFCURVE",
"574 311 OFFCURVE",
"522 338 CURVE",
"657 357 OFFCURVE",
"724 428 OFFCURVE",
"724 551 CURVE SMOOTH",
"724 715 OFFCURVE",
"625 766 OFFCURVE",
"424 766 CURVE SMOOTH",
"98 766 LINE",
"98 0 LINE"
);
},
{
closed = 1;
nodes = (
"252 636 LINE",
"373 636 LINE SMOOTH",
"456 636 OFFCURVE",
"509 630 OFFCURVE",
"532 617 CURVE SMOOTH",
"554 604 OFFCURVE",
"565 579 OFFCURVE",
"565 541 CURVE SMOOTH",
"565 501 OFFCURVE",
"552 475 OFFCURVE",
"525 462 CURVE SMOOTH",
"498 449 OFFCURVE",
"445 442 OFFCURVE",
"367 442 CURVE SMOOTH",
"252 442 LINE"
);
}
);
width = 793;
}
);
note = R;
unicode = 0052;
},
{
glyphname = S;
lastChange = "2025-02-10 17:39:31 +0000";
layers = (
{
background = {
paths = (
{
closed = 1;
nodes = (
"364 -14 QCURVE SMOOTH",
"670 -14 OFFCURVE",
"670 223 QCURVE SMOOTH",
"670 305 OFFCURVE",
"583 426 OFFCURVE",
"390 475 QCURVE SMOOTH",
"270 506 OFFCURVE",
"224 550 OFFCURVE",
"224 575 QCURVE SMOOTH",
"224 650 OFFCURVE",
"354 650 QCURVE SMOOTH",
"476 650 OFFCURVE",
"494 540 QCURVE",
"649 546 LINE",
"641 778 OFFCURVE",
"355 778 QCURVE SMOOTH",
"230 778 OFFCURVE",
"76 667 OFFCURVE",
"76 565 QCURVE SMOOTH",
"76 397 OFFCURVE",
"321 335 QCURVE SMOOTH",
"450 303 OFFCURVE",
"516 262 OFFCURVE",
"516 222 QCURVE SMOOTH",
"516 117 OFFCURVE",
"366 117 QCURVE SMOOTH",
"225 117 OFFCURVE",
"198 264 QCURVE",
"48 249 LINE",
"79 -14 OFFCURVE"
);
}
);
};
layerId = m01;
paths = (
{
closed = 1;
nodes = (
"568 -14 OFFCURVE",
"670 65 OFFCURVE",
"670 223 CURVE SMOOTH",
"670 278 OFFCURVE",
"656 325 OFFCURVE",
"627 366 CURVE SMOOTH",
"598 406 OFFCURVE",
"519 442 OFFCURVE",
"390 475 CURVE SMOOTH",
"310 496 OFFCURVE",
"262 513 OFFCURVE",
"247 528 CURVE SMOOTH",
"232 543 OFFCURVE",
"224 558 OFFCURVE",
"224 575 CURVE SMOOTH",
"224 625 OFFCURVE",
"267 650 OFFCURVE",
"354 650 CURVE SMOOTH",
"435 650 OFFCURVE",
"482 613 OFFCURVE",
"494 540 CURVE",
"649 546 LINE",
"644 701 OFFCURVE",
"546 778 OFFCURVE",
"355 778 CURVE SMOOTH",
"188 778 OFFCURVE",
"76 701 OFFCURVE",
"76 565 CURVE SMOOTH",
"76 453 OFFCURVE",
"158 376 OFFCURVE",
"321 335 CURVE SMOOTH",
"407 314 OFFCURVE",
"461 296 OFFCURVE",
"483 283 CURVE SMOOTH",
"505 269 OFFCURVE",
"516 249 OFFCURVE",
"516 222 CURVE SMOOTH",
"516 152 OFFCURVE",
"466 117 OFFCURVE",
"366 117 CURVE SMOOTH",
"272 117 OFFCURVE",
"216 166 OFFCURVE",
"198 264 CURVE",
"48 249 LINE",
"69 74 OFFCURVE",
"174 -14 OFFCURVE",
"364 -14 CURVE SMOOTH"
);
}
);
width = 736;
}
);
note = S;
unicode = 0053;
},
{
glyphname = T;
lastChange = "2025-02-10 17:39:31 +0000";
layers = (
{
background = {
paths = (
{
closed = 1;
nodes = (
"411 636 LINE",
"637 636 LINE",
"637 766 LINE",
"29 766 LINE",
"29 636 LINE",
"256 636 LINE",
"256 0 LINE",
"411 0 LINE"
);
}
);
};
layerId = m01;
paths = (
{
closed = 1;
nodes = (
"411 0 LINE",
"411 636 LINE",
"637 636 LINE",
"637 766 LINE",
"29 766 LINE",
"29 636 LINE",
"256 636 LINE",
"256 0 LINE"
);
}
);
width = 665;
}
);
note = T;
unicode = 0054;
},
{
glyphname = U;
lastChange = "2025-02-10 17:39:31 +0000";
layers = (
{
background = {
paths = (
{
closed = 1;
nodes = (
"96 198 OFFCURVE",
"146 68 OFFCURVE",
"286 -13 OFFCURVE",
"410 -13 QCURVE SMOOTH",
"538 -13 OFFCURVE",
"672 82 OFFCURVE",
"706 222 OFFCURVE",
"706 363 QCURVE SMOOTH",
"706 766 LINE",
"552 766 LINE",
"552 342 LINE SMOOTH",
"552 199 OFFCURVE",
"490 119 OFFCURVE",
"406 119 QCURVE SMOOTH",
"338 119 OFFCURVE",
"263 176 OFFCURVE",
"250 259 OFFCURVE",
"250 351 QCURVE SMOOTH",
"250 766 LINE",
"96 766 LINE",
"96 358 LINE SMOOTH"
);
}
);
};
layerId = m01;
paths = (
{
closed = 1;
nodes = (
"581 -13 OFFCURVE",
"666 59 OFFCURVE",
"689 152 CURVE SMOOTH",
"700 199 OFFCURVE",
"706 269 OFFCURVE",
"706 363 CURVE SMOOTH",
"706 766 LINE",
"552 766 LINE",
"552 342 LINE SMOOTH",
"552 151 OFFCURVE",
"518 119 OFFCURVE",
"406 119 CURVE SMOOTH",
"315 119 OFFCURVE",
"265 162 OFFCURVE",
"257 218 CURVE SMOOTH",
"252 245 OFFCURVE",
"250 290 OFFCURVE",
"250 351 CURVE SMOOTH",
"250 766 LINE",
"96 766 LINE",
"96 358 LINE SMOOTH",
"96 145 OFFCURVE",
"123 82 OFFCURVE",
"216 28 CURVE SMOOTH",
"263 1 OFFCURVE",
"327 -13 OFFCURVE",
"410 -13 CURVE SMOOTH"
);
}
);
width = 812;
}
);
note = U;
unicode = 0055;
},
{
glyphname = V;
lastChange = "2025-02-10 17:39:31 +0000";
layers = (
{
background = {
paths = (
{
closed = 1;
nodes = (
"712 766 LINE",
"548 766 LINE",
"361 199 LINE",
"167 766 LINE",
"-1 766 LINE",
"273 0 LINE",
"438 0 LINE"
);
}
);
};
layerId = m01;
paths = (
{
closed = 1;
nodes = (
"438 0 LINE",
"712 766 LINE",
"548 766 LINE",
"361 199 LINE",
"167 766 LINE",
"-1 766 LINE",
"273 0 LINE"
);
}
);
width = 714;
}
);
note = V;
unicode = 0056;
},
{
glyphname = W;
lastChange = "2025-02-10 17:39:31 +0000";
layers = (
{
background = {
paths = (
{
closed = 1;
nodes = (
"507 572 LINE",
"659 0 LINE",
"823 0 LINE",
"1010 766 LINE",
"854 766 LINE",
"736 231 LINE",
"602 766 LINE",
"419 766 LINE",
"279 240 LINE",
"163 766 LINE",
"5 766 LINE",
"187 0 LINE",
"355 0 LINE"
);
}
);
};
layerId = m01;
paths = (
{
closed = 1;
nodes = (
"355 0 LINE",
"507 572 LINE",
"659 0 LINE",
"823 0 LINE",
"1010 766 LINE",
"854 766 LINE",
"736 231 LINE",
"602 766 LINE",
"419 766 LINE",
"279 240 LINE",
"163 766 LINE",
"5 766 LINE",
"187 0 LINE"
);
}
);
width = 1011;
}
);
note = W;
unicode = 0057;
},
{
glyphname = X;
lastChange = "2025-02-10 17:39:31 +0000";
layers = (
{
background = {
paths = (
{
closed = 1;
nodes = (
"356 265 LINE",
"526 0 LINE",
"712 0 LINE",
"450 394 LINE",
"688 766 LINE",
"509 766 LINE",
"358 520 LINE",
"206 766 LINE",
"25 766 LINE",
"262 399 LINE",
"0 0 LINE",
"186 0 LINE"
);
}
);
};
layerId = m01;
paths = (
{
closed = 1;
nodes = (
"186 0 LINE",
"356 265 LINE",
"526 0 LINE",
"712 0 LINE",
"450 394 LINE",
"688 766 LINE",
"509 766 LINE",
"358 520 LINE",
"206 766 LINE",
"25 766 LINE",
"262 399 LINE",
"0 0 LINE"
);
}
);
width = 714;
}
);
note = X;
unicode = 0058;
},
{
glyphname = Y;
lastChange = "2025-02-10 17:39:31 +0000";
layers = (
{
background = {
paths = (
{
closed = 1;
nodes = (
"432 321 LINE",
"714 766 LINE",
"536 766 LINE",
"360 462 LINE",
"180 766 LINE",
"-2 766 LINE",
"279 322 LINE",
"279 0 LINE",
"432 0 LINE"
);
}
);
};
layerId = m01;
paths = (
{
closed = 1;
nodes = (
"432 0 LINE",
"432 321 LINE",
"714 766 LINE",
"536 766 LINE",
"360 462 LINE",
"180 766 LINE",
"-2 766 LINE",
"279 322 LINE",
"279 0 LINE"
);
}
);
width = 713;
}
);
note = Y;
unicode = 0059;
},
{
glyphname = Z;
lastChange = "2025-02-10 17:39:31 +0000";
layers = (
{
background = {
paths = (
{
closed = 1;
nodes = (
"636 129 LINE",
"200 129 LINE",
"620 646 LINE",
"620 766 LINE",
"60 766 LINE",
"60 636 LINE",
"416 636 LINE",
"14 139 LINE",
"14 0 LINE",
"636 0 LINE"
);
}
);
};
layerId = m01;
paths = (
{
closed = 1;
nodes = (
"636 0 LINE",
"636 129 LINE",
"200 129 LINE",
"620 646 LINE",
"620 766 LINE",
"60 766 LINE",
"60 636 LINE",
"416 636 LINE",
"14 139 LINE",
"14 0 LINE"
);
}
);
width = 661;
}
);
note = Z;
unicode = 005A;
},
{
glyphname = bracketleft;
lastChange = "2025-02-10 17:39:31 +0000";
layers = (
{
background = {
paths = (
{
closed = 1;
nodes = (
"355 -100 LINE",
"235 -100 LINE",
"235 650 LINE",
"355 650 LINE",
"355 766 LINE",
"95 766 LINE",
"95 -216 LINE",
"355 -216 LINE"
);
}
);
};
layerId = m01;
paths = (
{
closed = 1;
nodes = (
"355 -216 LINE",
"355 -100 LINE",
"235 -100 LINE",
"235 650 LINE",
"355 650 LINE",
"355 766 LINE",
"95 766 LINE",
"95 -216 LINE"
);
}
);
width = 380;
}
);
note = bracketleft;
unicode = 005B;
},
{
glyphname = backslash;
lastChange = "2025-02-10 17:39:31 +0000";
layers = (
{
background = {
paths = (
{
closed = 1;
nodes = (
"125 774 LINE SMOOTH",
"115 774 OFFCURVE",
"48 741 QCURVE",
"199 276 LINE",
"243 127 OFFCURVE",
"293 -22 QCURVE",
"338 21 LINE",
"351 49 OFFCURVE",
"373 78 QCURVE",
"314 286 OFFCURVE",
"143 775 QCURVE"
);
}
);
};
layerId = m01;
paths = (
{
closed = 1;
nodes = (
"338 21 LINE",
"347 40 OFFCURVE",
"358 59 OFFCURVE",
"373 78 CURVE",
"334 217 OFFCURVE",
"257 449 OFFCURVE",
"143 775 CURVE",
"125 774 LINE SMOOTH",
"118 774 OFFCURVE",
"93 763 OFFCURVE",
"48 741 CURVE",
"199 276 LINE SMOOTH",
"228 177 OFFCURVE",
"260 77 OFFCURVE",
"293 -22 CURVE"
);
}
);
width = 423;
}
);
note = backslash;
unicode = 005C;
},
{
glyphname = bracketright;
lastChange = "2025-02-10 17:39:31 +0000";
layers = (
{
background = {
paths = (
{
closed = 1;
nodes = (
"25 651 LINE",
"146 651 LINE",
"146 -100 LINE",
"25 -100 LINE",
"25 -216 LINE",
"285 -216 LINE",
"285 766 LINE",
"25 766 LINE"
);
}
);
};
layerId = m01;
paths = (
{
closed = 1;
nodes = (
"285 -216 LINE",
"285 766 LINE",
"25 766 LINE",
"25 651 LINE",
"146 651 LINE",
"146 -100 LINE",
"25 -100 LINE",
"25 -216 LINE"
);
}
);
width = 380;
}
);
note = bracketright;
unicode = 005D;
},
{
glyphname = asciicircum;
lastChange = "2025-02-10 17:39:31 +0000";
layers = (
{
background = {
paths = (
{
closed = 1;
nodes = (
"327 617 LINE",
"431 362 LINE",
"579 362 LINE",
"388 778 LINE",
"272 778 LINE",
"75 362 LINE",
"225 362 LINE"
);
}
);
};
layerId = m01;
paths = (
{
closed = 1;
nodes = (
"225 362 LINE",
"327 617 LINE",
"431 362 LINE",
"579 362 LINE",
"388 778 LINE",
"272 778 LINE",
"75 362 LINE"
);
}
);
width = 655;
}
);
note = asciicircum;
unicode = 005E;
},
{
glyphname = underscore;
lastChange = "2025-02-10 17:39:31 +0000";
layers = (
{
background = {
paths = (
{
closed = 1;
nodes = (
"598 -117 LINE",
"-12 -117 LINE",
"-12 -211 LINE",
"598 -211 LINE"
);
}
);
};
layerId = m01;
paths = (
{
closed = 1;
nodes = (
"598 -211 LINE",
"598 -117 LINE",
"-12 -117 LINE",
"-12 -211 LINE"
);
}
);
width = 592;
}
);
note = underscore;
unicode = 005F;
},
{
glyphname = grave;
lastChange = "2025-02-10 17:39:31 +0000";
layers = (
{
background = {
paths = (
{
closed = 1;
nodes = (
"27 778 LINE",
"172 622 LINE",
"264 622 LINE",
"192 778 LINE"
);
}
);
};
layerId = m01;
paths = (
{
closed = 1;
nodes = (
"264 622 LINE",
"192 778 LINE",
"27 778 LINE",
"172 622 LINE"
);
}
);
width = 386;
}
);
note = grave;
unicode = 0060;
},
{
glyphname = a;
lastChange = "2025-02-10 17:39:31 +0000";
layers = (
{
background = {
paths = (
{
closed = 1;
nodes = (
"293 455 QCURVE SMOOTH",
"393 455 OFFCURVE",
"393 377 QCURVE SMOOTH",
"393 362 LINE",
"354 346 OFFCURVE",
"250 326 QCURVE SMOOTH",
"114 299 OFFCURVE",
"48 211 OFFCURVE",
"48 151 QCURVE SMOOTH",
"48 76 OFFCURVE",
"150 -13 OFFCURVE",
"232 -13 QCURVE SMOOTH",
"329 -13 OFFCURVE",
"404 61 QCURVE",
"414 22 OFFCURVE",
"423 0 QCURVE",
"568 0 LINE",
"535 68 OFFCURVE",
"535 182 QCURVE SMOOTH",
"537 354 LINE SMOOTH",
"537 473 OFFCURVE",
"440 567 OFFCURVE",
"303 567 QCURVE SMOOTH",
"107 567 OFFCURVE",
"63 410 QCURVE",
"196 386 LINE",
"221 455 OFFCURVE"
);
},
{
closed = 1;
nodes = (
"393 91 OFFCURVE",
"276 91 QCURVE SMOOTH",
"246 91 OFFCURVE",
"194 130 OFFCURVE",
"194 166 QCURVE SMOOTH",
"194 198 OFFCURVE",
"223 218 QCURVE",
"322 253 OFFCURVE",
"393 266 QCURVE",
"393 237 LINE SMOOTH"
);
}
);
};
layerId = m01;
paths = (
{
closed = 1;
nodes = (
"297 -13 OFFCURVE",
"354 12 OFFCURVE",
"404 61 CURVE",
"411 35 OFFCURVE",
"417 15 OFFCURVE",
"423 0 CURVE",
"568 0 LINE",
"546 45 OFFCURVE",
"535 106 OFFCURVE",
"535 182 CURVE SMOOTH",
"537 354 LINE SMOOTH",
"537 513 OFFCURVE",
"486 567 OFFCURVE",
"303 567 CURVE SMOOTH",
"172 567 OFFCURVE",
"92 515 OFFCURVE",
"63 410 CURVE",
"196 386 LINE",
"213 432 OFFCURVE",
"245 455 OFFCURVE",
"293 455 CURVE SMOOTH",
"360 455 OFFCURVE",
"393 429 OFFCURVE",
"393 377 CURVE SMOOTH",
"393 362 LINE",
"367 351 OFFCURVE",
"319 339 OFFCURVE",
"250 326 CURVE SMOOTH",
"69 290 OFFCURVE",
"48 231 OFFCURVE",
"48 151 CURVE SMOOTH",
"48 51 OFFCURVE",
"123 -13 OFFCURVE",
"232 -13 CURVE SMOOTH"
);
},
{
closed = 1;
nodes = (
"236 91 OFFCURVE",
"194 118 OFFCURVE",
"194 166 CURVE SMOOTH",
"194 187 OFFCURVE",
"204 205 OFFCURVE",
"223 218 CURVE",
"289 241 OFFCURVE",
"346 257 OFFCURVE",
"393 266 CURVE",
"393 237 LINE SMOOTH",
"393 140 OFFCURVE",
"354 91 OFFCURVE",
"276 91 CURVE SMOOTH"
);
}
);
width = 614;
}
);
note = a;
unicode = 0061;
},
{
glyphname = b;
lastChange = "2025-02-10 17:39:31 +0000";
layers = (
{
background = {
paths = (
{
closed = 1;
nodes = (
"225 82 LINE",
"292 -13 OFFCURVE",
"398 -13 QCURVE SMOOTH",
"515 -13 OFFCURVE",
"630 167 OFFCURVE",
"630 283 QCURVE SMOOTH",
"630 410 OFFCURVE",
"506 567 OFFCURVE",
"396 567 QCURVE SMOOTH",
"302 567 OFFCURVE",
"235 490 QCURVE",
"235 766 LINE",
"88 766 LINE",
"88 0 LINE",
"225 0 LINE"
);
},
{
closed = 1;
nodes = (
"357 455 QCURVE SMOOTH",
"479 455 OFFCURVE",
"479 276 QCURVE SMOOTH",
"479 103 OFFCURVE",
"362 103 QCURVE SMOOTH",
"234 103 OFFCURVE",
"234 290 QCURVE SMOOTH",
"234 455 OFFCURVE"
);
}
);
};
layerId = m01;
paths = (
{
closed = 1;
nodes = (
"554 -13 OFFCURVE",
"630 128 OFFCURVE",
"630 283 CURVE SMOOTH",
"630 452 OFFCURVE",
"543 567 OFFCURVE",
"396 567 CURVE SMOOTH",
"333 567 OFFCURVE",
"280 541 OFFCURVE",
"235 490 CURVE",
"235 766 LINE",
"88 766 LINE",
"88 0 LINE",
"225 0 LINE",
"225 82 LINE",
"270 19 OFFCURVE",
"327 -13 OFFCURVE",
"398 -13 CURVE SMOOTH"
);
},
{
closed = 1;
nodes = (
"277 103 OFFCURVE",
"234 165 OFFCURVE",
"234 290 CURVE SMOOTH",
"234 400 OFFCURVE",
"275 455 OFFCURVE",
"357 455 CURVE SMOOTH",
"438 455 OFFCURVE",
"479 395 OFFCURVE",
"479 276 CURVE SMOOTH",
"479 161 OFFCURVE",
"440 103 OFFCURVE",
"362 103 CURVE SMOOTH"
);
}
);
width = 682;
}
);
note = b;
unicode = 0062;
},
{
glyphname = c;
lastChange = "2025-02-10 17:39:31 +0000";
layers = (
{
background = {
paths = (
{
closed = 1;
nodes = (
"325 567 QCURVE SMOOTH",
"182 567 OFFCURVE",
"55 395 OFFCURVE",
"55 277 QCURVE SMOOTH",
"55 146 OFFCURVE",
"197 -13 OFFCURVE",
"321 -13 QCURVE SMOOTH",
"533 -13 OFFCURVE",
"579 188 QCURVE",
"434 213 LINE",
"414 107 OFFCURVE",
"329 107 QCURVE SMOOTH",
"206 107 OFFCURVE",
"206 287 QCURVE SMOOTH",
"206 452 OFFCURVE",
"326 452 QCURVE SMOOTH",
"412 452 OFFCURVE",
"427 365 QCURVE",
"571 390 LINE",
"520 567 OFFCURVE"
);
}
);
};
layerId = m01;
paths = (
{
closed = 1;
nodes = (
"462 -13 OFFCURVE",
"548 54 OFFCURVE",
"579 188 CURVE",
"434 213 LINE",
"421 142 OFFCURVE",
"386 107 OFFCURVE",
"329 107 CURVE SMOOTH",
"247 107 OFFCURVE",
"206 167 OFFCURVE",
"206 287 CURVE SMOOTH",
"206 397 OFFCURVE",
"246 452 OFFCURVE",
"326 452 CURVE SMOOTH",
"383 452 OFFCURVE",
"417 423 OFFCURVE",
"427 365 CURVE",
"571 390 LINE",
"537 508 OFFCURVE",
"455 567 OFFCURVE",
"325 567 CURVE SMOOTH",
"134 567 OFFCURVE",
"55 434 OFFCURVE",
"55 277 CURVE SMOOTH",
"55 102 OFFCURVE",
"156 -13 OFFCURVE",
"321 -13 CURVE SMOOTH"
);
}
);
width = 613;
}
);
note = c;
unicode = 0063;
},
{
glyphname = d;
lastChange = "2025-02-10 17:39:31 +0000";
layers = (
{
background = {
paths = (
{
closed = 1;
nodes = (
"449 766 LINE",
"449 490 LINE",
"381 567 OFFCURVE",
"289 567 QCURVE SMOOTH",
"177 567 OFFCURVE",
"55 411 OFFCURVE",
"55 279 QCURVE SMOOTH",
"55 154 OFFCURVE",
"181 -13 OFFCURVE",
"287 -13 QCURVE SMOOTH",
"393 -13 OFFCURVE",
"460 82 QCURVE",
"460 0 LINE",
"597 0 LINE",
"597 766 LINE"
);
},
{
closed = 1;
nodes = (
"328 455 QCURVE SMOOTH",
"450 455 OFFCURVE",
"450 275 QCURVE SMOOTH",
"450 201 OFFCURVE",
"387 103 OFFCURVE",
"329 103 QCURVE SMOOTH",
"205 103 OFFCURVE",
"205 290 QCURVE SMOOTH",
"205 455 OFFCURVE"
);
}
);
};
layerId = m01;
paths = (
{
closed = 1;
nodes = (
"358 -13 OFFCURVE",
"415 19 OFFCURVE",
"460 82 CURVE",
"460 0 LINE",
"597 0 LINE",
"597 766 LINE",
"449 766 LINE",
"449 490 LINE",
"404 541 OFFCURVE",
"350 567 OFFCURVE",
"289 567 CURVE SMOOTH",
"140 567 OFFCURVE",
"55 455 OFFCURVE",
"55 279 CURVE SMOOTH",
"55 112 OFFCURVE",
"146 -13 OFFCURVE",
"287 -13 CURVE SMOOTH"
);
},
{
closed = 1;
nodes = (
"246 103 OFFCURVE",
"205 165 OFFCURVE",
"205 290 CURVE SMOOTH",
"205 400 OFFCURVE",
"246 455 OFFCURVE",
"328 455 CURVE SMOOTH",
"409 455 OFFCURVE",
"450 395 OFFCURVE",
"450 275 CURVE SMOOTH",
"450 176 OFFCURVE",
"406 103 OFFCURVE",
"329 103 CURVE SMOOTH"
);
}
);
width = 682;
}
);
note = d;
unicode = 0064;
},
{
glyphname = e;
lastChange = "2025-02-10 17:39:31 +0000";
layers = (
{
background = {
paths = (
{
closed = 1;
nodes = (
"313 97 QCURVE SMOOTH",
"200 97 OFFCURVE",
"192 235 QCURVE",
"560 235 LINE",
"560 567 OFFCURVE",
"296 567 QCURVE SMOOTH",
"180 567 OFFCURVE",
"42 404 OFFCURVE",
"42 273 QCURVE SMOOTH",
"42 154 OFFCURVE",
"168 -13 OFFCURVE",
"312 -13 QCURVE SMOOTH",
"495 -13 OFFCURVE",
"552 152 QCURVE",
"406 177 LINE",
"384 97 OFFCURVE"
);
},
{
closed = 1;
nodes = (
"196 455 OFFCURVE",
"305 455 QCURVE SMOOTH",
"411 455 OFFCURVE",
"415 325 QCURVE",
"196 325 LINE"
);
}
);
};
layerId = m01;
paths = (
{
closed = 1;
nodes = (
"434 -13 OFFCURVE",
"514 42 OFFCURVE",
"552 152 CURVE",
"406 177 LINE",
"391 124 OFFCURVE",
"360 97 OFFCURVE",
"313 97 CURVE SMOOTH",
"238 97 OFFCURVE",
"197 143 OFFCURVE",
"192 235 CURVE",
"560 235 LINE",
"560 456 OFFCURVE",
"472 567 OFFCURVE",
"296 567 CURVE SMOOTH",
"141 567 OFFCURVE",
"42 448 OFFCURVE",
"42 273 CURVE SMOOTH",
"42 114 OFFCURVE",
"120 -13 OFFCURVE",
"312 -13 CURVE SMOOTH"
);
},
{
closed = 1;
nodes = (
"196 412 OFFCURVE",
"232 455 OFFCURVE",
"305 455 CURVE SMOOTH",
"376 455 OFFCURVE",
"412 412 OFFCURVE",
"415 325 CURVE",
"196 325 LINE"
);
}
);
width = 614;
}
);
note = e;
unicode = 0065;
},
{
glyphname = f;
lastChange = "2025-02-10 17:39:31 +0000";
layers = (
{
background = {
paths = (
{
closed = 1;
nodes = (
"98 439 LINE",
"98 0 LINE",
"244 0 LINE",
"244 439 LINE",
"354 439 LINE",
"354 554 LINE",
"244 554 LINE",
"244 594 LINE SMOOTH",
"244 666 OFFCURVE",
"303 666 QCURVE SMOOTH",
"336 666 OFFCURVE",
"371 658 QCURVE",
"390 760 LINE",
"330 778 OFFCURVE",
"268 778 QCURVE SMOOTH",
"98 778 OFFCURVE",
"98 596 QCURVE SMOOTH",
"98 554 LINE",
"16 554 LINE",
"16 439 LINE"
);
}
);
};
layerId = m01;
paths = (
{
closed = 1;
nodes = (
"244 0 LINE",
"244 439 LINE",
"354 439 LINE",
"354 554 LINE",
"244 554 LINE",
"244 594 LINE SMOOTH",
"244 642 OFFCURVE",
"264 666 OFFCURVE",
"303 666 CURVE SMOOTH",
"325 666 OFFCURVE",
"348 663 OFFCURVE",
"371 658 CURVE",
"390 760 LINE",
"350 772 OFFCURVE",
"309 778 OFFCURVE",
"268 778 CURVE SMOOTH",
"155 778 OFFCURVE",
"98 717 OFFCURVE",
"98 596 CURVE SMOOTH",
"98 554 LINE",
"16 554 LINE",
"16 439 LINE",
"98 439 LINE",
"98 0 LINE"
);
}
);
width = 351;
}
);
note = f;
unicode = 0066;
},
{
glyphname = g;
lastChange = "2025-02-10 17:39:31 +0000";
layers = (
{
background = {
paths = (
{
closed = 1;
nodes = (
"73 -55 QCURVE SMOOTH",
"73 -135 OFFCURVE",
"132 -177 QCURVE SMOOTH",
"197 -225 OFFCURVE",
"333 -225 QCURVE SMOOTH",
"477 -225 OFFCURVE",
"596 -103 OFFCURVE",
"596 57 QCURVE SMOOTH",
"596 554 LINE",
"458 554 LINE",
"458 477 LINE",
"392 567 OFFCURVE",
"289 567 QCURVE SMOOTH",
"168 567 OFFCURVE",
"55 395 OFFCURVE",
"55 281 QCURVE SMOOTH",
"55 164 OFFCURVE",
"175 0 OFFCURVE",
"283 0 QCURVE SMOOTH",
"383 0 OFFCURVE",
"449 90 QCURVE",
"449 9 LINE SMOOTH",
"449 -61 OFFCURVE",
"395 -113 OFFCURVE",
"327 -113 QCURVE SMOOTH",
"250 -113 OFFCURVE",
"242 -57 QCURVE",
"74 -37 LINE",
"73 -46 OFFCURVE"
);
},
{
closed = 1;
nodes = (
"326 455 QCURVE SMOOTH",
"452 455 OFFCURVE",
"452 285 QCURVE SMOOTH",
"452 118 OFFCURVE",
"324 118 QCURVE SMOOTH",
"205 118 OFFCURVE",
"205 289 QCURVE SMOOTH",
"205 455 OFFCURVE"
);
}
);
};
layerId = m01;
paths = (
{
closed = 1;
nodes = (
"525 -225 OFFCURVE",
"596 -156 OFFCURVE",
"596 57 CURVE SMOOTH",
"596 554 LINE",
"458 554 LINE",
"458 477 LINE",
"414 537 OFFCURVE",
"358 567 OFFCURVE",
"289 567 CURVE SMOOTH",
"128 567 OFFCURVE",
"55 433 OFFCURVE",
"55 281 CURVE SMOOTH",
"55 125 OFFCURVE",
"139 0 OFFCURVE",
"283 0 CURVE SMOOTH",
"350 0 OFFCURVE",
"405 30 OFFCURVE",
"449 90 CURVE",
"449 9 LINE SMOOTH",
"449 -84 OFFCURVE",
"418 -113 OFFCURVE",
"327 -113 CURVE SMOOTH",
"276 -113 OFFCURVE",
"247 -94 OFFCURVE",
"242 -57 CURVE",
"74 -37 LINE",
"73 -55 LINE SMOOTH",
"73 -108 OFFCURVE",
"93 -149 OFFCURVE",
"132 -177 CURVE SMOOTH",
"175 -209 OFFCURVE",
"242 -225 OFFCURVE",
"333 -225 CURVE SMOOTH"
);
},
{
closed = 1;
nodes = (
"245 118 OFFCURVE",
"205 175 OFFCURVE",
"205 289 CURVE SMOOTH",
"205 400 OFFCURVE",
"245 455 OFFCURVE",
"326 455 CURVE SMOOTH",
"410 455 OFFCURVE",
"452 398 OFFCURVE",
"452 285 CURVE SMOOTH",
"452 174 OFFCURVE",
"409 118 OFFCURVE",
"324 118 CURVE SMOOTH"
);
}
);
width = 682;
}
);
note = g;
unicode = 0067;
},
{
glyphname = h;
lastChange = "2025-02-10 17:39:31 +0000";
layers = (
{
background = {
paths = (
{
closed = 1;
nodes = (
"95 0 LINE",
"242 0 LINE",
"242 278 LINE SMOOTH",
"242 455 OFFCURVE",
"363 455 QCURVE SMOOTH",
"418 455 OFFCURVE",
"453 389 OFFCURVE",
"453 293 QCURVE SMOOTH",
"453 0 LINE",
"601 0 LINE",
"601 326 LINE SMOOTH",
"601 446 OFFCURVE",
"519 567 OFFCURVE",
"412 567 QCURVE SMOOTH",
"313 567 OFFCURVE",
"242 484 QCURVE",
"242 766 LINE",
"95 766 LINE"
);
}
);
};
layerId = m01;
paths = (
{
closed = 1;
nodes = (
"242 0 LINE",
"242 278 LINE SMOOTH",
"242 396 OFFCURVE",
"282 455 OFFCURVE",
"363 455 CURVE SMOOTH",
"436 455 OFFCURVE",
"453 421 OFFCURVE",
"453 293 CURVE SMOOTH",
"453 0 LINE",
"601 0 LINE",
"601 326 LINE SMOOTH",
"601 486 OFFCURVE",
"555 567 OFFCURVE",
"412 567 CURVE SMOOTH",
"346 567 OFFCURVE",
"289 539 OFFCURVE",
"242 484 CURVE",
"242 766 LINE",
"95 766 LINE",
"95 0 LINE"
);
}
);
width = 691;
}
);
note = h;
unicode = 0068;
},
{
glyphname = i;
lastChange = "2025-02-10 17:39:31 +0000";
layers = (
{
background = {
paths = (
{
closed = 1;
nodes = (
"242 766 LINE",
"96 766 LINE",
"96 630 LINE",
"242 630 LINE"
);
},
{
closed = 1;
nodes = (
"242 554 LINE",
"96 554 LINE",
"96 0 LINE",
"242 0 LINE"
);
}
);
};
layerId = m01;
paths = (
{
closed = 1;
nodes = (
"242 0 LINE",
"242 554 LINE",
"96 554 LINE",
"96 0 LINE"
);
},
{
closed = 1;
nodes = (
"242 630 LINE",
"242 766 LINE",
"96 766 LINE",
"96 630 LINE"
);
}
);
width = 334;
}
);
note = i;
unicode = 0069;
},
{
glyphname = j;
lastChange = "2025-02-10 17:39:32 +0000";
layers = (
{
background = {
paths = (
{
closed = 1;
nodes = (
"208 766 LINE",
"61 766 LINE",
"61 630 LINE",
"208 630 LINE"
);
},
{
closed = 1;
nodes = (
"61 26 LINE SMOOTH",
"61 -50 OFFCURVE",
"39 -89 OFFCURVE",
"1 -89 QCURVE SMOOTH",
"-12 -89 OFFCURVE",
"-35 -84 QCURVE",
"-61 -210 LINE",
"-3 -225 OFFCURVE",
"41 -225 QCURVE SMOOTH",
"139 -225 OFFCURVE",
"208 -117 OFFCURVE",
"208 18 QCURVE SMOOTH",
"208 554 LINE",
"61 554 LINE"
);
}
);
};
layerId = m01;
paths = (
{
closed = 1;
nodes = (
"172 -225 OFFCURVE",
"208 -162 OFFCURVE",
"208 18 CURVE SMOOTH",
"208 554 LINE",
"61 554 LINE",
"61 26 LINE SMOOTH",
"61 -25 OFFCURVE",
"57 -56 OFFCURVE",
"50 -69 CURVE SMOOTH",
"43 -82 OFFCURVE",
"26 -89 OFFCURVE",
"1 -89 CURVE SMOOTH",
"-8 -89 OFFCURVE",
"-20 -87 OFFCURVE",
"-35 -84 CURVE",
"-61 -210 LINE",
"-22 -220 OFFCURVE",
"12 -225 OFFCURVE",
"41 -225 CURVE SMOOTH"
);
},
{
closed = 1;
nodes = (
"208 630 LINE",
"208 766 LINE",
"61 766 LINE",
"61 630 LINE"
);
}
);
width = 304;
}
);
note = j;
unicode = 006A;
},
{
glyphname = k;
lastChange = "2025-02-10 17:39:32 +0000";
layers = (
{
background = {
paths = (
{
closed = 1;
nodes = (
"236 178 LINE",
"304 249 LINE",
"444 0 LINE",
"602 0 LINE",
"399 352 LINE",
"589 554 LINE",
"408 554 LINE",
"236 359 LINE",
"236 766 LINE",
"89 766 LINE",
"89 0 LINE",
"236 0 LINE"
);
}
);
};
layerId = m01;
paths = (
{
closed = 1;
nodes = (
"236 0 LINE",
"236 178 LINE",
"304 249 LINE",
"444 0 LINE",
"602 0 LINE",
"399 352 LINE",
"589 554 LINE",
"408 554 LINE",
"236 359 LINE",
"236 766 LINE",
"89 766 LINE",
"89 0 LINE"
);
}
);
width = 616;
}
);
note = k;
unicode = 006B;
},
{
glyphname = l;
lastChange = "2025-02-10 17:39:32 +0000";
layers = (
{
background = {
paths = (
{
closed = 1;
nodes = (
"242 766 LINE",
"96 766 LINE",
"96 0 LINE",
"242 0 LINE"
);
}
);
};
layerId = m01;
paths = (
{
closed = 1;
nodes = (
"242 0 LINE",
"242 766 LINE",
"96 766 LINE",
"96 0 LINE"
);
}
);
width = 334;
}
);
note = l;
unicode = 006C;
},
{
glyphname = m;
lastChange = "2025-02-10 17:39:32 +0000";
layers = (
{
background = {
paths = (
{
closed = 1;
nodes = (
"229 0 LINE",
"229 270 LINE SMOOTH",
"229 394 OFFCURVE",
"292 455 OFFCURVE",
"340 455 QCURVE SMOOTH",
"393 455 OFFCURVE",
"417 372 OFFCURVE",
"417 304 QCURVE SMOOTH",
"417 0 LINE",
"564 0 LINE",
"564 266 LINE SMOOTH",
"564 455 OFFCURVE",
"673 455 QCURVE SMOOTH",
"706 455 OFFCURVE",
"751 411 OFFCURVE",
"751 317 QCURVE SMOOTH",
"751 0 LINE",
"898 0 LINE",
"898 354 LINE SMOOTH",
"898 567 OFFCURVE",
"716 567 QCURVE SMOOTH",
"620 567 OFFCURVE",
"547 479 QCURVE",
"497 567 OFFCURVE",
"390 567 QCURVE SMOOTH",
"290 567 OFFCURVE",
"217 479 QCURVE",
"217 554 LINE",
"82 554 LINE",
"82 0 LINE"
);
}
);
};
layerId = m01;
paths = (
{
closed = 1;
nodes = (
"229 0 LINE",
"229 270 LINE SMOOTH",
"229 353 OFFCURVE",
"240 404 OFFCURVE",
"261 425 CURVE SMOOTH",
"282 445 OFFCURVE",
"308 455 OFFCURVE",
"340 455 CURVE SMOOTH",
"411 455 OFFCURVE",
"417 395 OFFCURVE",
"417 304 CURVE SMOOTH",
"417 0 LINE",
"564 0 LINE",
"564 266 LINE SMOOTH",
"564 392 OFFCURVE",
"600 455 OFFCURVE",
"673 455 CURVE SMOOTH",
"695 455 OFFCURVE",
"714 448 OFFCURVE",
"729 433 CURVE SMOOTH",
"744 418 OFFCURVE",
"751 380 OFFCURVE",
"751 317 CURVE SMOOTH",
"751 0 LINE",
"898 0 LINE",
"898 354 LINE SMOOTH",
"898 496 OFFCURVE",
"837 567 OFFCURVE",
"716 567 CURVE SMOOTH",
"652 567 OFFCURVE",
"596 538 OFFCURVE",
"547 479 CURVE",
"514 538 OFFCURVE",
"461 567 OFFCURVE",
"390 567 CURVE SMOOTH",
"323 567 OFFCURVE",
"266 538 OFFCURVE",
"217 479 CURVE",
"217 554 LINE",
"82 554 LINE",
"82 0 LINE"
);
}
);
width = 985;
}
);
note = m;
unicode = 006D;
},
{
glyphname = n;
lastChange = "2025-02-10 17:39:32 +0000";
layers = (
{
background = {
paths = (
{
closed = 1;
nodes = (
"601 567 OFFCURVE",
"414 567 QCURVE SMOOTH",
"304 567 OFFCURVE",
"231 473 QCURVE",
"231 554 LINE",
"95 554 LINE",
"95 0 LINE",
"241 0 LINE",
"241 251 LINE SMOOTH",
"241 398 OFFCURVE",
"314 455 OFFCURVE",
"363 455 QCURVE SMOOTH",
"417 455 OFFCURVE",
"453 381 OFFCURVE",
"453 283 QCURVE SMOOTH",
"453 0 LINE",
"601 0 LINE",
"601 345 LINE SMOOTH"
);
}
);
};
layerId = m01;
paths = (
{
closed = 1;
nodes = (
"241 0 LINE",
"241 251 LINE SMOOTH",
"241 349 OFFCURVE",
"253 408 OFFCURVE",
"278 427 CURVE SMOOTH",
"302 446 OFFCURVE",
"330 455 OFFCURVE",
"363 455 CURVE SMOOTH",
"435 455 OFFCURVE",
"453 414 OFFCURVE",
"453 283 CURVE SMOOTH",
"453 0 LINE",
"601 0 LINE",
"601 345 LINE SMOOTH",
"601 493 OFFCURVE",
"539 567 OFFCURVE",
"414 567 CURVE SMOOTH",
"341 567 OFFCURVE",
"280 536 OFFCURVE",
"231 473 CURVE",
"231 554 LINE",
"95 554 LINE",
"95 0 LINE"
);
}
);
width = 691;
}
);
note = n;
unicode = 006E;
},
{
glyphname = o;
lastChange = "2025-02-10 17:39:32 +0000";
layers = (
{
background = {
paths = (
{
closed = 1;
nodes = (
"210 -13 OFFCURVE",
"340 -13 QCURVE SMOOTH",
"466 -13 OFFCURVE",
"626 153 OFFCURVE",
"626 279 QCURVE SMOOTH",
"626 406 OFFCURVE",
"467 567 OFFCURVE",
"340 567 QCURVE SMOOTH",
"211 567 OFFCURVE",
"54 402 OFFCURVE",
"54 285 QCURVE SMOOTH",
"54 142 OFFCURVE"
);
},
{
closed = 1;
nodes = (
"276 447 OFFCURVE",
"340 447 QCURVE SMOOTH",
"404 447 OFFCURVE",
"475 354 OFFCURVE",
"475 278 QCURVE SMOOTH",
"475 202 OFFCURVE",
"404 107 OFFCURVE",
"340 107 QCURVE SMOOTH",
"276 107 OFFCURVE",
"204 202 OFFCURVE",
"204 278 QCURVE SMOOTH",
"204 354 OFFCURVE"
);
}
);
};
layerId = m01;
paths = (
{
closed = 1;
nodes = (
"508 -13 OFFCURVE",
"626 111 OFFCURVE",
"626 279 CURVE SMOOTH",
"626 448 OFFCURVE",
"509 567 OFFCURVE",
"340 567 CURVE SMOOTH",
"168 567 OFFCURVE",
"54 441 OFFCURVE",
"54 285 CURVE SMOOTH",
"54 94 OFFCURVE",
"167 -13 OFFCURVE",
"340 -13 CURVE SMOOTH"
);
},
{
closed = 1;
nodes = (
"255 107 OFFCURVE",
"204 177 OFFCURVE",
"204 278 CURVE SMOOTH",
"204 379 OFFCURVE",
"255 447 OFFCURVE",
"340 447 CURVE SMOOTH",
"425 447 OFFCURVE",
"475 379 OFFCURVE",
"475 278 CURVE SMOOTH",
"475 177 OFFCURVE",
"425 107 OFFCURVE",
"340 107 CURVE SMOOTH"
);
}
);
width = 674;
}
);
note = o;
unicode = 006F;
},
{
glyphname = p;
lastChange = "2025-02-10 17:39:32 +0000";
layers = (
{
background = {
paths = (
{
closed = 1;
nodes = (
"237 -211 LINE",
"237 69 LINE",
"313 -13 OFFCURVE",
"400 -13 QCURVE SMOOTH",
"507 -13 OFFCURVE",
"632 154 OFFCURVE",
"632 281 QCURVE SMOOTH",
"632 399 OFFCURVE",
"511 567 OFFCURVE",
"401 567 QCURVE SMOOTH",
"288 567 OFFCURVE",
"228 473 QCURVE",
"228 554 LINE",
"91 554 LINE",
"91 -211 LINE"
);
},
{
closed = 1;
nodes = (
"361 451 QCURVE SMOOTH",
"482 451 OFFCURVE",
"482 279 QCURVE SMOOTH",
"482 104 OFFCURVE",
"364 104 QCURVE SMOOTH",
"236 104 OFFCURVE",
"236 286 QCURVE SMOOTH",
"236 451 OFFCURVE"
);
}
);
};
layerId = m01;
paths = (
{
closed = 1;
nodes = (
"237 -211 LINE",
"237 69 LINE",
"288 14 OFFCURVE",
"342 -13 OFFCURVE",
"400 -13 CURVE SMOOTH",
"543 -13 OFFCURVE",
"632 112 OFFCURVE",
"632 281 CURVE SMOOTH",
"632 438 OFFCURVE",
"548 567 OFFCURVE",
"401 567 CURVE SMOOTH",
"326 567 OFFCURVE",
"268 536 OFFCURVE",
"228 473 CURVE",
"228 554 LINE",
"91 554 LINE",
"91 -211 LINE"
);
},
{
closed = 1;
nodes = (
"279 104 OFFCURVE",
"236 165 OFFCURVE",
"236 286 CURVE SMOOTH",
"236 396 OFFCURVE",
"278 451 OFFCURVE",
"361 451 CURVE SMOOTH",
"442 451 OFFCURVE",
"482 394 OFFCURVE",
"482 279 CURVE SMOOTH",
"482 162 OFFCURVE",
"443 104 OFFCURVE",
"364 104 CURVE SMOOTH"
);
}
);
width = 682;
}
);
note = p;
unicode = 0070;
},
{
glyphname = q;
lastChange = "2025-02-10 17:39:32 +0000";
layers = (
{
background = {
paths = (
{
closed = 1;
nodes = (
"597 554 LINE",
"462 554 LINE",
"462 473 LINE",
"400 567 OFFCURVE",
"295 567 QCURVE SMOOTH",
"173 567 OFFCURVE",
"59 395 OFFCURVE",
"59 283 QCURVE SMOOTH",
"59 156 OFFCURVE",
"181 -13 OFFCURVE",
"287 -13 QCURVE SMOOTH",
"389 -13 OFFCURVE",
"451 68 QCURVE",
"451 -211 LINE",
"597 -211 LINE"
);
},
{
closed = 1;
nodes = (
"391 103 OFFCURVE",
"329 103 QCURVE SMOOTH",
"209 103 OFFCURVE",
"209 276 QCURVE SMOOTH",
"209 452 OFFCURVE",
"334 452 QCURVE SMOOTH",
"456 452 OFFCURVE",
"456 284 QCURVE SMOOTH",
"456 210 OFFCURVE"
);
}
);
};
layerId = m01;
paths = (
{
closed = 1;
nodes = (
"597 -211 LINE",
"597 554 LINE",
"462 554 LINE",
"462 473 LINE",
"421 536 OFFCURVE",
"365 567 OFFCURVE",
"295 567 CURVE SMOOTH",
"132 567 OFFCURVE",
"59 432 OFFCURVE",
"59 283 CURVE SMOOTH",
"59 114 OFFCURVE",
"146 -13 OFFCURVE",
"287 -13 CURVE SMOOTH",
"355 -13 OFFCURVE",
"410 14 OFFCURVE",
"451 68 CURVE",
"451 -211 LINE"
);
},
{
closed = 1;
nodes = (
"249 103 OFFCURVE",
"209 161 OFFCURVE",
"209 276 CURVE SMOOTH",
"209 393 OFFCURVE",
"251 452 OFFCURVE",
"334 452 CURVE SMOOTH",
"415 452 OFFCURVE",
"456 396 OFFCURVE",
"456 284 CURVE SMOOTH",
"456 185 OFFCURVE",
"412 103 OFFCURVE",
"329 103 CURVE SMOOTH"
);
}
);
width = 682;
}
);
note = q;
unicode = 0071;
},
{
glyphname = r;
lastChange = "2025-02-10 17:39:32 +0000";
layers = (
{
background = {
paths = (
{
closed = 1;
nodes = (
"235 330 OFFCURVE",
"277 435 OFFCURVE",
"333 435 QCURVE SMOOTH",
"365 435 OFFCURVE",
"402 411 QCURVE",
"447 539 LINE",
"401 567 OFFCURVE",
"350 567 QCURVE SMOOTH",
"282 567 OFFCURVE",
"225 476 QCURVE",
"225 554 LINE",
"88 554 LINE",
"88 0 LINE",
"235 0 LINE",
"235 171 LINE SMOOTH"
);
}
);
};
layerId = m01;
paths = (
{
closed = 1;
nodes = (
"235 0 LINE",
"235 171 LINE SMOOTH",
"235 277 OFFCURVE",
"242 348 OFFCURVE",
"256 383 CURVE SMOOTH",
"270 418 OFFCURVE",
"296 435 OFFCURVE",
"333 435 CURVE SMOOTH",
"354 435 OFFCURVE",
"377 427 OFFCURVE",
"402 411 CURVE",
"447 539 LINE",
"416 558 OFFCURVE",
"384 567 OFFCURVE",
"350 567 CURVE SMOOTH",
"305 567 OFFCURVE",
"263 537 OFFCURVE",
"225 476 CURVE",
"225 554 LINE",
"88 554 LINE",
"88 0 LINE"
);
}
);
width = 430;
}
);
note = r;
unicode = 0072;
},
{
glyphname = s;
lastChange = "2025-02-10 17:39:32 +0000";
layers = (
{
background = {
paths = (
{
closed = 1;
nodes = (
"297 -13 QCURVE SMOOTH",
"401 -13 OFFCURVE",
"549 82 OFFCURVE",
"549 174 QCURVE SMOOTH",
"549 244 OFFCURVE",
"459 319 OFFCURVE",
"345 344 QCURVE SMOOTH",
"188 378 OFFCURVE",
"188 416 QCURVE SMOOTH",
"188 462 OFFCURVE",
"288 462 QCURVE SMOOTH",
"374 462 OFFCURVE",
"392 395 QCURVE",
"530 421 LINE",
"489 567 OFFCURVE",
"285 567 QCURVE SMOOTH",
"52 567 OFFCURVE",
"52 397 QCURVE SMOOTH",
"52 334 OFFCURVE",
"139 246 OFFCURVE",
"342 201 QCURVE SMOOTH",
"402 187 OFFCURVE",
"402 154 QCURVE SMOOTH",
"402 94 OFFCURVE",
"297 94 QCURVE SMOOTH",
"197 94 OFFCURVE",
"178 181 QCURVE",
"31 158 LINE",
"75 -13 OFFCURVE"
);
}
);
};
layerId = m01;
paths = (
{
closed = 1;
nodes = (
"436 -13 OFFCURVE",
"549 51 OFFCURVE",
"549 174 CURVE SMOOTH",
"549 267 OFFCURVE",
"497 311 OFFCURVE",
"345 344 CURVE SMOOTH",
"240 367 OFFCURVE",
"188 391 OFFCURVE",
"188 416 CURVE SMOOTH",
"188 447 OFFCURVE",
"221 462 OFFCURVE",
"288 462 CURVE SMOOTH",
"345 462 OFFCURVE",
"380 440 OFFCURVE",
"392 395 CURVE",
"530 421 LINE",
"503 518 OFFCURVE",
"421 567 OFFCURVE",
"285 567 CURVE SMOOTH",
"130 567 OFFCURVE",
"52 510 OFFCURVE",
"52 397 CURVE SMOOTH",
"52 355 OFFCURVE",
"67 319 OFFCURVE",
"96 290 CURVE SMOOTH",
"125 261 OFFCURVE",
"207 231 OFFCURVE",
"342 201 CURVE SMOOTH",
"382 192 OFFCURVE",
"402 176 OFFCURVE",
"402 154 CURVE SMOOTH",
"402 114 OFFCURVE",
"367 94 OFFCURVE",
"297 94 CURVE SMOOTH",
"230 94 OFFCURVE",
"191 123 OFFCURVE",
"178 181 CURVE",
"31 158 LINE",
"60 44 OFFCURVE",
"149 -13 OFFCURVE",
"297 -13 CURVE SMOOTH"
);
}
);
width = 614;
}
);
note = s;
unicode = 0073;
},
{
glyphname = t;
lastChange = "2025-02-10 17:39:32 +0000";
layers = (
{
background = {
paths = (
{
closed = 1;
nodes = (
"235 750 LINE",
"87 665 LINE",
"87 554 LINE",
"20 554 LINE",
"20 438 LINE",
"87 438 LINE",
"87 196 LINE SMOOTH",
"87 79 OFFCURVE",
"140 -13 OFFCURVE",
"231 -13 QCURVE SMOOTH",
"296 -13 OFFCURVE",
"347 10 QCURVE",
"334 123 LINE",
"296 109 OFFCURVE",
"275 109 QCURVE SMOOTH",
"251 109 OFFCURVE",
"235 147 OFFCURVE",
"235 214 QCURVE SMOOTH",
"235 438 LINE",
"335 438 LINE",
"335 554 LINE",
"235 554 LINE"
);
}
);
};
layerId = m01;
paths = (
{
closed = 1;
nodes = (
"274 -13 OFFCURVE",
"313 -5 OFFCURVE",
"347 10 CURVE",
"334 123 LINE",
"309 114 OFFCURVE",
"289 109 OFFCURVE",
"275 109 CURVE SMOOTH",
"259 109 OFFCURVE",
"248 115 OFFCURVE",
"243 128 CURVE SMOOTH",
"238 141 OFFCURVE",
"235 169 OFFCURVE",
"235 214 CURVE SMOOTH",
"235 438 LINE",
"335 438 LINE",
"335 554 LINE",
"235 554 LINE",
"235 750 LINE",
"87 665 LINE",
"87 554 LINE",
"20 554 LINE",
"20 438 LINE",
"87 438 LINE",
"87 196 LINE SMOOTH",
"87 40 OFFCURVE",
"110 -13 OFFCURVE",
"231 -13 CURVE SMOOTH"
);
}
);
width = 363;
}
);
note = t;
unicode = 0074;
},
{
glyphname = u;
lastChange = "2025-02-10 17:39:32 +0000";
layers = (
{
background = {
paths = (
{
closed = 1;
nodes = (
"597 554 LINE",
"450 554 LINE",
"450 321 LINE SMOOTH",
"450 185 OFFCURVE",
"400 99 OFFCURVE",
"330 99 QCURVE SMOOTH",
"274 99 OFFCURVE",
"238 179 OFFCURVE",
"238 300 QCURVE SMOOTH",
"238 554 LINE",
"92 554 LINE",
"92 204 LINE SMOOTH",
"92 -13 OFFCURVE",
"276 -13 QCURVE SMOOTH",
"395 -13 OFFCURVE",
"460 83 QCURVE",
"460 0 LINE",
"597 0 LINE"
);
}
);
};
layerId = m01;
paths = (
{
closed = 1;
nodes = (
"355 -13 OFFCURVE",
"417 19 OFFCURVE",
"460 83 CURVE",
"460 0 LINE",
"597 0 LINE",
"597 554 LINE",
"450 554 LINE",
"450 321 LINE SMOOTH",
"450 230 OFFCURVE",
"442 171 OFFCURVE",
"425 142 CURVE SMOOTH",
"408 113 OFFCURVE",
"377 99 OFFCURVE",
"330 99 CURVE SMOOTH",
"293 99 OFFCURVE",
"268 112 OFFCURVE",
"256 139 CURVE SMOOTH",
"244 166 OFFCURVE",
"238 219 OFFCURVE",
"238 300 CURVE SMOOTH",
"238 554 LINE",
"92 554 LINE",
"92 204 LINE SMOOTH",
"92 59 OFFCURVE",
"153 -13 OFFCURVE",
"276 -13 CURVE SMOOTH"
);
}
);
width = 691;
}
);
note = u;
unicode = 0075;
},
{
glyphname = v;
lastChange = "2025-02-10 17:39:32 +0000";
layers = (
{
background = {
paths = (
{
closed = 1;
nodes = (
"583 554 LINE",
"433 554 LINE",
"296 177 LINE",
"161 554 LINE",
"7 554 LINE",
"231 0 LINE",
"363 0 LINE"
);
}
);
};
layerId = m01;
paths = (
{
closed = 1;
nodes = (
"363 0 LINE",
"583 554 LINE",
"433 554 LINE",
"296 177 LINE",
"161 554 LINE",
"7 554 LINE",
"231 0 LINE"
);
}
);
width = 600;
}
);
note = v;
unicode = 0076;
},
{
glyphname = w;
lastChange = "2025-02-10 17:39:32 +0000";
layers = (
{
background = {
paths = (
{
closed = 1;
nodes = (
"418 357 LINE",
"513 0 LINE",
"655 0 LINE",
"832 554 LINE",
"688 554 LINE",
"582 191 LINE",
"489 554 LINE",
"348 554 LINE",
"252 191 LINE",
"148 554 LINE",
"6 554 LINE",
"181 0 LINE",
"324 0 LINE"
);
}
);
};
layerId = m01;
paths = (
{
closed = 1;
nodes = (
"324 0 LINE",
"418 357 LINE",
"513 0 LINE",
"655 0 LINE",
"832 554 LINE",
"688 554 LINE",
"582 191 LINE",
"489 554 LINE",
"348 554 LINE",
"252 191 LINE",
"148 554 LINE",
"6 554 LINE",
"181 0 LINE"
);
}
);
width = 833;
}
);
note = w;
unicode = 0077;
},
{
glyphname = x;
lastChange = "2025-02-10 17:39:32 +0000";
layers = (
{
background = {
paths = (
{
closed = 1;
nodes = (
"294 172 LINE",
"406 0 LINE",
"586 0 LINE",
"382 292 LINE",
"570 554 LINE",
"397 554 LINE",
"294 402 LINE",
"195 554 LINE",
"16 554 LINE",
"208 286 LINE",
"8 0 LINE",
"180 0 LINE"
);
}
);
};
layerId = m01;
paths = (
{
closed = 1;
nodes = (
"180 0 LINE",
"294 172 LINE",
"406 0 LINE",
"586 0 LINE",
"382 292 LINE",
"570 554 LINE",
"397 554 LINE",
"294 402 LINE",
"195 554 LINE",
"16 554 LINE",
"208 286 LINE",
"8 0 LINE"
);
}
);
width = 599;
}
);
note = x;
unicode = 0078;
},
{
glyphname = y;
lastChange = "2025-02-10 17:39:32 +0000";
layers = (
{
background = {
paths = (
{
closed = 1;
nodes = (
"190 -108 OFFCURVE",
"107 -108 QCURVE SMOOTH",
"79 -108 OFFCURVE",
"45 -102 QCURVE",
"58 -216 LINE",
"99 -225 OFFCURVE",
"141 -225 QCURVE SMOOTH",
"294 -225 OFFCURVE",
"348 -76 QCURVE SMOOTH",
"579 554 LINE",
"427 554 LINE",
"298 161 LINE",
"165 554 LINE",
"9 554 LINE",
"220 -2 LINE"
);
}
);
};
layerId = m01;
paths = (
{
closed = 1;
nodes = (
"243 -225 OFFCURVE",
"312 -175 OFFCURVE",
"348 -76 CURVE SMOOTH",
"579 554 LINE",
"427 554 LINE",
"298 161 LINE",
"165 554 LINE",
"9 554 LINE",
"220 -2 LINE",
"200 -73 OFFCURVE",
"162 -108 OFFCURVE",
"107 -108 CURVE SMOOTH",
"88 -108 OFFCURVE",
"68 -106 OFFCURVE",
"45 -102 CURVE",
"58 -216 LINE",
"85 -222 OFFCURVE",
"113 -225 OFFCURVE",
"141 -225 CURVE SMOOTH"
);
}
);
width = 601;
}
);
note = y;
unicode = 0079;
},
{
glyphname = z;
lastChange = "2025-02-10 17:39:32 +0000";
layers = (
{
background = {
paths = (
{
closed = 1;
nodes = (
"517 129 LINE",
"290 129 LINE SMOOTH",
"276 129 OFFCURVE",
"214 126 QCURVE",
"289 206 LINE",
"501 450 LINE",
"501 554 LINE",
"43 554 LINE",
"43 433 LINE",
"238 434 LINE",
"306 436 LINE",
"279 409 OFFCURVE",
"230 353 QCURVE SMOOTH",
"22 114 LINE",
"22 0 LINE",
"517 0 LINE"
);
}
);
};
layerId = m01;
paths = (
{
closed = 1;
nodes = (
"517 0 LINE",
"517 129 LINE",
"290 129 LINE",
"214 126 LINE",
"289 206 LINE",
"501 450 LINE",
"501 554 LINE",
"43 554 LINE",
"43 433 LINE",
"238 434 LINE",
"306 436 LINE",
"288 418 OFFCURVE",
"263 390 OFFCURVE",
"230 353 CURVE SMOOTH",
"22 114 LINE",
"22 0 LINE"
);
}
);
width = 544;
}
);
note = z;
unicode = 007A;
},
{
glyphname = braceleft;
lastChange = "2025-02-10 17:39:32 +0000";
layers = (
{
background = {
paths = (
{
closed = 1;
nodes = (
"153 122 OFFCURVE",
"153 9 QCURVE SMOOTH",
"153 -134 OFFCURVE",
"249 -225 OFFCURVE",
"369 -225 QCURVE SMOOTH",
"397 -225 LINE",
"397 -100 LINE",
"331 -100 OFFCURVE",
"289 -70 OFFCURVE",
"289 -24 QCURVE SMOOTH",
"289 121 OFFCURVE",
"253 241 OFFCURVE",
"192 277 QCURVE",
"278 326 OFFCURVE",
"285 457 QCURVE SMOOTH",
"293 607 OFFCURVE",
"299 638 OFFCURVE",
"353 654 OFFCURVE",
"397 654 QCURVE",
"397 778 LINE",
"369 778 LINE SMOOTH",
"238 778 OFFCURVE",
"153 685 OFFCURVE",
"153 526 QCURVE SMOOTH",
"153 426 OFFCURVE",
"110 343 OFFCURVE",
"39 339 QCURVE",
"39 214 LINE",
"110 210 OFFCURVE"
);
}
);
};
layerId = m01;
paths = (
{
closed = 1;
nodes = (
"397 -225 LINE",
"397 -100 LINE",
"309 -100 OFFCURVE",
"289 -85 OFFCURVE",
"289 -24 CURVE SMOOTH",
"289 169 OFFCURVE",
"273 229 OFFCURVE",
"192 277 CURVE",
"249 310 OFFCURVE",
"280 370 OFFCURVE",
"285 457 CURVE SMOOTH",
"290 557 OFFCURVE",
"294 612 OFFCURVE",
"296 623 CURVE SMOOTH",
"300 642 OFFCURVE",
"334 654 OFFCURVE",
"397 654 CURVE",
"397 778 LINE",
"369 778 LINE SMOOTH",
"194 778 OFFCURVE",
"153 738 OFFCURVE",
"153 526 CURVE SMOOTH",
"153 393 OFFCURVE",
"134 344 OFFCURVE",
"39 339 CURVE",
"39 214 LINE",
"134 209 OFFCURVE",
"153 160 OFFCURVE",
"153 9 CURVE SMOOTH",
"153 -182 OFFCURVE",
"209 -225 OFFCURVE",
"369 -225 CURVE SMOOTH"
);
}
);
width = 431;
}
);
note = braceleft;
unicode = 007B;
},
{
glyphname = bar;
lastChange = "2025-02-10 17:39:32 +0000";
layers = (
{
background = {
paths = (
{
closed = 1;
nodes = (
"231 778 LINE",
"115 778 LINE",
"115 -225 LINE",
"231 -225 LINE"
);
}
);
};
layerId = m01;
paths = (
{
closed = 1;
nodes = (
"231 -225 LINE",
"231 778 LINE",
"115 778 LINE",
"115 -225 LINE"
);
}
);
width = 345;
}
);
note = bar;
unicode = 007C;
},
{
glyphname = braceright;
lastChange = "2025-02-10 17:39:32 +0000";
layers = (
{
background = {
paths = (
{
closed = 1;
nodes = (
"315 343 OFFCURVE",
"272 431 OFFCURVE",
"272 545 QCURVE SMOOTH",
"272 688 OFFCURVE",
"176 778 OFFCURVE",
"57 778 QCURVE SMOOTH",
"29 778 LINE",
"29 654 LINE",
"100 654 OFFCURVE",
"135 625 OFFCURVE",
"136 574 QCURVE SMOOTH",
"139 414 OFFCURVE",
"175 315 OFFCURVE",
"234 277 QCURVE",
"147 229 OFFCURVE",
"140 94 QCURVE SMOOTH",
"133 -58 OFFCURVE",
"115 -100 OFFCURVE",
"29 -100 QCURVE",
"29 -225 LINE",
"57 -225 LINE SMOOTH",
"170 -225 OFFCURVE",
"272 -145 OFFCURVE",
"272 29 QCURVE SMOOTH",
"272 134 OFFCURVE",
"324 210 OFFCURVE",
"387 214 QCURVE",
"387 339 LINE"
);
}
);
};
layerId = m01;
paths = (
{
closed = 1;
nodes = (
"57 -225 LINE SMOOTH",
"208 -225 OFFCURVE",
"272 -203 OFFCURVE",
"272 29 CURVE SMOOTH",
"272 169 OFFCURVE",
"303 209 OFFCURVE",
"387 214 CURVE",
"387 339 LINE",
"291 344 OFFCURVE",
"272 393 OFFCURVE",
"272 545 CURVE SMOOTH",
"272 736 OFFCURVE",
"216 778 OFFCURVE",
"57 778 CURVE SMOOTH",
"29 778 LINE",
"29 654 LINE",
"124 654 OFFCURVE",
"135 642 OFFCURVE",
"136 574 CURVE SMOOTH",
"138 467 OFFCURVE",
"145 398 OFFCURVE",
"157 365 CURVE SMOOTH",
"169 332 OFFCURVE",
"195 302 OFFCURVE",
"234 277 CURVE",
"176 245 OFFCURVE",
"145 184 OFFCURVE",
"140 94 CURVE SMOOTH",
"135 -7 OFFCURVE",
"130 -65 OFFCURVE",
"124 -79 CURVE SMOOTH",
"118 -93 OFFCURVE",
"86 -100 OFFCURVE",
"29 -100 CURVE",
"29 -225 LINE"
);
}
);
width = 431;
}
);
note = braceright;
unicode = 007D;
},
{
glyphname = asciitilde;
lastChange = "2025-02-10 17:39:32 +0000";
layers = (
{
background = {
paths = (
{
closed = 1;
nodes = (
"186 344 QCURVE SMOOTH",
"231 344 OFFCURVE",
"314 308 QCURVE SMOOTH",
"398 273 OFFCURVE",
"442 273 QCURVE SMOOTH",
"532 273 OFFCURVE",
"598 342 QCURVE",
"598 482 LINE",
"528 407 OFFCURVE",
"456 407 QCURVE SMOOTH",
"430 407 OFFCURVE",
"358 436 QCURVE SMOOTH",
"254 478 OFFCURVE",
"198 478 QCURVE SMOOTH",
"110 478 OFFCURVE",
"44 406 QCURVE",
"44 271 LINE",
"114 344 OFFCURVE"
);
}
);
};
layerId = m01;
paths = (
{
closed = 1;
nodes = (
"91 320 OFFCURVE",
"138 344 OFFCURVE",
"186 344 CURVE SMOOTH",
"216 344 OFFCURVE",
"259 332 OFFCURVE",
"314 308 CURVE SMOOTH",
"370 285 OFFCURVE",
"413 273 OFFCURVE",
"442 273 CURVE SMOOTH",
"502 273 OFFCURVE",
"554 296 OFFCURVE",
"598 342 CURVE",
"598 482 LINE",
"551 432 OFFCURVE",
"504 407 OFFCURVE",
"456 407 CURVE SMOOTH",
"439 407 OFFCURVE",
"406 417 OFFCURVE",
"358 436 CURVE SMOOTH",
"289 464 OFFCURVE",
"235 478 OFFCURVE",
"198 478 CURVE SMOOTH",
"139 478 OFFCURVE",
"88 454 OFFCURVE",
"44 406 CURVE",
"44 271 LINE"
);
}
);
width = 642;
}
);
note = asciitilde;
unicode = 007E;
},
{
glyphname = exclamdown;
lastChange = "2025-02-10 17:39:32 +0000";
layers = (
{
background = {
paths = (
{
closed = 1;
nodes = (
"336 881 OFFCURVE",
"293 881 QCURVE SMOOTH",
"254 881 LINE SMOOTH",
"210 881 OFFCURVE",
"150 821 OFFCURVE",
"150 777 QCURVE SMOOTH",
"150 734 OFFCURVE",
"211 673 OFFCURVE",
"254 673 QCURVE SMOOTH",
"293 673 LINE SMOOTH",
"337 673 OFFCURVE",
"397 734 OFFCURVE",
"397 778 QCURVE SMOOTH",
"397 821 OFFCURVE"
);
},
{
closed = 1;
nodes = (
"313 432 OFFCURVE",
"273 432 QCURVE SMOOTH",
"234 432 OFFCURVE",
"231 374 QCURVE SMOOTH",
"194 -271 LINE SMOOTH",
"192 -306 OFFCURVE",
"192 -304 QCURVE SMOOTH",
"192 -386 OFFCURVE",
"274 -386 QCURVE SMOOTH",
"309 -386 OFFCURVE",
"333 -363 QCURVE SMOOTH",
"355 -341 OFFCURVE",
"355 -309 QCURVE SMOOTH",
"355 -306 LINE",
"316 374 LINE SMOOTH"
);
}
);
};
layerId = m01;
paths = (
{
closed = 1;
nodes = (
"297 -386 OFFCURVE",
"317 -378 OFFCURVE",
"333 -363 CURVE SMOOTH",
"348 -348 OFFCURVE",
"355 -330 OFFCURVE",
"355 -309 CURVE SMOOTH",
"355 -306 LINE",
"316 374 LINE SMOOTH",
"314 413 OFFCURVE",
"300 432 OFFCURVE",
"273 432 CURVE SMOOTH",
"247 432 OFFCURVE",
"233 413 OFFCURVE",
"231 374 CURVE SMOOTH",
"194 -271 LINE",
"192 -304 LINE SMOOTH",
"192 -359 OFFCURVE",
"219 -386 OFFCURVE",
"274 -386 CURVE SMOOTH"
);
},
{
closed = 1;
nodes = (
"293 673 LINE SMOOTH",
"352 673 OFFCURVE",
"397 719 OFFCURVE",
"397 778 CURVE SMOOTH",
"397 835 OFFCURVE",
"350 881 OFFCURVE",
"293 881 CURVE SMOOTH",
"254 881 LINE SMOOTH",
"195 881 OFFCURVE",
"150 836 OFFCURVE",
"150 777 CURVE SMOOTH",
"150 720 OFFCURVE",
"197 673 OFFCURVE",
"254 673 CURVE SMOOTH"
);
}
);
width = 547;
}
);
note = exclamdown;
unicode = 00A1;
},
{
glyphname = cent;
lastChange = "2025-02-10 17:39:32 +0000";
layers = (
{
background = {
paths = (
{
closed = 1;
nodes = (
"846 445 QCURVE SMOOTH",
"847 445 LINE",
"847 441 OFFCURVE",
"749 393 QCURVE SMOOTH",
"641 341 OFFCURVE",
"548 341 QCURVE SMOOTH",
"414 341 OFFCURVE",
"234 512 OFFCURVE",
"234 645 QCURVE SMOOTH",
"234 782 OFFCURVE",
"328 868 QCURVE SMOOTH",
"418 950 OFFCURVE",
"557 950 QCURVE SMOOTH",
"666 950 OFFCURVE",
"727 907 QCURVE SMOOTH",
"769 876 OFFCURVE",
"793 808 QCURVE SMOOTH",
"812 755 OFFCURVE",
"837 755 QCURVE SMOOTH",
"879 755 OFFCURVE",
"879 812 QCURVE SMOOTH",
"879 939 LINE SMOOTH",
"879 990 OFFCURVE",
"836 990 QCURVE SMOOTH",
"805 990 OFFCURVE",
"795 956 QCURVE",
"705 1027 OFFCURVE",
"577 1031 QCURVE",
"577 1278 LINE SMOOTH",
"577 1334 OFFCURVE",
"535 1334 QCURVE SMOOTH",
"493 1334 OFFCURVE",
"493 1278 QCURVE SMOOTH",
"493 1028 LINE",
"336 994 OFFCURVE",
"247 901 QCURVE SMOOTH",
"150 799 OFFCURVE",
"150 644 QCURVE SMOOTH",
"150 495 OFFCURVE",
"345 279 OFFCURVE",
"493 261 QCURVE",
"493 54 LINE SMOOTH",
"493 -2 OFFCURVE",
"535 -2 QCURVE SMOOTH",
"577 -2 OFFCURVE",
"577 54 QCURVE SMOOTH",
"577 261 LINE",
"652 265 OFFCURVE",
"756 303 QCURVE SMOOTH",
"886 350 OFFCURVE",
"886 404 QCURVE SMOOTH",
"886 445 OFFCURVE"
);
}
);
};
layerId = m01;
paths = (
{
closed = 1;
nodes = (
"563 -2 OFFCURVE",
"577 17 OFFCURVE",
"577 54 CURVE SMOOTH",
"577 261 LINE",
"627 264 OFFCURVE",
"687 278 OFFCURVE",
"756 303 CURVE SMOOTH",
"843 334 OFFCURVE",
"886 368 OFFCURVE",
"886 404 CURVE SMOOTH",
"886 431 OFFCURVE",
"873 445 OFFCURVE",
"846 445 CURVE SMOOTH",
"847 445 LINE",
"847 442 OFFCURVE",
"814 425 OFFCURVE",
"749 393 CURVE SMOOTH",
"677 358 OFFCURVE",
"610 341 OFFCURVE",
"548 341 CURVE SMOOTH",
"369 341 OFFCURVE",
"234 468 OFFCURVE",
"234 645 CURVE SMOOTH",
"234 736 OFFCURVE",
"265 811 OFFCURVE",
"328 868 CURVE SMOOTH",
"388 923 OFFCURVE",
"464 950 OFFCURVE",
"557 950 CURVE SMOOTH",
"630 950 OFFCURVE",
"686 936 OFFCURVE",
"727 907 CURVE SMOOTH",
"755 886 OFFCURVE",
"777 853 OFFCURVE",
"793 808 CURVE SMOOTH",
"806 773 OFFCURVE",
"820 755 OFFCURVE",
"837 755 CURVE SMOOTH",
"865 755 OFFCURVE",
"879 774 OFFCURVE",
"879 812 CURVE SMOOTH",
"879 939 LINE SMOOTH",
"879 973 OFFCURVE",
"865 990 OFFCURVE",
"836 990 CURVE SMOOTH",
"815 990 OFFCURVE",
"802 979 OFFCURVE",
"795 956 CURVE",
"735 1003 OFFCURVE",
"662 1028 OFFCURVE",
"577 1031 CURVE",
"577 1278 LINE SMOOTH",
"577 1315 OFFCURVE",
"563 1334 OFFCURVE",
"535 1334 CURVE SMOOTH",
"507 1334 OFFCURVE",
"493 1315 OFFCURVE",
"493 1278 CURVE SMOOTH",
"493 1028 LINE",
"388 1005 OFFCURVE",
"306 963 OFFCURVE",
"247 901 CURVE SMOOTH",
"182 833 OFFCURVE",
"150 747 OFFCURVE",
"150 644 CURVE SMOOTH",
"150 445 OFFCURVE",
"296 285 OFFCURVE",
"493 261 CURVE",
"493 54 LINE SMOOTH",
"493 17 OFFCURVE",
"507 -2 OFFCURVE",
"535 -2 CURVE SMOOTH"
);
}
);
width = 1038;
}
);
note = cent;
unicode = 00A2;
},
{
glyphname = sterling;
lastChange = "2025-02-10 17:39:32 +0000";
layers = (
{
background = {
paths = (
{
closed = 1;
nodes = (
"1007 241 QCURVE SMOOTH",
"978 241 OFFCURVE",
"967 201 QCURVE SMOOTH",
"947 131 OFFCURVE",
"945 126 QCURVE",
"923 86 OFFCURVE",
"870 86 QCURVE SMOOTH",
"351 86 LINE",
"469 236 OFFCURVE",
"469 448 QCURVE SMOOTH",
"469 507 OFFCURVE",
"459 569 QCURVE",
"645 569 LINE SMOOTH",
"701 569 OFFCURVE",
"701 611 QCURVE SMOOTH",
"701 653 OFFCURVE",
"645 653 QCURVE SMOOTH",
"440 653 LINE",
"382 860 OFFCURVE",
"382 906 QCURVE SMOOTH",
"382 994 OFFCURVE",
"506 1119 OFFCURVE",
"594 1119 QCURVE SMOOTH",
"674 1119 OFFCURVE",
"812 991 OFFCURVE",
"818 991 QCURVE SMOOTH",
"860 991 OFFCURVE",
"860 1030 QCURVE SMOOTH",
"860 1070 OFFCURVE",
"696 1204 OFFCURVE",
"591 1204 QCURVE SMOOTH",
"469 1204 OFFCURVE",
"297 1028 OFFCURVE",
"297 906 QCURVE SMOOTH",
"297 830 OFFCURVE",
"354 653 QCURVE",
"206 653 LINE SMOOTH",
"150 653 OFFCURVE",
"150 611 QCURVE SMOOTH",
"150 569 OFFCURVE",
"206 569 QCURVE SMOOTH",
"375 569 LINE",
"387 520 OFFCURVE",
"387 453 QCURVE SMOOTH",
"387 368 OFFCURVE",
"359 279 QCURVE SMOOTH",
"328 178 OFFCURVE",
"276 125 QCURVE SMOOTH",
"254 103 OFFCURVE",
"195 85 QCURVE SMOOTH",
"150 72 OFFCURVE",
"150 44 QCURVE SMOOTH",
"150 2 OFFCURVE",
"206 2 QCURVE SMOOTH",
"875 2 LINE SMOOTH",
"951 2 OFFCURVE",
"1002 62 QCURVE SMOOTH",
"1050 119 OFFCURVE",
"1050 196 QCURVE SMOOTH",
"1050 241 OFFCURVE"
);
}
);
};
layerId = m01;
paths = (
{
closed = 1;
nodes = (
"875 2 LINE SMOOTH",
"926 2 OFFCURVE",
"968 22 OFFCURVE",
"1002 62 CURVE SMOOTH",
"1034 100 OFFCURVE",
"1050 145 OFFCURVE",
"1050 196 CURVE SMOOTH",
"1050 226 OFFCURVE",
"1036 241 OFFCURVE",
"1007 241 CURVE SMOOTH",
"988 241 OFFCURVE",
"974 228 OFFCURVE",
"967 201 CURVE SMOOTH",
"945 126 LINE",
"930 99 OFFCURVE",
"905 86 OFFCURVE",
"870 86 CURVE SMOOTH",
"351 86 LINE",
"430 186 OFFCURVE",
"469 307 OFFCURVE",
"469 448 CURVE SMOOTH",
"469 487 OFFCURVE",
"466 528 OFFCURVE",
"459 569 CURVE",
"645 569 LINE SMOOTH",
"682 569 OFFCURVE",
"701 583 OFFCURVE",
"701 611 CURVE SMOOTH",
"701 639 OFFCURVE",
"682 653 OFFCURVE",
"645 653 CURVE SMOOTH",
"440 653 LINE",
"401 791 OFFCURVE",
"382 875 OFFCURVE",
"382 906 CURVE SMOOTH",
"382 1023 OFFCURVE",
"477 1119 OFFCURVE",
"594 1119 CURVE SMOOTH",
"647 1119 OFFCURVE",
"697 1098 OFFCURVE",
"743 1055 CURVE SMOOTH",
"789 1012 OFFCURVE",
"814 991 OFFCURVE",
"818 991 CURVE SMOOTH",
"846 991 OFFCURVE",
"860 1004 OFFCURVE",
"860 1030 CURVE SMOOTH",
"860 1083 OFFCURVE",
"731 1204 OFFCURVE",
"591 1204 CURVE SMOOTH",
"428 1204 OFFCURVE",
"297 1069 OFFCURVE",
"297 906 CURVE SMOOTH",
"297 855 OFFCURVE",
"316 771 OFFCURVE",
"354 653 CURVE",
"206 653 LINE SMOOTH",
"169 653 OFFCURVE",
"150 639 OFFCURVE",
"150 611 CURVE SMOOTH",
"150 583 OFFCURVE",
"169 569 OFFCURVE",
"206 569 CURVE SMOOTH",
"375 569 LINE",
"383 536 OFFCURVE",
"387 498 OFFCURVE",
"387 453 CURVE SMOOTH",
"387 396 OFFCURVE",
"378 338 OFFCURVE",
"359 279 CURVE SMOOTH",
"338 212 OFFCURVE",
"311 160 OFFCURVE",
"276 125 CURVE SMOOTH",
"261 110 OFFCURVE",
"234 97 OFFCURVE",
"195 85 CURVE SMOOTH",
"165 76 OFFCURVE",
"150 63 OFFCURVE",
"150 44 CURVE SMOOTH",
"150 16 OFFCURVE",
"169 2 OFFCURVE",
"206 2 CURVE SMOOTH"
);
}
);
width = 1198;
}
);
note = sterling;
unicode = 00A3;
},
{
glyphname = currency;
lastChange = "2025-02-10 17:39:32 +0000";
layers = (
{
background = {
paths = (
{
closed = 1;
nodes = (
"905 324 QCURVE SMOOTH",
"867 360 OFFCURVE",
"829 396 QCURVE",
"902 490 OFFCURVE",
"902 609 QCURVE SMOOTH",
"902 724 OFFCURVE",
"830 819 QCURVE",
"868 855 OFFCURVE",
"906 890 QCURVE SMOOTH",
"966 950 OFFCURVE",
"966 972 QCURVE SMOOTH",
"966 1015 OFFCURVE",
"924 1015 QCURVE SMOOTH",
"902 1015 OFFCURVE",
"842 955 QCURVE SMOOTH",
"806 917 OFFCURVE",
"770 879 QCURVE",
"679 952 OFFCURVE",
"559 952 QCURVE SMOOTH",
"437 952 OFFCURVE",
"346 879 QCURVE",
"310 917 OFFCURVE",
"274 955 QCURVE SMOOTH",
"214 1015 OFFCURVE",
"193 1015 QCURVE SMOOTH",
"150 1015 OFFCURVE",
"150 973 QCURVE SMOOTH",
"150 951 OFFCURVE",
"210 891 QCURVE SMOOTH",
"248 855 OFFCURVE",
"286 819 QCURVE",
"214 723 OFFCURVE",
"214 608 QCURVE SMOOTH",
"214 493 OFFCURVE",
"288 396 QCURVE",
"250 360 OFFCURVE",
"211 324 QCURVE SMOOTH",
"150 264 OFFCURVE",
"150 242 QCURVE SMOOTH",
"150 199 OFFCURVE",
"193 199 QCURVE SMOOTH",
"215 199 OFFCURVE",
"275 259 QCURVE SMOOTH",
"312 298 OFFCURVE",
"348 336 QCURVE",
"443 264 OFFCURVE",
"558 264 QCURVE SMOOTH",
"673 264 OFFCURVE",
"769 336 QCURVE",
"805 298 OFFCURVE",
"841 260 QCURVE SMOOTH",
"902 199 OFFCURVE",
"923 199 QCURVE SMOOTH",
"966 199 OFFCURVE",
"966 241 QCURVE SMOOTH",
"966 263 OFFCURVE"
);
},
{
closed = 1;
nodes = (
"666 349 OFFCURVE",
"558 349 QCURVE SMOOTH",
"450 349 OFFCURVE",
"299 500 OFFCURVE",
"299 608 QCURVE SMOOTH",
"299 716 OFFCURVE",
"450 868 OFFCURVE",
"558 868 QCURVE SMOOTH",
"667 868 OFFCURVE",
"818 717 OFFCURVE",
"818 608 QCURVE SMOOTH",
"818 500 OFFCURVE"
);
}
);
};
layerId = m01;
paths = (
{
closed = 1;
nodes = (
"208 199 OFFCURVE",
"235 219 OFFCURVE",
"275 259 CURVE SMOOTH",
"348 336 LINE",
"411 288 OFFCURVE",
"481 264 OFFCURVE",
"558 264 CURVE SMOOTH",
"635 264 OFFCURVE",
"705 288 OFFCURVE",
"769 336 CURVE",
"841 260 LINE SMOOTH",
"882 219 OFFCURVE",
"909 199 OFFCURVE",
"923 199 CURVE SMOOTH",
"952 199 OFFCURVE",
"966 213 OFFCURVE",
"966 241 CURVE SMOOTH",
"966 256 OFFCURVE",
"946 283 OFFCURVE",
"905 324 CURVE SMOOTH",
"829 396 LINE",
"878 459 OFFCURVE",
"902 530 OFFCURVE",
"902 609 CURVE SMOOTH",
"902 686 OFFCURVE",
"878 756 OFFCURVE",
"830 819 CURVE",
"906 890 LINE SMOOTH",
"946 930 OFFCURVE",
"966 957 OFFCURVE",
"966 972 CURVE SMOOTH",
"966 1001 OFFCURVE",
"952 1015 OFFCURVE",
"924 1015 CURVE SMOOTH",
"909 1015 OFFCURVE",
"882 995 OFFCURVE",
"842 955 CURVE SMOOTH",
"770 879 LINE",
"709 928 OFFCURVE",
"639 952 OFFCURVE",
"559 952 CURVE SMOOTH",
"478 952 OFFCURVE",
"407 928 OFFCURVE",
"346 879 CURVE",
"274 955 LINE SMOOTH",
"234 995 OFFCURVE",
"207 1015 OFFCURVE",
"193 1015 CURVE SMOOTH",
"164 1015 OFFCURVE",
"150 1001 OFFCURVE",
"150 973 CURVE SMOOTH",
"150 958 OFFCURVE",
"170 931 OFFCURVE",
"210 891 CURVE SMOOTH",
"286 819 LINE",
"238 755 OFFCURVE",
"214 685 OFFCURVE",
"214 608 CURVE SMOOTH",
"214 531 OFFCURVE",
"239 461 OFFCURVE",
"288 396 CURVE",
"211 324 LINE SMOOTH",
"170 284 OFFCURVE",
"150 257 OFFCURVE",
"150 242 CURVE SMOOTH",
"150 213 OFFCURVE",
"164 199 OFFCURVE",
"193 199 CURVE SMOOTH"
);
},
{
closed = 1;
nodes = (
"414 349 OFFCURVE",
"299 464 OFFCURVE",
"299 608 CURVE SMOOTH",
"299 752 OFFCURVE",
"414 868 OFFCURVE",
"558 868 CURVE SMOOTH",
"703 868 OFFCURVE",
"818 753 OFFCURVE",
"818 608 CURVE SMOOTH",
"818 464 OFFCURVE",
"702 349 OFFCURVE",
"558 349 CURVE SMOOTH"
);
}
);
width = 1105;
}
);
note = currency;
unicode = 00A4;
},
{
glyphname = yen;
lastChange = "2025-02-10 17:39:32 +0000";
layers = (
{
background = {
paths = (
{
closed = 1;
nodes = (
"1165 1170 QCURVE SMOOTH",
"919 1170 LINE SMOOTH",
"863 1170 OFFCURVE",
"863 1128 QCURVE SMOOTH",
"863 1085 OFFCURVE",
"919 1085 QCURVE SMOOTH",
"990 1085 LINE",
"689 612 LINE",
"381 1085 LINE",
"452 1085 LINE SMOOTH",
"508 1085 OFFCURVE",
"508 1128 QCURVE SMOOTH",
"508 1170 OFFCURVE",
"452 1170 QCURVE SMOOTH",
"206 1170 LINE SMOOTH",
"150 1170 OFFCURVE",
"150 1128 QCURVE SMOOTH",
"150 1085 OFFCURVE",
"206 1085 QCURVE SMOOTH",
"277 1085 LINE",
"644 531 LINE",
"573 531 LINE SMOOTH",
"520 531 OFFCURVE",
"520 489 QCURVE SMOOTH",
"520 446 OFFCURVE",
"573 446 QCURVE SMOOTH",
"646 446 LINE",
"646 331 LINE",
"573 331 LINE SMOOTH",
"520 331 OFFCURVE",
"520 289 QCURVE SMOOTH",
"520 246 OFFCURVE",
"573 246 QCURVE SMOOTH",
"646 246 LINE",
"646 83 LINE",
"575 83 LINE SMOOTH",
"519 83 OFFCURVE",
"519 40 QCURVE SMOOTH",
"519 -2 OFFCURVE",
"575 -2 QCURVE SMOOTH",
"802 -2 LINE SMOOTH",
"858 -2 OFFCURVE",
"858 40 QCURVE SMOOTH",
"858 83 OFFCURVE",
"802 83 QCURVE SMOOTH",
"731 83 LINE",
"731 245 LINE",
"786 245 LINE SMOOTH",
"839 245 OFFCURVE",
"839 287 QCURVE SMOOTH",
"839 330 OFFCURVE",
"786 330 QCURVE SMOOTH",
"731 330 LINE",
"731 445 LINE",
"786 445 LINE SMOOTH",
"839 445 OFFCURVE",
"839 487 QCURVE SMOOTH",
"839 530 OFFCURVE",
"786 530 QCURVE SMOOTH",
"733 530 LINE",
"1094 1085 LINE",
"1165 1085 LINE SMOOTH",
"1221 1085 OFFCURVE",
"1221 1128 QCURVE SMOOTH",
"1221 1170 OFFCURVE"
);
}
);
};
layerId = m01;
paths = (
{
closed = 1;
nodes = (
"802 -2 LINE SMOOTH",
"839 -2 OFFCURVE",
"858 12 OFFCURVE",
"858 40 CURVE SMOOTH",
"858 69 OFFCURVE",
"839 83 OFFCURVE",
"802 83 CURVE SMOOTH",
"731 83 LINE",
"731 245 LINE",
"786 245 LINE SMOOTH",
"821 245 OFFCURVE",
"839 259 OFFCURVE",
"839 287 CURVE SMOOTH",
"839 316 OFFCURVE",
"821 330 OFFCURVE",
"786 330 CURVE SMOOTH",
"731 330 LINE",
"731 445 LINE",
"786 445 LINE SMOOTH",
"821 445 OFFCURVE",
"839 459 OFFCURVE",
"839 487 CURVE SMOOTH",
"839 516 OFFCURVE",
"821 530 OFFCURVE",
"786 530 CURVE SMOOTH",
"733 530 LINE",
"1094 1085 LINE",
"1165 1085 LINE SMOOTH",
"1202 1085 OFFCURVE",
"1221 1099 OFFCURVE",
"1221 1128 CURVE SMOOTH",
"1221 1156 OFFCURVE",
"1202 1170 OFFCURVE",
"1165 1170 CURVE SMOOTH",
"919 1170 LINE SMOOTH",
"882 1170 OFFCURVE",
"863 1156 OFFCURVE",
"863 1128 CURVE SMOOTH",
"863 1099 OFFCURVE",
"882 1085 OFFCURVE",
"919 1085 CURVE SMOOTH",
"990 1085 LINE",
"689 612 LINE",
"381 1085 LINE",
"452 1085 LINE SMOOTH",
"489 1085 OFFCURVE",
"508 1099 OFFCURVE",
"508 1128 CURVE SMOOTH",
"508 1156 OFFCURVE",
"489 1170 OFFCURVE",
"452 1170 CURVE SMOOTH",
"206 1170 LINE SMOOTH",
"169 1170 OFFCURVE",
"150 1156 OFFCURVE",
"150 1128 CURVE SMOOTH",
"150 1099 OFFCURVE",
"169 1085 OFFCURVE",
"206 1085 CURVE SMOOTH",
"277 1085 LINE",
"644 531 LINE",
"573 531 LINE SMOOTH",
"538 531 OFFCURVE",
"520 517 OFFCURVE",
"520 489 CURVE SMOOTH",
"520 460 OFFCURVE",
"538 446 OFFCURVE",
"573 446 CURVE SMOOTH",
"646 446 LINE",
"646 331 LINE",
"573 331 LINE SMOOTH",
"538 331 OFFCURVE",
"520 317 OFFCURVE",
"520 289 CURVE SMOOTH",
"520 260 OFFCURVE",
"538 246 OFFCURVE",
"573 246 CURVE SMOOTH",
"646 246 LINE",
"646 83 LINE",
"575 83 LINE SMOOTH",
"538 83 OFFCURVE",
"519 69 OFFCURVE",
"519 40 CURVE SMOOTH",
"519 12 OFFCURVE",
"538 -2 OFFCURVE",
"575 -2 CURVE SMOOTH"
);
}
);
width = 1371;
}
);
note = yen;
unicode = 00A5;
},
{
glyphname = brokenbar;
lastChange = "2025-02-10 17:39:32 +0000";
layers = (
{
background = {
paths = (
{
closed = 1;
nodes = (
"234 1207 QCURVE SMOOTH",
"227 1252 OFFCURVE",
"192 1252 QCURVE SMOOTH",
"150 1252 OFFCURVE",
"150 1172 QCURVE SMOOTH",
"150 722 LINE SMOOTH",
"150 642 OFFCURVE",
"192 642 QCURVE SMOOTH",
"227 642 OFFCURVE",
"234 687 QCURVE",
"234 759 LINE",
"235 1135 LINE SMOOTH",
"235 1202 OFFCURVE"
);
},
{
closed = 1;
nodes = (
"234 306 QCURVE SMOOTH",
"227 347 OFFCURVE",
"192 347 QCURVE SMOOTH",
"150 347 OFFCURVE",
"150 267 QCURVE SMOOTH",
"150 -183 LINE SMOOTH",
"150 -262 OFFCURVE",
"192 -262 QCURVE SMOOTH",
"227 -262 OFFCURVE",
"234 -217 QCURVE",
"234 -146 LINE",
"235 239 LINE SMOOTH",
"235 299 OFFCURVE"
);
}
);
};
layerId = m01;
paths = (
{
closed = 1;
nodes = (
"215 642 OFFCURVE",
"229 657 OFFCURVE",
"234 687 CURVE",
"234 759 LINE",
"235 1135 LINE",
"234 1207 LINE",
"229 1237 OFFCURVE",
"215 1252 OFFCURVE",
"192 1252 CURVE SMOOTH",
"164 1252 OFFCURVE",
"150 1225 OFFCURVE",
"150 1172 CURVE SMOOTH",
"150 722 LINE SMOOTH",
"150 669 OFFCURVE",
"164 642 OFFCURVE",
"192 642 CURVE SMOOTH"
);
},
{
closed = 1;
nodes = (
"215 -262 OFFCURVE",
"229 -247 OFFCURVE",
"234 -217 CURVE",
"234 -146 LINE",
"235 239 LINE",
"234 306 LINE",
"229 333 OFFCURVE",
"215 347 OFFCURVE",
"192 347 CURVE SMOOTH",
"164 347 OFFCURVE",
"150 320 OFFCURVE",
"150 267 CURVE SMOOTH",
"150 -183 LINE SMOOTH",
"150 -236 OFFCURVE",
"164 -262 OFFCURVE",
"192 -262 CURVE SMOOTH"
);
}
);
width = 384;
}
);
note = brokenbar;
unicode = 00A6;
},
{
glyphname = section;
lastChange = "2025-02-10 17:39:32 +0000";
layers = (
{
background = {
paths = (
{
closed = 1;
nodes = (
"906 615 QCURVE",
"740 712 OFFCURVE",
"574 808 QCURVE SMOOTH",
"395 919 OFFCURVE",
"395 1014 QCURVE SMOOTH",
"395 1087 OFFCURVE",
"513 1194 OFFCURVE",
"587 1194 QCURVE SMOOTH",
"937 1194 LINE",
"937 1038 LINE SMOOTH",
"937 998 OFFCURVE",
"968 998 QCURVE SMOOTH",
"997 998 OFFCURVE",
"997 1038 QCURVE SMOOTH",
"997 1255 LINE",
"582 1255 LINE SMOOTH",
"481 1255 OFFCURVE",
"335 1107 OFFCURVE",
"335 1006 QCURVE SMOOTH",
"335 958 OFFCURVE",
"369 907 QCURVE",
"281 902 OFFCURVE",
"220 867 QCURVE SMOOTH",
"143 823 OFFCURVE",
"143 743 QCURVE SMOOTH",
"143 636 OFFCURVE",
"322 516 QCURVE",
"489 417 OFFCURVE",
"656 317 QCURVE SMOOTH",
"835 202 OFFCURVE",
"835 107 QCURVE SMOOTH",
"835 29 OFFCURVE",
"774 -22 QCURVE SMOOTH",
"716 -69 OFFCURVE",
"637 -69 QCURVE SMOOTH",
"293 -69 LINE",
"293 89 LINE SMOOTH",
"293 129 OFFCURVE",
"262 129 QCURVE SMOOTH",
"232 129 OFFCURVE",
"232 89 QCURVE SMOOTH",
"232 -130 LINE",
"638 -130 LINE SMOOTH",
"745 -130 OFFCURVE",
"895 6 OFFCURVE",
"895 113 QCURVE SMOOTH",
"895 167 OFFCURVE",
"861 220 QCURVE",
"948 221 OFFCURVE",
"1010 258 QCURVE SMOOTH",
"1085 302 OFFCURVE",
"1085 384 QCURVE SMOOTH",
"1085 497 OFFCURVE"
);
},
{
closed = 1;
nodes = (
"935 295 QCURVE SMOOTH",
"875 285 OFFCURVE",
"814 275 QCURVE",
"773 315 OFFCURVE",
"604 415 QCURVE SMOOTH",
"406 532 OFFCURVE",
"336 583 QCURVE SMOOTH",
"203 679 OFFCURVE",
"203 739 QCURVE SMOOTH",
"203 810 OFFCURVE",
"286 831 QCURVE",
"351 840 OFFCURVE",
"417 849 QCURVE",
"499 776 OFFCURVE",
"659 686 QCURVE SMOOTH",
"847 580 OFFCURVE",
"872 564 QCURVE SMOOTH",
"1025 461 OFFCURVE",
"1025 382 QCURVE SMOOTH",
"1025 312 OFFCURVE"
);
}
);
};
layerId = m01;
paths = (
{
closed = 1;
nodes = (
"638 -130 LINE SMOOTH",
"781 -130 OFFCURVE",
"895 -30 OFFCURVE",
"895 113 CURVE SMOOTH",
"895 149 OFFCURVE",
"884 185 OFFCURVE",
"861 220 CURVE",
"919 221 OFFCURVE",
"969 233 OFFCURVE",
"1010 258 CURVE SMOOTH",
"1060 287 OFFCURVE",
"1085 329 OFFCURVE",
"1085 384 CURVE SMOOTH",
"1085 459 OFFCURVE",
"1025 536 OFFCURVE",
"906 615 CURVE",
"574 808 LINE",
"455 882 OFFCURVE",
"395 951 OFFCURVE",
"395 1014 CURVE SMOOTH",
"395 1111 OFFCURVE",
"488 1194 OFFCURVE",
"587 1194 CURVE SMOOTH",
"937 1194 LINE",
"937 1038 LINE SMOOTH",
"937 1011 OFFCURVE",
"947 998 OFFCURVE",
"968 998 CURVE SMOOTH",
"987 998 OFFCURVE",
"997 1011 OFFCURVE",
"997 1038 CURVE SMOOTH",
"997 1255 LINE",
"582 1255 LINE SMOOTH",
"447 1255 OFFCURVE",
"335 1141 OFFCURVE",
"335 1006 CURVE SMOOTH",
"335 974 OFFCURVE",
"346 941 OFFCURVE",
"369 907 CURVE",
"310 904 OFFCURVE",
"261 890 OFFCURVE",
"220 867 CURVE SMOOTH",
"169 838 OFFCURVE",
"143 796 OFFCURVE",
"143 743 CURVE SMOOTH",
"143 672 OFFCURVE",
"203 596 OFFCURVE",
"322 516 CURVE",
"656 317 LINE",
"775 240 OFFCURVE",
"835 170 OFFCURVE",
"835 107 CURVE SMOOTH",
"835 55 OFFCURVE",
"815 12 OFFCURVE",
"774 -22 CURVE SMOOTH",
"735 -53 OFFCURVE",
"690 -69 OFFCURVE",
"637 -69 CURVE SMOOTH",
"293 -69 LINE",
"293 89 LINE SMOOTH",
"293 116 OFFCURVE",
"283 129 OFFCURVE",
"262 129 CURVE SMOOTH",
"242 129 OFFCURVE",
"232 116 OFFCURVE",
"232 89 CURVE SMOOTH",
"232 -130 LINE"
);
},
{
closed = 1;
nodes = (
"787 302 OFFCURVE",
"717 348 OFFCURVE",
"604 415 CURVE SMOOTH",
"472 493 OFFCURVE",
"383 549 OFFCURVE",
"336 583 CURVE SMOOTH",
"247 647 OFFCURVE",
"203 699 OFFCURVE",
"203 739 CURVE SMOOTH",
"203 786 OFFCURVE",
"231 817 OFFCURVE",
"286 831 CURVE",
"417 849 LINE",
"472 800 OFFCURVE",
"552 746 OFFCURVE",
"659 686 CURVE SMOOTH",
"784 615 OFFCURVE",
"855 575 OFFCURVE",
"872 564 CURVE SMOOTH",
"974 495 OFFCURVE",
"1025 435 OFFCURVE",
"1025 382 CURVE SMOOTH",
"1025 335 OFFCURVE",
"995 306 OFFCURVE",
"935 295 CURVE SMOOTH",
"814 275 LINE"
);
}
);
width = 1229;
}
);
note = section;
unicode = 00A7;
},
{
glyphname = dieresis;
lastChange = "2025-02-10 17:39:32 +0000";
layers = (
{
background = {
paths = (
{
closed = 1;
nodes = (
"694 1225 OFFCURVE",
"660 1225 QCURVE SMOOTH",
"626 1225 OFFCURVE",
"579 1177 OFFCURVE",
"579 1143 QCURVE SMOOTH",
"579 1109 OFFCURVE",
"626 1062 OFFCURVE",
"660 1062 QCURVE SMOOTH",
"694 1062 OFFCURVE",
"742 1109 OFFCURVE",
"742 1143 QCURVE SMOOTH",
"742 1177 OFFCURVE"
);
},
{
closed = 1;
nodes = (
"265 1225 OFFCURVE",
"231 1225 QCURVE SMOOTH",
"197 1225 OFFCURVE",
"150 1177 OFFCURVE",
"150 1143 QCURVE SMOOTH",
"150 1110 OFFCURVE",
"198 1062 OFFCURVE",
"231 1062 QCURVE SMOOTH",
"265 1062 OFFCURVE",
"313 1109 OFFCURVE",
"313 1143 QCURVE SMOOTH",
"313 1177 OFFCURVE"
);
}
);
};
layerId = m01;
paths = (
{
closed = 1;
nodes = (
"705 1062 OFFCURVE",
"742 1098 OFFCURVE",
"742 1143 CURVE SMOOTH",
"742 1188 OFFCURVE",
"705 1225 OFFCURVE",
"660 1225 CURVE SMOOTH",
"615 1225 OFFCURVE",
"579 1188 OFFCURVE",
"579 1143 CURVE SMOOTH",
"579 1098 OFFCURVE",
"615 1062 OFFCURVE",
"660 1062 CURVE SMOOTH"
);
},
{
closed = 1;
nodes = (
"276 1062 OFFCURVE",
"313 1098 OFFCURVE",
"313 1143 CURVE SMOOTH",
"313 1188 OFFCURVE",
"276 1225 OFFCURVE",
"231 1225 CURVE SMOOTH",
"186 1225 OFFCURVE",
"150 1188 OFFCURVE",
"150 1143 CURVE SMOOTH",
"150 1099 OFFCURVE",
"187 1062 OFFCURVE",
"231 1062 CURVE SMOOTH"
);
}
);
width = 892;
}
);
note = dieresis;
unicode = 00A8;
},
{
glyphname = copyright;
lastChange = "2025-02-10 17:39:32 +0000";
layers = (
{
background = {
paths = (
{
closed = 1;
nodes = (
"1017 1201 OFFCURVE",
"761 1201 QCURVE SMOOTH",
"506 1201 OFFCURVE",
"150 844 OFFCURVE",
"150 589 QCURVE SMOOTH",
"150 334 OFFCURVE",
"506 -22 OFFCURVE",
"761 -22 QCURVE SMOOTH",
"1016 -22 OFFCURVE",
"1373 334 OFFCURVE",
"1373 589 QCURVE SMOOTH",
"1373 845 OFFCURVE"
);
},
{
closed = 1;
nodes = (
"988 46 OFFCURVE",
"761 46 QCURVE SMOOTH",
"534 46 OFFCURVE",
"217 362 OFFCURVE",
"217 589 QCURVE SMOOTH",
"217 816 OFFCURVE",
"534 1133 OFFCURVE",
"761 1133 QCURVE SMOOTH",
"989 1133 OFFCURVE",
"1305 817 OFFCURVE",
"1305 589 QCURVE SMOOTH",
"1305 362 OFFCURVE"
);
},
{
closed = 1;
nodes = (
"969 434 QCURVE SMOOTH",
"971 434 OFFCURVE",
"844 329 OFFCURVE",
"771 329 QCURVE SMOOTH",
"678 329 OFFCURVE",
"545 469 OFFCURVE",
"545 562 QCURVE SMOOTH",
"545 635 LINE SMOOTH",
"545 725 OFFCURVE",
"664 860 OFFCURVE",
"754 860 QCURVE SMOOTH",
"828 860 OFFCURVE",
"886 816 QCURVE SMOOTH",
"919 789 OFFCURVE",
"928 757 QCURVE SMOOTH",
"937 722 OFFCURVE",
"938 722 QCURVE",
"944 716 OFFCURVE",
"952 716 QCURVE SMOOTH",
"973 716 OFFCURVE",
"973 744 QCURVE SMOOTH",
"973 861 LINE SMOOTH",
"973 889 OFFCURVE",
"952 889 QCURVE SMOOTH",
"931 889 OFFCURVE",
"931 831 QCURVE",
"856 902 OFFCURVE",
"752 902 QCURVE SMOOTH",
"648 902 OFFCURVE",
"503 746 OFFCURVE",
"503 641 QCURVE SMOOTH",
"503 556 LINE SMOOTH",
"503 471 OFFCURVE",
"562 397 QCURVE SMOOTH",
"650 287 OFFCURVE",
"772 287 QCURVE SMOOTH",
"885 287 OFFCURVE",
"968 380 QCURVE SMOOTH",
"989 404 OFFCURVE",
"989 415 QCURVE SMOOTH",
"989 434 OFFCURVE"
);
}
);
};
layerId = m01;
paths = (
{
closed = 1;
nodes = (
"1101 -22 OFFCURVE",
"1373 249 OFFCURVE",
"1373 589 CURVE SMOOTH",
"1373 930 OFFCURVE",
"1102 1201 OFFCURVE",
"761 1201 CURVE SMOOTH",
"421 1201 OFFCURVE",
"150 929 OFFCURVE",
"150 589 CURVE SMOOTH",
"150 249 OFFCURVE",
"421 -22 OFFCURVE",
"761 -22 CURVE SMOOTH"
);
},
{
closed = 1;
nodes = (
"458 46 OFFCURVE",
"217 286 OFFCURVE",
"217 589 CURVE SMOOTH",
"217 892 OFFCURVE",
"458 1133 OFFCURVE",
"761 1133 CURVE SMOOTH",
"1065 1133 OFFCURVE",
"1305 893 OFFCURVE",
"1305 589 CURVE SMOOTH",
"1305 286 OFFCURVE",
"1064 46 OFFCURVE",
"761 46 CURVE SMOOTH"
);
},
{
closed = 1;
nodes = (
"847 287 OFFCURVE",
"913 318 OFFCURVE",
"968 380 CURVE SMOOTH",
"982 396 OFFCURVE",
"989 408 OFFCURVE",
"989 415 CURVE SMOOTH",
"989 428 OFFCURVE",
"982 434 OFFCURVE",
"969 434 CURVE SMOOTH",
"970 434 OFFCURVE",
"950 417 OFFCURVE",
"908 382 CURVE SMOOTH",
"865 347 OFFCURVE",
"820 329 OFFCURVE",
"771 329 CURVE SMOOTH",
"647 329 OFFCURVE",
"545 438 OFFCURVE",
"545 562 CURVE SMOOTH",
"545 635 LINE SMOOTH",
"545 755 OFFCURVE",
"634 860 OFFCURVE",
"754 860 CURVE SMOOTH",
"803 860 OFFCURVE",
"847 845 OFFCURVE",
"886 816 CURVE SMOOTH",
"908 798 OFFCURVE",
"922 778 OFFCURVE",
"928 757 CURVE SMOOTH",
"934 734 OFFCURVE",
"937 722 OFFCURVE",
"938 722 CURVE",
"942 718 OFFCURVE",
"947 716 OFFCURVE",
"952 716 CURVE SMOOTH",
"966 716 OFFCURVE",
"973 725 OFFCURVE",
"973 744 CURVE SMOOTH",
"973 861 LINE SMOOTH",
"973 880 OFFCURVE",
"966 889 OFFCURVE",
"952 889 CURVE SMOOTH",
"938 889 OFFCURVE",
"931 870 OFFCURVE",
"931 831 CURVE",
"881 878 OFFCURVE",
"821 902 OFFCURVE",
"752 902 CURVE SMOOTH",
"613 902 OFFCURVE",
"503 781 OFFCURVE",
"503 641 CURVE SMOOTH",
"503 556 LINE SMOOTH",
"503 499 OFFCURVE",
"523 446 OFFCURVE",
"562 397 CURVE SMOOTH",
"621 324 OFFCURVE",
"691 287 OFFCURVE",
"772 287 CURVE SMOOTH"
);
}
);
width = 1523;
}
);
note = copyright;
unicode = 00A9;
},
{
glyphname = ordfeminine;
lastChange = "2025-02-10 17:39:32 +0000";
layers = (
{
background = {
paths = (
{
closed = 1;
nodes = (
"760 821 QCURVE",
"694 821 LINE",
"694 1142 LINE SMOOTH",
"694 1223 OFFCURVE",
"615 1270 QCURVE SMOOTH",
"549 1308 OFFCURVE",
"462 1308 QCURVE SMOOTH",
"405 1308 OFFCURVE",
"321 1289 QCURVE SMOOTH",
"215 1264 OFFCURVE",
"215 1230 QCURVE SMOOTH",
"215 1191 OFFCURVE",
"254 1191 QCURVE SMOOTH",
"276 1191 OFFCURVE",
"421 1231 OFFCURVE",
"459 1231 QCURVE SMOOTH",
"613 1231 OFFCURVE",
"613 1142 QCURVE SMOOTH",
"613 1076 LINE",
"517 1092 OFFCURVE",
"447 1092 QCURVE SMOOTH",
"336 1092 OFFCURVE",
"254 1051 QCURVE SMOOTH",
"150 998 OFFCURVE",
"150 897 QCURVE SMOOTH",
"150 812 OFFCURVE",
"222 764 QCURVE SMOOTH",
"283 724 OFFCURVE",
"373 724 QCURVE SMOOTH",
"498 724 OFFCURVE",
"613 804 QCURVE",
"613 744 LINE",
"754 744 LINE SMOOTH",
"804 744 OFFCURVE",
"804 783 QCURVE SMOOTH",
"804 815 OFFCURVE"
);
},
{
closed = 1;
nodes = (
"370 801 QCURVE SMOOTH",
"231 801 OFFCURVE",
"231 897 QCURVE SMOOTH",
"231 960 OFFCURVE",
"317 992 QCURVE SMOOTH",
"380 1015 OFFCURVE",
"455 1015 QCURVE SMOOTH",
"548 1015 OFFCURVE",
"612 998 QCURVE",
"613 903 LINE",
"497 801 OFFCURVE"
);
}
);
};
layerId = m01;
paths = (
{
closed = 1;
nodes = (
"456 724 OFFCURVE",
"536 751 OFFCURVE",
"613 804 CURVE",
"613 744 LINE",
"754 744 LINE SMOOTH",
"787 744 OFFCURVE",
"804 757 OFFCURVE",
"804 783 CURVE SMOOTH",
"804 804 OFFCURVE",
"789 817 OFFCURVE",
"760 821 CURVE",
"694 821 LINE",
"694 1142 LINE SMOOTH",
"694 1196 OFFCURVE",
"668 1239 OFFCURVE",
"615 1270 CURVE SMOOTH",
"571 1295 OFFCURVE",
"520 1308 OFFCURVE",
"462 1308 CURVE SMOOTH",
"424 1308 OFFCURVE",
"377 1302 OFFCURVE",
"321 1289 CURVE SMOOTH",
"250 1272 OFFCURVE",
"215 1253 OFFCURVE",
"215 1230 CURVE SMOOTH",
"215 1204 OFFCURVE",
"228 1191 OFFCURVE",
"254 1191 CURVE SMOOTH",
"269 1191 OFFCURVE",
"300 1198 OFFCURVE",
"349 1211 CURVE SMOOTH",
"397 1224 OFFCURVE",
"434 1231 OFFCURVE",
"459 1231 CURVE SMOOTH",
"562 1231 OFFCURVE",
"613 1201 OFFCURVE",
"613 1142 CURVE SMOOTH",
"613 1076 LINE",
"549 1087 OFFCURVE",
"494 1092 OFFCURVE",
"447 1092 CURVE SMOOTH",
"373 1092 OFFCURVE",
"309 1078 OFFCURVE",
"254 1051 CURVE SMOOTH",
"185 1016 OFFCURVE",
"150 964 OFFCURVE",
"150 897 CURVE SMOOTH",
"150 840 OFFCURVE",
"174 796 OFFCURVE",
"222 764 CURVE SMOOTH",
"263 737 OFFCURVE",
"313 724 OFFCURVE",
"373 724 CURVE SMOOTH"
);
},
{
closed = 1;
nodes = (
"277 801 OFFCURVE",
"231 833 OFFCURVE",
"231 897 CURVE SMOOTH",
"231 939 OFFCURVE",
"260 971 OFFCURVE",
"317 992 CURVE SMOOTH",
"359 1007 OFFCURVE",
"405 1015 OFFCURVE",
"455 1015 CURVE SMOOTH",
"517 1015 OFFCURVE",
"569 1009 OFFCURVE",
"612 998 CURVE",
"613 903 LINE",
"536 835 OFFCURVE",
"455 801 OFFCURVE",
"370 801 CURVE SMOOTH"
);
}
);
width = 950;
}
);
note = ordfeminine;
unicode = 00AA;
},
{
glyphname = guillemotleft;
lastChange = "2025-02-10 17:39:32 +0000";
layers = (
{
background = {
paths = (
{
closed = 1;
nodes = (
"1080 85 QCURVE SMOOTH",
"767 434 LINE",
"1080 784 LINE SMOOTH",
"1102 809 OFFCURVE",
"1102 825 QCURVE SMOOTH",
"1102 868 OFFCURVE",
"1060 868 QCURVE SMOOTH",
"1042 868 OFFCURVE",
"1016 844 QCURVE SMOOTH",
"568 434 LINE",
"1016 24 LINE SMOOTH",
"1041 1 OFFCURVE",
"1060 1 QCURVE SMOOTH",
"1102 1 OFFCURVE",
"1102 43 QCURVE SMOOTH",
"1102 60 OFFCURVE"
);
},
{
closed = 1;
nodes = (
"610 85 QCURVE SMOOTH",
"297 434 LINE",
"610 784 LINE SMOOTH",
"633 810 OFFCURVE",
"633 825 QCURVE SMOOTH",
"633 868 OFFCURVE",
"591 868 QCURVE SMOOTH",
"573 868 OFFCURVE",
"547 844 QCURVE SMOOTH",
"99 434 LINE",
"547 24 LINE SMOOTH",
"572 1 OFFCURVE",
"591 1 QCURVE SMOOTH",
"633 1 OFFCURVE",
"633 43 QCURVE SMOOTH",
"633 59 OFFCURVE"
);
}
);
};
layerId = m01;
paths = (
{
closed = 1;
nodes = (
"1088 1 OFFCURVE",
"1102 15 OFFCURVE",
"1102 43 CURVE SMOOTH",
"1102 54 OFFCURVE",
"1095 68 OFFCURVE",
"1080 85 CURVE SMOOTH",
"767 434 LINE",
"1080 784 LINE SMOOTH",
"1095 801 OFFCURVE",
"1102 814 OFFCURVE",
"1102 825 CURVE SMOOTH",
"1102 854 OFFCURVE",
"1088 868 OFFCURVE",
"1060 868 CURVE SMOOTH",
"1048 868 OFFCURVE",
"1033 860 OFFCURVE",
"1016 844 CURVE SMOOTH",
"568 434 LINE",
"1016 24 LINE SMOOTH",
"1033 9 OFFCURVE",
"1047 1 OFFCURVE",
"1060 1 CURVE SMOOTH"
);
},
{
closed = 1;
nodes = (
"619 1 OFFCURVE",
"633 15 OFFCURVE",
"633 43 CURVE SMOOTH",
"633 54 OFFCURVE",
"625 68 OFFCURVE",
"610 85 CURVE SMOOTH",
"297 434 LINE",
"610 784 LINE SMOOTH",
"625 801 OFFCURVE",
"633 815 OFFCURVE",
"633 825 CURVE SMOOTH",
"633 854 OFFCURVE",
"619 868 OFFCURVE",
"591 868 CURVE SMOOTH",
"579 868 OFFCURVE",
"564 860 OFFCURVE",
"547 844 CURVE SMOOTH",
"99 434 LINE",
"547 24 LINE SMOOTH",
"564 9 OFFCURVE",
"578 1 OFFCURVE",
"591 1 CURVE SMOOTH"
);
}
);
width = 1229;
}
);
note = guillemotleft;
unicode = 00AB;
},
{
glyphname = logicalnot;
lastChange = "2025-02-10 17:39:32 +0000";
layers = (
{
background = {
paths = (
{
closed = 1;
nodes = (
"150 763 OFFCURVE",
"150 721 QCURVE SMOOTH",
"150 679 OFFCURVE",
"206 679 QCURVE SMOOTH",
"1126 679 LINE",
"1126 259 LINE SMOOTH",
"1126 203 OFFCURVE",
"1169 203 QCURVE SMOOTH",
"1211 203 OFFCURVE",
"1211 256 QCURVE SMOOTH",
"1211 763 LINE",
"203 763 LINE SMOOTH"
);
}
);
};
layerId = m01;
paths = (
{
closed = 1;
nodes = (
"1197 203 OFFCURVE",
"1211 221 OFFCURVE",
"1211 256 CURVE SMOOTH",
"1211 763 LINE",
"203 763 LINE SMOOTH",
"168 763 OFFCURVE",
"150 749 OFFCURVE",
"150 721 CURVE SMOOTH",
"150 693 OFFCURVE",
"169 679 OFFCURVE",
"206 679 CURVE SMOOTH",
"1126 679 LINE",
"1126 259 LINE SMOOTH",
"1126 222 OFFCURVE",
"1140 203 OFFCURVE",
"1169 203 CURVE SMOOTH"
);
}
);
width = 1359;
}
);
note = logicalnot;
unicode = 00AC;
},
{
glyphname = registered;
lastChange = "2025-02-10 17:39:32 +0000";
layers = (
{
background = {
paths = (
{
closed = 1;
nodes = (
"1017 1194 OFFCURVE",
"761 1194 QCURVE SMOOTH",
"506 1194 OFFCURVE",
"150 837 OFFCURVE",
"150 582 QCURVE SMOOTH",
"150 327 OFFCURVE",
"506 -29 OFFCURVE",
"761 -29 QCURVE SMOOTH",
"1016 -29 OFFCURVE",
"1373 327 OFFCURVE",
"1373 582 QCURVE SMOOTH",
"1373 838 OFFCURVE"
);
},
{
closed = 1;
nodes = (
"988 39 OFFCURVE",
"761 39 QCURVE SMOOTH",
"534 39 OFFCURVE",
"217 355 OFFCURVE",
"217 582 QCURVE SMOOTH",
"217 809 OFFCURVE",
"534 1126 OFFCURVE",
"761 1126 QCURVE SMOOTH",
"989 1126 OFFCURVE",
"1305 810 OFFCURVE",
"1305 582 QCURVE SMOOTH",
"1305 355 OFFCURVE"
);
},
{
closed = 1;
nodes = (
"1027 342 QCURVE SMOOTH",
"992 342 LINE",
"842 572 LINE",
"987 621 OFFCURVE",
"987 723 QCURVE SMOOTH",
"987 793 OFFCURVE",
"927 840 QCURVE SMOOTH",
"872 885 OFFCURVE",
"801 885 QCURVE SMOOTH",
"568 886 LINE SMOOTH",
"540 886 OFFCURVE",
"540 865 QCURVE SMOOTH",
"540 843 OFFCURVE",
"568 843 QCURVE SMOOTH",
"603 843 LINE",
"603 342 LINE",
"568 342 LINE SMOOTH",
"540 342 OFFCURVE",
"540 321 QCURVE SMOOTH",
"540 300 OFFCURVE",
"568 300 QCURVE SMOOTH",
"681 300 LINE SMOOTH",
"709 300 OFFCURVE",
"709 321 QCURVE SMOOTH",
"709 342 OFFCURVE",
"681 342 QCURVE SMOOTH",
"645 342 LINE",
"645 561 LINE",
"789 561 LINE",
"958 300 LINE",
"1029 300 LINE SMOOTH",
"1055 300 OFFCURVE",
"1055 321 QCURVE SMOOTH",
"1055 342 OFFCURVE"
);
},
{
closed = 1;
nodes = (
"878 632 QCURVE SMOOTH",
"823 603 OFFCURVE",
"760 603 QCURVE SMOOTH",
"645 603 LINE",
"645 843 LINE",
"800 843 LINE SMOOTH",
"851 843 OFFCURVE",
"896 811 QCURVE SMOOTH",
"945 775 OFFCURVE",
"945 725 QCURVE SMOOTH",
"945 667 OFFCURVE"
);
}
);
};
layerId = m01;
paths = (
{
closed = 1;
nodes = (
"1101 -29 OFFCURVE",
"1373 242 OFFCURVE",
"1373 582 CURVE SMOOTH",
"1373 923 OFFCURVE",
"1102 1194 OFFCURVE",
"761 1194 CURVE SMOOTH",
"421 1194 OFFCURVE",
"150 922 OFFCURVE",
"150 582 CURVE SMOOTH",
"150 242 OFFCURVE",
"421 -29 OFFCURVE",
"761 -29 CURVE SMOOTH"
);
},
{
closed = 1;
nodes = (
"458 39 OFFCURVE",
"217 279 OFFCURVE",
"217 582 CURVE SMOOTH",
"217 885 OFFCURVE",
"458 1126 OFFCURVE",
"761 1126 CURVE SMOOTH",
"1065 1126 OFFCURVE",
"1305 886 OFFCURVE",
"1305 582 CURVE SMOOTH",
"1305 279 OFFCURVE",
"1064 39 OFFCURVE",
"761 39 CURVE SMOOTH"
);
},
{
closed = 1;
nodes = (
"681 300 LINE SMOOTH",
"700 300 OFFCURVE",
"709 307 OFFCURVE",
"709 321 CURVE SMOOTH",
"709 335 OFFCURVE",
"700 342 OFFCURVE",
"681 342 CURVE SMOOTH",
"645 342 LINE",
"645 561 LINE",
"789 561 LINE",
"958 300 LINE",
"1029 300 LINE SMOOTH",
"1046 300 OFFCURVE",
"1055 307 OFFCURVE",
"1055 321 CURVE SMOOTH",
"1055 335 OFFCURVE",
"1046 342 OFFCURVE",
"1027 342 CURVE SMOOTH",
"992 342 LINE",
"842 572 LINE",
"939 605 OFFCURVE",
"987 655 OFFCURVE",
"987 723 CURVE SMOOTH",
"987 770 OFFCURVE",
"967 809 OFFCURVE",
"927 840 CURVE SMOOTH",
"890 870 OFFCURVE",
"848 885 OFFCURVE",
"801 885 CURVE SMOOTH",
"568 886 LINE SMOOTH",
"549 886 OFFCURVE",
"540 879 OFFCURVE",
"540 865 CURVE SMOOTH",
"540 850 OFFCURVE",
"549 843 OFFCURVE",
"568 843 CURVE SMOOTH",
"603 843 LINE",
"603 342 LINE",
"568 342 LINE SMOOTH",
"549 342 OFFCURVE",
"540 335 OFFCURVE",
"540 321 CURVE SMOOTH",
"540 307 OFFCURVE",
"549 300 OFFCURVE",
"568 300 CURVE SMOOTH"
);
},
{
closed = 1;
nodes = (
"645 843 LINE",
"800 843 LINE SMOOTH",
"834 843 OFFCURVE",
"866 832 OFFCURVE",
"896 811 CURVE SMOOTH",
"929 787 OFFCURVE",
"945 758 OFFCURVE",
"945 725 CURVE SMOOTH",
"945 686 OFFCURVE",
"923 655 OFFCURVE",
"878 632 CURVE SMOOTH",
"841 613 OFFCURVE",
"802 603 OFFCURVE",
"760 603 CURVE SMOOTH",
"645 603 LINE"
);
}
);
width = 1523;
}
);
note = registered;
unicode = 00AE;
},
{
glyphname = overscore;
lastChange = "2025-02-10 17:39:32 +0000";
layers = (
{
background = {
paths = (
{
closed = 1;
nodes = (
"1203 1425 QCURVE SMOOTH",
"26 1425 LINE SMOOTH",
"-27 1425 OFFCURVE",
"-27 1383 QCURVE SMOOTH",
"-27 1340 OFFCURVE",
"26 1340 QCURVE SMOOTH",
"1203 1340 LINE SMOOTH",
"1256 1340 OFFCURVE",
"1256 1382 QCURVE SMOOTH",
"1256 1425 OFFCURVE"
);
}
);
};
layerId = m01;
paths = (
{
closed = 1;
nodes = (
"1203 1340 LINE SMOOTH",
"1238 1340 OFFCURVE",
"1256 1354 OFFCURVE",
"1256 1382 CURVE SMOOTH",
"1256 1411 OFFCURVE",
"1238 1425 OFFCURVE",
"1203 1425 CURVE SMOOTH",
"26 1425 LINE SMOOTH",
"-9 1425 OFFCURVE",
"-27 1411 OFFCURVE",
"-27 1383 CURVE SMOOTH",
"-27 1354 OFFCURVE",
"-9 1340 OFFCURVE",
"26 1340 CURVE SMOOTH"
);
}
);
width = 1229;
}
);
note = overscore;
unicode = 02C9;
},
{
glyphname = degree;
lastChange = "2025-02-10 17:39:32 +0000";
layers = (
{
background = {
paths = (
{
closed = 1;
nodes = (
"342 1389 OFFCURVE",
"286 1389 QCURVE SMOOTH",
"230 1389 OFFCURVE",
"150 1311 OFFCURVE",
"150 1255 QCURVE SMOOTH",
"150 1199 OFFCURVE",
"230 1122 OFFCURVE",
"286 1122 QCURVE SMOOTH",
"342 1122 OFFCURVE",
"422 1199 OFFCURVE",
"422 1255 QCURVE SMOOTH",
"422 1311 OFFCURVE"
);
},
{
closed = 1;
nodes = (
"323 1167 OFFCURVE",
"286 1167 QCURVE SMOOTH",
"249 1167 OFFCURVE",
"195 1218 OFFCURVE",
"195 1255 QCURVE SMOOTH",
"195 1292 OFFCURVE",
"249 1344 OFFCURVE",
"286 1344 QCURVE SMOOTH",
"323 1344 OFFCURVE",
"377 1292 OFFCURVE",
"377 1255 QCURVE SMOOTH",
"377 1218 OFFCURVE"
);
}
);
};
layerId = m01;
paths = (
{
closed = 1;
nodes = (
"361 1122 OFFCURVE",
"422 1180 OFFCURVE",
"422 1255 CURVE SMOOTH",
"422 1330 OFFCURVE",
"361 1389 OFFCURVE",
"286 1389 CURVE SMOOTH",
"211 1389 OFFCURVE",
"150 1330 OFFCURVE",
"150 1255 CURVE SMOOTH",
"150 1180 OFFCURVE",
"211 1122 OFFCURVE",
"286 1122 CURVE SMOOTH"
);
},
{
closed = 1;
nodes = (
"237 1167 OFFCURVE",
"195 1206 OFFCURVE",
"195 1255 CURVE SMOOTH",
"195 1304 OFFCURVE",
"237 1344 OFFCURVE",
"286 1344 CURVE SMOOTH",
"335 1344 OFFCURVE",
"377 1304 OFFCURVE",
"377 1255 CURVE SMOOTH",
"377 1206 OFFCURVE",
"335 1167 OFFCURVE",
"286 1167 CURVE SMOOTH"
);
}
);
width = 570;
}
);
note = degree;
unicode = 00B0;
},
{
glyphname = plusminus;
lastChange = "2025-02-10 17:39:32 +0000";
layers = (
{
background = {
paths = (
{
closed = 1;
nodes = (
"1029 760 QCURVE SMOOTH",
"657 760 LINE",
"657 1178 LINE SMOOTH",
"657 1234 OFFCURVE",
"615 1234 QCURVE SMOOTH",
"572 1234 OFFCURVE",
"572 1178 QCURVE SMOOTH",
"572 760 LINE",
"200 760 LINE SMOOTH",
"144 760 OFFCURVE",
"144 718 QCURVE SMOOTH",
"144 676 OFFCURVE",
"200 676 QCURVE SMOOTH",
"572 676 LINE",
"572 256 LINE SMOOTH",
"572 200 OFFCURVE",
"614 200 QCURVE SMOOTH",
"657 200 OFFCURVE",
"657 256 QCURVE SMOOTH",
"657 676 LINE",
"1029 676 LINE SMOOTH",
"1085 676 OFFCURVE",
"1085 718 QCURVE SMOOTH",
"1085 760 OFFCURVE"
);
},
{
closed = 1;
nodes = (
"1040 84 QCURVE",
"968 84 LINE",
"261 85 LINE SMOOTH",
"193 85 OFFCURVE",
"189 84 QCURVE SMOOTH",
"144 78 OFFCURVE",
"144 42 QCURVE SMOOTH",
"144 0 OFFCURVE",
"222 0 QCURVE SMOOTH",
"1007 0 LINE SMOOTH",
"1085 0 OFFCURVE",
"1085 42 QCURVE SMOOTH",
"1085 78 OFFCURVE"
);
}
);
};
layerId = m01;
paths = (
{
closed = 1;
nodes = (
"643 200 OFFCURVE",
"657 219 OFFCURVE",
"657 256 CURVE SMOOTH",
"657 676 LINE",
"1029 676 LINE SMOOTH",
"1066 676 OFFCURVE",
"1085 690 OFFCURVE",
"1085 718 CURVE SMOOTH",
"1085 746 OFFCURVE",
"1066 760 OFFCURVE",
"1029 760 CURVE SMOOTH",
"657 760 LINE",
"657 1178 LINE SMOOTH",
"657 1215 OFFCURVE",
"643 1234 OFFCURVE",
"615 1234 CURVE SMOOTH",
"586 1234 OFFCURVE",
"572 1215 OFFCURVE",
"572 1178 CURVE SMOOTH",
"572 760 LINE",
"200 760 LINE SMOOTH",
"163 760 OFFCURVE",
"144 746 OFFCURVE",
"144 718 CURVE SMOOTH",
"144 690 OFFCURVE",
"163 676 OFFCURVE",
"200 676 CURVE SMOOTH",
"572 676 LINE",
"572 256 LINE SMOOTH",
"572 219 OFFCURVE",
"586 200 OFFCURVE",
"614 200 CURVE SMOOTH"
);
},
{
closed = 1;
nodes = (
"1007 0 LINE SMOOTH",
"1059 0 OFFCURVE",
"1085 14 OFFCURVE",
"1085 42 CURVE SMOOTH",
"1085 66 OFFCURVE",
"1070 80 OFFCURVE",
"1040 84 CURVE",
"261 85 LINE",
"189 84 LINE",
"159 80 OFFCURVE",
"144 66 OFFCURVE",
"144 42 CURVE SMOOTH",
"144 14 OFFCURVE",
"170 0 OFFCURVE",
"222 0 CURVE SMOOTH"
);
}
);
width = 1229;
}
);
note = plusminus;
unicode = 00B1;
},
{
glyphname = twosuperior;
lastChange = "2025-02-10 17:39:32 +0000";
layers = (
{
background = {
paths = (
{
closed = 1;
nodes = (
"593 585 QCURVE",
"594 578 LINE SMOOTH",
"591 615 OFFCURVE",
"571 615 QCURVE SMOOTH",
"550 615 OFFCURVE",
"550 571 QCURVE",
"247 571 LINE",
"247 574 LINE",
"324 640 OFFCURVE",
"429 750 QCURVE SMOOTH",
"562 888 OFFCURVE",
"582 940 QCURVE SMOOTH",
"592 964 OFFCURVE",
"592 993 QCURVE SMOOTH",
"592 1067 OFFCURVE",
"475 1171 OFFCURVE",
"400 1171 QCURVE SMOOTH",
"289 1171 OFFCURVE",
"233 1083 QCURVE SMOOTH",
"207 1042 OFFCURVE",
"207 1018 QCURVE SMOOTH",
"207 999 OFFCURVE",
"227 999 QCURVE SMOOTH",
"235 999 OFFCURVE",
"241 1004 QCURVE",
"246 1013 OFFCURVE",
"248 1019 QCURVE SMOOTH",
"281 1129 OFFCURVE",
"401 1129 QCURVE SMOOTH",
"459 1129 OFFCURVE",
"549 1049 OFFCURVE",
"549 992 QCURVE SMOOTH",
"549 972 OFFCURVE",
"541 952 QCURVE SMOOTH",
"524 907 OFFCURVE",
"387 766 QCURVE SMOOTH",
"285 662 OFFCURVE",
"206 591 QCURVE",
"206 529 LINE",
"592 529 LINE",
"592 585 OFFCURVE"
);
}
);
};
layerId = m01;
paths = (
{
closed = 1;
nodes = (
"592 529 LINE",
"593 585 LINE",
"594 578 LINE SMOOTH",
"592 603 OFFCURVE",
"584 615 OFFCURVE",
"571 615 CURVE SMOOTH",
"557 615 OFFCURVE",
"550 600 OFFCURVE",
"550 571 CURVE",
"247 571 LINE",
"247 574 LINE",
"298 618 OFFCURVE",
"359 677 OFFCURVE",
"429 750 CURVE SMOOTH",
"518 842 OFFCURVE",
"569 905 OFFCURVE",
"582 940 CURVE SMOOTH",
"589 956 OFFCURVE",
"592 974 OFFCURVE",
"592 993 CURVE SMOOTH",
"592 1092 OFFCURVE",
"500 1171 OFFCURVE",
"400 1171 CURVE SMOOTH",
"326 1171 OFFCURVE",
"270 1142 OFFCURVE",
"233 1083 CURVE SMOOTH",
"216 1056 OFFCURVE",
"207 1034 OFFCURVE",
"207 1018 CURVE SMOOTH",
"207 1005 OFFCURVE",
"214 999 OFFCURVE",
"227 999 CURVE SMOOTH",
"232 999 OFFCURVE",
"237 1001 OFFCURVE",
"241 1004 CURVE",
"244 1010 OFFCURVE",
"247 1015 OFFCURVE",
"248 1019 CURVE SMOOTH",
"270 1092 OFFCURVE",
"321 1129 OFFCURVE",
"401 1129 CURVE SMOOTH",
"478 1129 OFFCURVE",
"549 1068 OFFCURVE",
"549 992 CURVE SMOOTH",
"549 979 OFFCURVE",
"546 965 OFFCURVE",
"541 952 CURVE SMOOTH",
"530 922 OFFCURVE",
"478 860 OFFCURVE",
"387 766 CURVE SMOOTH",
"319 697 OFFCURVE",
"259 638 OFFCURVE",
"206 591 CURVE",
"206 529 LINE"
);
}
);
width = 800;
}
);
note = twosuperior;
unicode = 00B2;
},
{
glyphname = threesuperior;
lastChange = "2025-02-10 17:39:32 +0000";
layers = (
{
background = {
paths = (
{
closed = 1;
nodes = (
"482 870 QCURVE",
"579 916 OFFCURVE",
"579 1010 QCURVE SMOOTH",
"579 1082 OFFCURVE",
"523 1128 QCURVE SMOOTH",
"471 1171 OFFCURVE",
"397 1171 QCURVE SMOOTH",
"320 1171 OFFCURVE",
"260 1129 QCURVE SMOOTH",
"216 1098 OFFCURVE",
"216 1078 QCURVE SMOOTH",
"216 1059 OFFCURVE",
"237 1059 QCURVE SMOOTH",
"246 1059 OFFCURVE",
"259 1073 QCURVE SMOOTH",
"307 1129 OFFCURVE",
"397 1129 QCURVE SMOOTH",
"452 1129 OFFCURVE",
"492 1098 QCURVE SMOOTH",
"536 1064 OFFCURVE",
"536 1010 QCURVE SMOOTH",
"536 959 OFFCURVE",
"495 926 QCURVE SMOOTH",
"458 896 OFFCURVE",
"406 896 QCURVE SMOOTH",
"345 896 OFFCURVE",
"345 875 QCURVE SMOOTH",
"345 854 OFFCURVE",
"373 854 QCURVE SMOOTH",
"442 854 OFFCURVE",
"498 814 QCURVE SMOOTH",
"559 770 OFFCURVE",
"559 703 QCURVE SMOOTH",
"559 639 OFFCURVE",
"504 596 QCURVE SMOOTH",
"453 556 OFFCURVE",
"388 556 QCURVE SMOOTH",
"330 556 OFFCURVE",
"273 586 QCURVE SMOOTH",
"221 614 OFFCURVE",
"221 616 QCURVE",
"201 616 OFFCURVE",
"201 596 QCURVE SMOOTH",
"201 566 OFFCURVE",
"275 537 QCURVE SMOOTH",
"333 514 OFFCURVE",
"387 514 QCURVE SMOOTH",
"471 514 OFFCURVE",
"534 566 QCURVE SMOOTH",
"601 621 OFFCURVE",
"601 705 QCURVE SMOOTH",
"601 817 OFFCURVE"
);
}
);
};
layerId = m01;
paths = (
{
closed = 1;
nodes = (
"443 514 OFFCURVE",
"492 531 OFFCURVE",
"534 566 CURVE SMOOTH",
"579 603 OFFCURVE",
"601 649 OFFCURVE",
"601 705 CURVE SMOOTH",
"601 780 OFFCURVE",
"561 835 OFFCURVE",
"482 870 CURVE",
"547 901 OFFCURVE",
"579 947 OFFCURVE",
"579 1010 CURVE SMOOTH",
"579 1058 OFFCURVE",
"560 1097 OFFCURVE",
"523 1128 CURVE SMOOTH",
"488 1157 OFFCURVE",
"446 1171 OFFCURVE",
"397 1171 CURVE SMOOTH",
"346 1171 OFFCURVE",
"300 1157 OFFCURVE",
"260 1129 CURVE SMOOTH",
"231 1108 OFFCURVE",
"216 1091 OFFCURVE",
"216 1078 CURVE SMOOTH",
"216 1065 OFFCURVE",
"223 1059 OFFCURVE",
"237 1059 CURVE SMOOTH",
"243 1059 OFFCURVE",
"250 1064 OFFCURVE",
"259 1073 CURVE SMOOTH",
"291 1110 OFFCURVE",
"337 1129 OFFCURVE",
"397 1129 CURVE SMOOTH",
"434 1129 OFFCURVE",
"465 1119 OFFCURVE",
"492 1098 CURVE SMOOTH",
"521 1075 OFFCURVE",
"536 1046 OFFCURVE",
"536 1010 CURVE SMOOTH",
"536 976 OFFCURVE",
"522 948 OFFCURVE",
"495 926 CURVE SMOOTH",
"470 906 OFFCURVE",
"441 896 OFFCURVE",
"406 896 CURVE SMOOTH",
"365 896 OFFCURVE",
"345 889 OFFCURVE",
"345 875 CURVE SMOOTH",
"345 861 OFFCURVE",
"354 854 OFFCURVE",
"373 854 CURVE SMOOTH",
"419 854 OFFCURVE",
"461 841 OFFCURVE",
"498 814 CURVE SMOOTH",
"539 785 OFFCURVE",
"559 748 OFFCURVE",
"559 703 CURVE SMOOTH",
"559 660 OFFCURVE",
"541 625 OFFCURVE",
"504 596 CURVE SMOOTH",
"470 569 OFFCURVE",
"431 556 OFFCURVE",
"388 556 CURVE SMOOTH",
"349 556 OFFCURVE",
"311 566 OFFCURVE",
"273 586 CURVE SMOOTH",
"238 605 OFFCURVE",
"221 615 OFFCURVE",
"221 616 CURVE",
"208 616 OFFCURVE",
"201 609 OFFCURVE",
"201 596 CURVE SMOOTH",
"201 576 OFFCURVE",
"226 556 OFFCURVE",
"275 537 CURVE SMOOTH",
"314 522 OFFCURVE",
"351 514 OFFCURVE",
"387 514 CURVE SMOOTH"
);
}
);
width = 800;
}
);
note = threesuperior;
unicode = 00B3;
},
{
glyphname = acute;
lastChange = "2025-02-10 17:39:32 +0000";
layers = (
{
background = {
paths = (
{
closed = 1;
nodes = (
"450 1321 QCURVE SMOOTH",
"434 1321 OFFCURVE",
"411 1301 QCURVE SMOOTH",
"175 1097 LINE SMOOTH",
"150 1075 OFFCURVE",
"150 1056 QCURVE SMOOTH",
"150 1013 OFFCURVE",
"192 1013 QCURVE SMOOTH",
"207 1013 OFFCURVE",
"230 1033 QCURVE SMOOTH",
"467 1237 LINE SMOOTH",
"492 1259 OFFCURVE",
"492 1278 QCURVE SMOOTH",
"492 1321 OFFCURVE"
);
}
);
};
layerId = m01;
paths = (
{
closed = 1;
nodes = (
"202 1013 OFFCURVE",
"215 1020 OFFCURVE",
"230 1033 CURVE SMOOTH",
"467 1237 LINE SMOOTH",
"484 1252 OFFCURVE",
"492 1265 OFFCURVE",
"492 1278 CURVE SMOOTH",
"492 1307 OFFCURVE",
"478 1321 OFFCURVE",
"450 1321 CURVE SMOOTH",
"439 1321 OFFCURVE",
"426 1314 OFFCURVE",
"411 1301 CURVE SMOOTH",
"175 1097 LINE SMOOTH",
"158 1082 OFFCURVE",
"150 1069 OFFCURVE",
"150 1056 CURVE SMOOTH",
"150 1027 OFFCURVE",
"164 1013 OFFCURVE",
"192 1013 CURVE SMOOTH"
);
}
);
width = 705;
}
);
note = acute;
unicode = 00B4;
},
{
glyphname = mu1;
lastChange = "2025-02-10 17:39:32 +0000";
layers = (
{
background = {
paths = (
{
closed = 1;
nodes = (
"1074 84 QCURVE SMOOTH",
"1003 84 LINE",
"1003 866 LINE",
"848 866 LINE SMOOTH",
"792 866 OFFCURVE",
"792 824 QCURVE SMOOTH",
"792 781 OFFCURVE",
"848 781 QCURVE SMOOTH",
"919 781 LINE",
"919 239 LINE",
"748 51 OFFCURVE",
"543 51 QCURVE SMOOTH",
"463 51 OFFCURVE",
"361 158 OFFCURVE",
"361 239 QCURVE SMOOTH",
"361 866 LINE",
"206 866 LINE SMOOTH",
"150 866 OFFCURVE",
"150 824 QCURVE SMOOTH",
"150 781 OFFCURVE",
"206 781 QCURVE SMOOTH",
"277 781 LINE",
"277 -330 LINE SMOOTH",
"277 -386 OFFCURVE",
"319 -386 QCURVE SMOOTH",
"361 -386 OFFCURVE",
"361 -330 QCURVE SMOOTH",
"361 34 LINE",
"436 -33 OFFCURVE",
"545 -33 QCURVE SMOOTH",
"747 -33 OFFCURVE",
"919 123 QCURVE",
"919 0 LINE",
"1074 -1 LINE",
"1117 11 LINE",
"1130 23 OFFCURVE",
"1130 41 QCURVE SMOOTH",
"1130 84 OFFCURVE"
);
}
);
};
layerId = m01;
paths = (
{
closed = 1;
nodes = (
"347 -386 OFFCURVE",
"361 -367 OFFCURVE",
"361 -330 CURVE SMOOTH",
"361 34 LINE",
"411 -11 OFFCURVE",
"472 -33 OFFCURVE",
"545 -33 CURVE SMOOTH",
"680 -33 OFFCURVE",
"804 19 OFFCURVE",
"919 123 CURVE",
"919 0 LINE",
"1074 -1 LINE",
"1117 11 LINE",
"1126 19 OFFCURVE",
"1130 29 OFFCURVE",
"1130 41 CURVE SMOOTH",
"1130 70 OFFCURVE",
"1111 84 OFFCURVE",
"1074 84 CURVE SMOOTH",
"1003 84 LINE",
"1003 866 LINE",
"848 866 LINE SMOOTH",
"811 866 OFFCURVE",
"792 852 OFFCURVE",
"792 824 CURVE SMOOTH",
"792 795 OFFCURVE",
"811 781 OFFCURVE",
"848 781 CURVE SMOOTH",
"919 781 LINE",
"919 239 LINE",
"805 114 OFFCURVE",
"680 51 OFFCURVE",
"543 51 CURVE SMOOTH",
"436 51 OFFCURVE",
"361 131 OFFCURVE",
"361 239 CURVE SMOOTH",
"361 866 LINE",
"206 866 LINE SMOOTH",
"169 866 OFFCURVE",
"150 852 OFFCURVE",
"150 824 CURVE SMOOTH",
"150 795 OFFCURVE",
"169 781 OFFCURVE",
"206 781 CURVE SMOOTH",
"277 781 LINE",
"277 -330 LINE SMOOTH",
"277 -367 OFFCURVE",
"291 -386 OFFCURVE",
"319 -386 CURVE SMOOTH"
);
}
);
width = 1280;
}
);
note = mu1;
unicode = 03BC;
},
{
glyphname = paragraph;
lastChange = "2025-02-10 17:39:32 +0000";
layers = (
{
background = {
paths = (
{
closed = 1;
nodes = (
"1006 -69 QCURVE SMOOTH",
"935 -69 LINE",
"933 1169 LINE",
"1004 1169 LINE SMOOTH",
"1060 1169 OFFCURVE",
"1060 1212 QCURVE SMOOTH",
"1060 1230 OFFCURVE",
"1047 1242 QCURVE",
"1021 1252 OFFCURVE",
"1004 1254 QCURVE",
"606 1255 LINE SMOOTH",
"450 1255 OFFCURVE",
"324 1184 QCURVE SMOOTH",
"171 1098 OFFCURVE",
"171 954 QCURVE SMOOTH",
"171 853 OFFCURVE",
"170 853 QCURVE",
"170 855 LINE SMOOTH",
"173 796 OFFCURVE",
"195 760 QCURVE SMOOTH",
"303 584 OFFCURVE",
"597 564 QCURVE",
"594 -69 LINE",
"523 -69 LINE SMOOTH",
"467 -69 OFFCURVE",
"467 -112 QCURVE SMOOTH",
"467 -154 OFFCURVE",
"523 -154 QCURVE SMOOTH",
"1006 -154 LINE SMOOTH",
"1062 -154 OFFCURVE",
"1062 -112 QCURVE SMOOTH",
"1062 -69 OFFCURVE"
);
},
{
closed = 1;
nodes = (
"395 696 QCURVE SMOOTH",
"292 765 OFFCURVE",
"292 872 QCURVE SMOOTH",
"292 949 LINE SMOOTH",
"292 1054 OFFCURVE",
"395 1113 QCURVE SMOOTH",
"474 1158 OFFCURVE",
"596 1169 QCURVE",
"597 627 LINE",
"481 637 OFFCURVE"
);
},
{
closed = 1;
nodes = (
"678 -69 LINE",
"676 1169 LINE",
"852 1169 LINE",
"851 -69 LINE"
);
}
);
};
layerId = m01;
paths = (
{
closed = 1;
nodes = (
"1006 -154 LINE SMOOTH",
"1043 -154 OFFCURVE",
"1062 -140 OFFCURVE",
"1062 -112 CURVE SMOOTH",
"1062 -83 OFFCURVE",
"1043 -69 OFFCURVE",
"1006 -69 CURVE SMOOTH",
"935 -69 LINE",
"933 1169 LINE",
"1004 1169 LINE SMOOTH",
"1041 1169 OFFCURVE",
"1060 1183 OFFCURVE",
"1060 1212 CURVE SMOOTH",
"1060 1224 OFFCURVE",
"1056 1234 OFFCURVE",
"1047 1242 CURVE",
"1030 1249 OFFCURVE",
"1015 1253 OFFCURVE",
"1004 1254 CURVE",
"606 1255 LINE SMOOTH",
"502 1255 OFFCURVE",
"408 1231 OFFCURVE",
"324 1184 CURVE SMOOTH",
"222 1127 OFFCURVE",
"171 1050 OFFCURVE",
"171 954 CURVE SMOOTH",
"170 853 LINE",
"170 855 LINE SMOOTH",
"172 816 OFFCURVE",
"180 784 OFFCURVE",
"195 760 CURVE SMOOTH",
"267 643 OFFCURVE",
"401 577 OFFCURVE",
"597 564 CURVE",
"594 -69 LINE",
"523 -69 LINE SMOOTH",
"486 -69 OFFCURVE",
"467 -83 OFFCURVE",
"467 -112 CURVE SMOOTH",
"467 -140 OFFCURVE",
"486 -154 OFFCURVE",
"523 -154 CURVE SMOOTH"
);
},
{
closed = 1;
nodes = (
"676 1169 LINE",
"852 1169 LINE",
"851 -69 LINE",
"678 -69 LINE"
);
},
{
closed = 1;
nodes = (
"520 634 OFFCURVE",
"452 657 OFFCURVE",
"395 696 CURVE SMOOTH",
"326 742 OFFCURVE",
"292 801 OFFCURVE",
"292 872 CURVE SMOOTH",
"292 949 LINE SMOOTH",
"292 1019 OFFCURVE",
"326 1074 OFFCURVE",
"395 1113 CURVE SMOOTH",
"448 1143 OFFCURVE",
"515 1162 OFFCURVE",
"596 1169 CURVE",
"597 627 LINE"
);
}
);
width = 1229;
}
);
note = paragraph;
unicode = 00B6;
},
{
glyphname = middot;
lastChange = "2025-02-10 17:39:32 +0000";
layers = (
{
background = {
paths = (
{
closed = 1;
nodes = (
"496 781 OFFCURVE",
"453 781 QCURVE SMOOTH",
"410 781 OFFCURVE",
"350 721 OFFCURVE",
"350 678 QCURVE SMOOTH",
"350 635 OFFCURVE",
"410 576 OFFCURVE",
"453 576 QCURVE SMOOTH",
"495 576 OFFCURVE",
"555 636 OFFCURVE",
"555 678 QCURVE SMOOTH",
"555 721 OFFCURVE"
);
}
);
};
layerId = m01;
paths = (
{
closed = 1;
nodes = (
"509 576 OFFCURVE",
"555 622 OFFCURVE",
"555 678 CURVE SMOOTH",
"555 735 OFFCURVE",
"510 781 OFFCURVE",
"453 781 CURVE SMOOTH",
"396 781 OFFCURVE",
"350 735 OFFCURVE",
"350 678 CURVE SMOOTH",
"350 621 OFFCURVE",
"396 576 OFFCURVE",
"453 576 CURVE SMOOTH"
);
}
);
width = 903;
}
);
note = middot;
unicode = 0108;
},
{
glyphname = cedilla;
lastChange = "2025-02-10 17:39:32 +0000";
layers = (
{
background = {
paths = (
{
closed = 1;
nodes = (
"354 -110 QCURVE",
"354 -7 OFFCURVE",
"355 -7 QCURVE SMOOTH",
"356 -7 OFFCURVE",
"357 -32 QCURVE SMOOTH",
"355 26 OFFCURVE",
"324 26 QCURVE SMOOTH",
"294 26 OFFCURVE",
"294 -14 QCURVE SMOOTH",
"294 -167 LINE",
"411 -167 OFFCURVE",
"411 -218 QCURVE SMOOTH",
"411 -277 OFFCURVE",
"328 -277 QCURVE SMOOTH",
"289 -277 OFFCURVE",
"185 -232 OFFCURVE",
"180 -232 QCURVE SMOOTH",
"150 -232 OFFCURVE",
"150 -262 QCURVE SMOOTH",
"150 -295 OFFCURVE",
"224 -318 QCURVE SMOOTH",
"284 -337 OFFCURVE",
"328 -337 QCURVE SMOOTH",
"387 -337 OFFCURVE",
"427 -309 QCURVE SMOOTH",
"472 -277 OFFCURVE",
"472 -220 QCURVE SMOOTH",
"472 -127 OFFCURVE"
);
}
);
};
layerId = m01;
paths = (
{
closed = 1;
nodes = (
"367 -337 OFFCURVE",
"400 -328 OFFCURVE",
"427 -309 CURVE SMOOTH",
"457 -288 OFFCURVE",
"472 -258 OFFCURVE",
"472 -220 CURVE SMOOTH",
"472 -158 OFFCURVE",
"433 -121 OFFCURVE",
"354 -110 CURVE",
"355 -7 LINE",
"356 -7 OFFCURVE",
"356 -15 OFFCURVE",
"357 -32 CURVE SMOOTH",
"356 7 OFFCURVE",
"345 26 OFFCURVE",
"324 26 CURVE SMOOTH",
"304 26 OFFCURVE",
"294 13 OFFCURVE",
"294 -14 CURVE SMOOTH",
"294 -167 LINE",
"372 -167 OFFCURVE",
"411 -184 OFFCURVE",
"411 -218 CURVE SMOOTH",
"411 -257 OFFCURVE",
"383 -277 OFFCURVE",
"328 -277 CURVE SMOOTH",
"302 -277 OFFCURVE",
"272 -269 OFFCURVE",
"237 -254 CURVE SMOOTH",
"202 -239 OFFCURVE",
"183 -232 OFFCURVE",
"180 -232 CURVE SMOOTH",
"160 -232 OFFCURVE",
"150 -242 OFFCURVE",
"150 -262 CURVE SMOOTH",
"150 -284 OFFCURVE",
"175 -303 OFFCURVE",
"224 -318 CURVE SMOOTH",
"264 -331 OFFCURVE",
"299 -337 OFFCURVE",
"328 -337 CURVE SMOOTH"
);
}
);
width = 605;
}
);
note = cedilla;
unicode = 00B8;
},
{
glyphname = onesuperior;
lastChange = "2025-02-10 17:39:32 +0000";
layers = (
{
background = {
paths = (
{
closed = 1;
nodes = (
"462 577 QCURVE SMOOTH",
"426 577 LINE",
"426 1171 LINE",
"341 1140 LINE SMOOTH",
"320 1132 OFFCURVE",
"320 1117 QCURVE SMOOTH",
"320 1096 OFFCURVE",
"340 1096 QCURVE SMOOTH",
"352 1096 OFFCURVE",
"360 1101 QCURVE SMOOTH",
"373 1110 OFFCURVE",
"384 1113 QCURVE",
"384 577 LINE",
"349 577 LINE SMOOTH",
"321 577 OFFCURVE",
"321 556 QCURVE SMOOTH",
"321 535 OFFCURVE",
"349 535 QCURVE SMOOTH",
"462 535 LINE SMOOTH",
"490 535 OFFCURVE",
"490 556 QCURVE SMOOTH",
"490 577 OFFCURVE"
);
}
);
};
layerId = m01;
paths = (
{
closed = 1;
nodes = (
"462 535 LINE SMOOTH",
"481 535 OFFCURVE",
"490 542 OFFCURVE",
"490 556 CURVE SMOOTH",
"490 570 OFFCURVE",
"481 577 OFFCURVE",
"462 577 CURVE SMOOTH",
"426 577 LINE",
"426 1171 LINE",
"341 1140 LINE SMOOTH",
"327 1135 OFFCURVE",
"320 1127 OFFCURVE",
"320 1117 CURVE SMOOTH",
"320 1103 OFFCURVE",
"327 1096 OFFCURVE",
"340 1096 CURVE SMOOTH",
"348 1096 OFFCURVE",
"355 1098 OFFCURVE",
"360 1101 CURVE SMOOTH",
"369 1107 OFFCURVE",
"377 1111 OFFCURVE",
"384 1113 CURVE",
"384 577 LINE",
"349 577 LINE SMOOTH",
"330 577 OFFCURVE",
"321 570 OFFCURVE",
"321 556 CURVE SMOOTH",
"321 542 OFFCURVE",
"330 535 OFFCURVE",
"349 535 CURVE SMOOTH"
);
}
);
width = 800;
}
);
note = onesuperior;
unicode = 00B9;
},
{
glyphname = ordmasculine;
lastChange = "2025-02-10 17:39:32 +0000";
layers = (
{
background = {
paths = (
{
closed = 1;
nodes = (
"689 1228 QCURVE SMOOTH",
"596 1309 OFFCURVE",
"468 1309 QCURVE SMOOTH",
"340 1309 OFFCURVE",
"247 1228 QCURVE SMOOTH",
"150 1143 OFFCURVE",
"150 1017 QCURVE SMOOTH",
"150 891 OFFCURVE",
"247 806 QCURVE SMOOTH",
"341 725 OFFCURVE",
"468 725 QCURVE SMOOTH",
"596 725 OFFCURVE",
"689 806 QCURVE SMOOTH",
"786 891 OFFCURVE",
"786 1017 QCURVE SMOOTH",
"786 1143 OFFCURVE"
);
},
{
closed = 1;
nodes = (
"632 861 QCURVE SMOOTH",
"563 802 OFFCURVE",
"468 802 QCURVE SMOOTH",
"373 802 OFFCURVE",
"304 861 QCURVE SMOOTH",
"231 924 OFFCURVE",
"231 1017 QCURVE SMOOTH",
"231 1110 OFFCURVE",
"304 1173 QCURVE SMOOTH",
"373 1232 OFFCURVE",
"468 1232 QCURVE SMOOTH",
"563 1232 OFFCURVE",
"632 1173 QCURVE SMOOTH",
"705 1111 OFFCURVE",
"705 1017 QCURVE SMOOTH",
"705 924 OFFCURVE"
);
}
);
};
layerId = m01;
paths = (
{
closed = 1;
nodes = (
"553 725 OFFCURVE",
"627 752 OFFCURVE",
"689 806 CURVE SMOOTH",
"754 863 OFFCURVE",
"786 933 OFFCURVE",
"786 1017 CURVE SMOOTH",
"786 1101 OFFCURVE",
"754 1171 OFFCURVE",
"689 1228 CURVE SMOOTH",
"627 1282 OFFCURVE",
"553 1309 OFFCURVE",
"468 1309 CURVE SMOOTH",
"383 1309 OFFCURVE",
"309 1282 OFFCURVE",
"247 1228 CURVE SMOOTH",
"182 1171 OFFCURVE",
"150 1101 OFFCURVE",
"150 1017 CURVE SMOOTH",
"150 933 OFFCURVE",
"182 863 OFFCURVE",
"247 806 CURVE SMOOTH",
"310 752 OFFCURVE",
"383 725 OFFCURVE",
"468 725 CURVE SMOOTH"
);
},
{
closed = 1;
nodes = (
"405 802 OFFCURVE",
"350 822 OFFCURVE",
"304 861 CURVE SMOOTH",
"255 903 OFFCURVE",
"231 955 OFFCURVE",
"231 1017 CURVE SMOOTH",
"231 1079 OFFCURVE",
"255 1131 OFFCURVE",
"304 1173 CURVE SMOOTH",
"350 1212 OFFCURVE",
"405 1232 OFFCURVE",
"468 1232 CURVE SMOOTH",
"531 1232 OFFCURVE",
"586 1212 OFFCURVE",
"632 1173 CURVE SMOOTH",
"681 1132 OFFCURVE",
"705 1080 OFFCURVE",
"705 1017 CURVE SMOOTH",
"705 955 OFFCURVE",
"681 903 OFFCURVE",
"632 861 CURVE SMOOTH",
"586 822 OFFCURVE",
"531 802 OFFCURVE",
"468 802 CURVE SMOOTH"
);
}
);
width = 912;
}
);
note = ordmasculine;
unicode = 00BA;
},
{
glyphname = guillemotright;
lastChange = "2025-02-10 17:39:32 +0000";
layers = (
{
background = {
paths = (
{
closed = 1;
nodes = (
"656 868 OFFCURVE",
"638 868 QCURVE SMOOTH",
"596 868 OFFCURVE",
"596 826 QCURVE SMOOTH",
"596 809 OFFCURVE",
"618 784 QCURVE SMOOTH",
"931 434 LINE",
"618 85 LINE SMOOTH",
"596 60 OFFCURVE",
"596 43 QCURVE SMOOTH",
"596 1 OFFCURVE",
"638 1 QCURVE SMOOTH",
"657 1 OFFCURVE",
"682 24 QCURVE SMOOTH",
"1130 434 LINE",
"682 844 LINE SMOOTH"
);
},
{
closed = 1;
nodes = (
"186 868 OFFCURVE",
"169 868 QCURVE SMOOTH",
"127 868 OFFCURVE",
"127 826 QCURVE SMOOTH",
"127 809 OFFCURVE",
"149 784 QCURVE SMOOTH",
"462 434 LINE",
"149 85 LINE SMOOTH",
"127 60 OFFCURVE",
"127 43 QCURVE SMOOTH",
"127 1 OFFCURVE",
"169 1 QCURVE SMOOTH",
"187 1 OFFCURVE",
"212 24 QCURVE SMOOTH",
"661 434 LINE",
"212 844 LINE SMOOTH"
);
}
);
};
layerId = m01;
paths = (
{
closed = 1;
nodes = (
"651 1 OFFCURVE",
"665 9 OFFCURVE",
"682 24 CURVE SMOOTH",
"1130 434 LINE",
"682 844 LINE SMOOTH",
"665 860 OFFCURVE",
"650 868 OFFCURVE",
"638 868 CURVE SMOOTH",
"610 868 OFFCURVE",
"596 854 OFFCURVE",
"596 826 CURVE SMOOTH",
"596 815 OFFCURVE",
"603 801 OFFCURVE",
"618 784 CURVE SMOOTH",
"931 434 LINE",
"618 85 LINE SMOOTH",
"603 68 OFFCURVE",
"596 54 OFFCURVE",
"596 43 CURVE SMOOTH",
"596 15 OFFCURVE",
"610 1 OFFCURVE",
"638 1 CURVE SMOOTH"
);
},
{
closed = 1;
nodes = (
"181 1 OFFCURVE",
"195 9 OFFCURVE",
"212 24 CURVE SMOOTH",
"661 434 LINE",
"212 844 LINE SMOOTH",
"195 860 OFFCURVE",
"180 868 OFFCURVE",
"169 868 CURVE SMOOTH",
"141 868 OFFCURVE",
"127 854 OFFCURVE",
"127 826 CURVE SMOOTH",
"127 815 OFFCURVE",
"134 801 OFFCURVE",
"149 784 CURVE SMOOTH",
"462 434 LINE",
"149 85 LINE SMOOTH",
"134 68 OFFCURVE",
"127 54 OFFCURVE",
"127 43 CURVE SMOOTH",
"127 15 OFFCURVE",
"141 1 OFFCURVE",
"169 1 CURVE SMOOTH"
);
}
);
width = 1229;
}
);
note = guillemotright;
unicode = 00BB;
},
{
glyphname = onequarter;
lastChange = "2025-02-10 17:39:32 +0000";
layers = (
{
background = {
paths = (
{
closed = 1;
nodes = (
"980 1173 QCURVE SMOOTH",
"969 1173 OFFCURVE",
"956 1165 QCURVE SMOOTH",
"944 1158 OFFCURVE",
"933 1135 QCURVE SMOOTH",
"435 167 LINE SMOOTH",
"425 148 OFFCURVE",
"425 133 QCURVE SMOOTH",
"425 122 OFFCURVE",
"430 114 QCURVE SMOOTH",
"443 90 OFFCURVE",
"463 90 QCURVE SMOOTH",
"474 90 OFFCURVE",
"487 98 QCURVE SMOOTH",
"499 105 OFFCURVE",
"510 128 QCURVE SMOOTH",
"1008 1096 LINE SMOOTH",
"1018 1115 OFFCURVE",
"1018 1130 QCURVE SMOOTH",
"1018 1141 OFFCURVE",
"1013 1149 QCURVE SMOOTH",
"1000 1173 OFFCURVE"
);
},
{
closed = 1;
nodes = (
"485 577 QCURVE SMOOTH",
"449 577 LINE",
"449 1171 LINE",
"364 1140 LINE SMOOTH",
"343 1132 OFFCURVE",
"343 1117 QCURVE SMOOTH",
"343 1096 OFFCURVE",
"363 1096 QCURVE SMOOTH",
"375 1096 OFFCURVE",
"383 1101 QCURVE SMOOTH",
"396 1110 OFFCURVE",
"407 1113 QCURVE",
"407 577 LINE",
"372 577 LINE SMOOTH",
"344 577 OFFCURVE",
"344 556 QCURVE SMOOTH",
"344 535 OFFCURVE",
"372 535 QCURVE SMOOTH",
"485 535 LINE SMOOTH",
"513 535 OFFCURVE",
"513 556 QCURVE SMOOTH",
"513 577 OFFCURVE"
);
},
{
closed = 1;
nodes = (
"1102 43 QCURVE SMOOTH",
"1067 43 LINE",
"1067 176 LINE",
"1130 176 OFFCURVE",
"1130 197 QCURVE SMOOTH",
"1130 218 OFFCURVE",
"1067 218 QCURVE",
"1067 628 LINE",
"979 628 LINE",
"746 225 LINE",
"746 176 LINE",
"1024 176 LINE",
"1025 43 LINE",
"989 43 LINE SMOOTH",
"961 43 OFFCURVE",
"961 21 QCURVE SMOOTH",
"961 0 OFFCURVE",
"989 0 QCURVE SMOOTH",
"1102 0 LINE SMOOTH",
"1130 0 OFFCURVE",
"1130 21 QCURVE SMOOTH",
"1130 43 OFFCURVE"
);
},
{
closed = 1;
nodes = (
"1002 586 LINE",
"1024 586 LINE",
"1024 218 LINE",
"790 218 LINE"
);
}
);
};
layerId = m01;
paths = (
{
closed = 1;
nodes = (
"470 90 OFFCURVE",
"478 93 OFFCURVE",
"487 98 CURVE SMOOTH",
"495 103 OFFCURVE",
"503 113 OFFCURVE",
"510 128 CURVE SMOOTH",
"1008 1096 LINE SMOOTH",
"1015 1109 OFFCURVE",
"1018 1120 OFFCURVE",
"1018 1130 CURVE SMOOTH",
"1018 1137 OFFCURVE",
"1016 1144 OFFCURVE",
"1013 1149 CURVE SMOOTH",
"1004 1165 OFFCURVE",
"993 1173 OFFCURVE",
"980 1173 CURVE SMOOTH",
"973 1173 OFFCURVE",
"965 1170 OFFCURVE",
"956 1165 CURVE SMOOTH",
"948 1160 OFFCURVE",
"940 1150 OFFCURVE",
"933 1135 CURVE SMOOTH",
"435 167 LINE SMOOTH",
"428 154 OFFCURVE",
"425 143 OFFCURVE",
"425 133 CURVE SMOOTH",
"425 126 OFFCURVE",
"427 119 OFFCURVE",
"430 114 CURVE SMOOTH",
"439 98 OFFCURVE",
"450 90 OFFCURVE",
"463 90 CURVE SMOOTH"
);
},
{
closed = 1;
nodes = (
"1102 0 LINE SMOOTH",
"1121 0 OFFCURVE",
"1130 7 OFFCURVE",
"1130 21 CURVE SMOOTH",
"1130 36 OFFCURVE",
"1121 43 OFFCURVE",
"1102 43 CURVE SMOOTH",
"1067 43 LINE",
"1067 176 LINE",
"1109 176 OFFCURVE",
"1130 183 OFFCURVE",
"1130 197 CURVE SMOOTH",
"1130 211 OFFCURVE",
"1109 218 OFFCURVE",
"1067 218 CURVE",
"1067 628 LINE",
"979 628 LINE",
"746 225 LINE",
"746 176 LINE",
"1024 176 LINE",
"1025 43 LINE",
"989 43 LINE SMOOTH",
"970 43 OFFCURVE",
"961 36 OFFCURVE",
"961 21 CURVE SMOOTH",
"961 7 OFFCURVE",
"970 0 OFFCURVE",
"989 0 CURVE SMOOTH"
);
},
{
closed = 1;
nodes = (
"485 535 LINE SMOOTH",
"504 535 OFFCURVE",
"513 542 OFFCURVE",
"513 556 CURVE SMOOTH",
"513 570 OFFCURVE",
"504 577 OFFCURVE",
"485 577 CURVE SMOOTH",
"449 577 LINE",
"449 1171 LINE",
"364 1140 LINE SMOOTH",
"350 1135 OFFCURVE",
"343 1127 OFFCURVE",
"343 1117 CURVE SMOOTH",
"343 1103 OFFCURVE",
"350 1096 OFFCURVE",
"363 1096 CURVE SMOOTH",
"371 1096 OFFCURVE",
"378 1098 OFFCURVE",
"383 1101 CURVE SMOOTH",
"392 1107 OFFCURVE",
"400 1111 OFFCURVE",
"407 1113 CURVE",
"407 577 LINE",
"372 577 LINE SMOOTH",
"353 577 OFFCURVE",
"344 570 OFFCURVE",
"344 556 CURVE SMOOTH",
"344 542 OFFCURVE",
"353 535 OFFCURVE",
"372 535 CURVE SMOOTH"
);
},
{
closed = 1;
nodes = (
"1002 586 LINE",
"1024 586 LINE",
"1024 218 LINE",
"790 218 LINE"
);
}
);
width = 1280;
}
);
note = onequarter;
unicode = 00BC;
},
{
glyphname = onehalf;
lastChange = "2025-02-10 17:39:32 +0000";
layers = (
{
background = {
paths = (
{
closed = 1;
nodes = (
"940 1173 QCURVE SMOOTH",
"929 1173 OFFCURVE",
"916 1165 QCURVE SMOOTH",
"904 1158 OFFCURVE",
"893 1135 QCURVE SMOOTH",
"395 167 LINE SMOOTH",
"385 148 OFFCURVE",
"385 133 QCURVE SMOOTH",
"385 122 OFFCURVE",
"390 114 QCURVE SMOOTH",
"403 90 OFFCURVE",
"423 90 QCURVE SMOOTH",
"434 90 OFFCURVE",
"447 98 QCURVE SMOOTH",
"459 105 OFFCURVE",
"470 128 QCURVE SMOOTH",
"968 1096 LINE SMOOTH",
"978 1115 OFFCURVE",
"978 1130 QCURVE SMOOTH",
"978 1141 OFFCURVE",
"973 1149 QCURVE SMOOTH",
"960 1173 OFFCURVE"
);
},
{
closed = 1;
nodes = (
"485 577 QCURVE SMOOTH",
"449 577 LINE",
"449 1171 LINE",
"364 1140 LINE SMOOTH",
"343 1132 OFFCURVE",
"343 1117 QCURVE SMOOTH",
"343 1096 OFFCURVE",
"363 1096 QCURVE SMOOTH",
"375 1096 OFFCURVE",
"383 1101 QCURVE SMOOTH",
"396 1110 OFFCURVE",
"407 1113 QCURVE",
"407 577 LINE",
"372 577 LINE SMOOTH",
"344 577 OFFCURVE",
"344 556 QCURVE SMOOTH",
"344 535 OFFCURVE",
"372 535 QCURVE SMOOTH",
"485 535 LINE SMOOTH",
"513 535 OFFCURVE",
"513 556 QCURVE SMOOTH",
"513 577 OFFCURVE"
);
},
{
closed = 1;
nodes = (
"1130 57 QCURVE",
"1131 50 LINE SMOOTH",
"1128 87 OFFCURVE",
"1108 87 QCURVE SMOOTH",
"1087 87 OFFCURVE",
"1087 42 QCURVE",
"784 42 LINE",
"784 45 LINE",
"861 112 OFFCURVE",
"966 221 QCURVE SMOOTH",
"1099 359 OFFCURVE",
"1119 411 QCURVE SMOOTH",
"1129 436 OFFCURVE",
"1129 465 QCURVE SMOOTH",
"1129 538 OFFCURVE",
"1012 643 OFFCURVE",
"937 643 QCURVE SMOOTH",
"826 643 OFFCURVE",
"770 555 QCURVE SMOOTH",
"744 514 OFFCURVE",
"744 490 QCURVE SMOOTH",
"744 470 OFFCURVE",
"764 470 QCURVE SMOOTH",
"772 470 OFFCURVE",
"778 475 QCURVE",
"783 485 OFFCURVE",
"785 491 QCURVE SMOOTH",
"818 600 OFFCURVE",
"938 600 QCURVE SMOOTH",
"996 600 OFFCURVE",
"1086 521 OFFCURVE",
"1086 463 QCURVE SMOOTH",
"1086 443 OFFCURVE",
"1078 423 QCURVE SMOOTH",
"1061 378 OFFCURVE",
"924 238 QCURVE SMOOTH",
"822 133 OFFCURVE",
"743 62 QCURVE",
"743 0 LINE",
"1129 0 LINE",
"1129 57 OFFCURVE"
);
}
);
};
layerId = m01;
paths = (
{
closed = 1;
nodes = (
"430 90 OFFCURVE",
"438 93 OFFCURVE",
"447 98 CURVE SMOOTH",
"455 103 OFFCURVE",
"463 113 OFFCURVE",
"470 128 CURVE SMOOTH",
"968 1096 LINE SMOOTH",
"975 1109 OFFCURVE",
"978 1120 OFFCURVE",
"978 1130 CURVE SMOOTH",
"978 1137 OFFCURVE",
"976 1144 OFFCURVE",
"973 1149 CURVE SMOOTH",
"964 1165 OFFCURVE",
"953 1173 OFFCURVE",
"940 1173 CURVE SMOOTH",
"933 1173 OFFCURVE",
"925 1170 OFFCURVE",
"916 1165 CURVE SMOOTH",
"908 1160 OFFCURVE",
"900 1150 OFFCURVE",
"893 1135 CURVE SMOOTH",
"395 167 LINE SMOOTH",
"388 154 OFFCURVE",
"385 143 OFFCURVE",
"385 133 CURVE SMOOTH",
"385 126 OFFCURVE",
"387 119 OFFCURVE",
"390 114 CURVE SMOOTH",
"399 98 OFFCURVE",
"410 90 OFFCURVE",
"423 90 CURVE SMOOTH"
);
},
{
closed = 1;
nodes = (
"1129 0 LINE",
"1130 57 LINE",
"1131 50 LINE SMOOTH",
"1129 75 OFFCURVE",
"1121 87 OFFCURVE",
"1108 87 CURVE SMOOTH",
"1094 87 OFFCURVE",
"1087 72 OFFCURVE",
"1087 42 CURVE",
"784 42 LINE",
"784 45 LINE",
"835 90 OFFCURVE",
"896 148 OFFCURVE",
"966 221 CURVE SMOOTH",
"1055 313 OFFCURVE",
"1106 376 OFFCURVE",
"1119 411 CURVE SMOOTH",
"1126 428 OFFCURVE",
"1129 446 OFFCURVE",
"1129 465 CURVE SMOOTH",
"1129 562 OFFCURVE",
"1037 643 OFFCURVE",
"937 643 CURVE SMOOTH",
"863 643 OFFCURVE",
"807 614 OFFCURVE",
"770 555 CURVE SMOOTH",
"753 528 OFFCURVE",
"744 506 OFFCURVE",
"744 490 CURVE SMOOTH",
"744 477 OFFCURVE",
"751 470 OFFCURVE",
"764 470 CURVE SMOOTH",
"769 470 OFFCURVE",
"774 472 OFFCURVE",
"778 475 CURVE",
"785 491 LINE",
"807 564 OFFCURVE",
"858 600 OFFCURVE",
"938 600 CURVE SMOOTH",
"1015 600 OFFCURVE",
"1086 540 OFFCURVE",
"1086 463 CURVE SMOOTH",
"1086 450 OFFCURVE",
"1083 436 OFFCURVE",
"1078 423 CURVE SMOOTH",
"1067 393 OFFCURVE",
"1015 331 OFFCURVE",
"924 238 CURVE SMOOTH",
"856 168 OFFCURVE",
"796 109 OFFCURVE",
"743 62 CURVE",
"743 0 LINE"
);
},
{
closed = 1;
nodes = (
"485 535 LINE SMOOTH",
"504 535 OFFCURVE",
"513 542 OFFCURVE",
"513 556 CURVE SMOOTH",
"513 570 OFFCURVE",
"504 577 OFFCURVE",
"485 577 CURVE SMOOTH",
"449 577 LINE",
"449 1171 LINE",
"364 1140 LINE SMOOTH",
"350 1135 OFFCURVE",
"343 1127 OFFCURVE",
"343 1117 CURVE SMOOTH",
"343 1103 OFFCURVE",
"350 1096 OFFCURVE",
"363 1096 CURVE SMOOTH",
"371 1096 OFFCURVE",
"378 1098 OFFCURVE",
"383 1101 CURVE SMOOTH",
"392 1107 OFFCURVE",
"400 1111 OFFCURVE",
"407 1113 CURVE",
"407 577 LINE",
"372 577 LINE SMOOTH",
"353 577 OFFCURVE",
"344 570 OFFCURVE",
"344 556 CURVE SMOOTH",
"344 542 OFFCURVE",
"353 535 OFFCURVE",
"372 535 CURVE SMOOTH"
);
}
);
width = 1280;
}
);
note = onehalf;
unicode = 00BD;
},
{
glyphname = threequarters;
lastChange = "2025-02-10 17:39:32 +0000";
layers = (
{
background = {
paths = (
{
closed = 1;
nodes = (
"980 1173 QCURVE SMOOTH",
"969 1173 OFFCURVE",
"956 1165 QCURVE SMOOTH",
"944 1158 OFFCURVE",
"933 1135 QCURVE SMOOTH",
"435 167 LINE SMOOTH",
"425 148 OFFCURVE",
"425 133 QCURVE SMOOTH",
"425 122 OFFCURVE",
"430 114 QCURVE SMOOTH",
"443 90 OFFCURVE",
"463 90 QCURVE SMOOTH",
"474 90 OFFCURVE",
"487 98 QCURVE SMOOTH",
"499 105 OFFCURVE",
"510 128 QCURVE SMOOTH",
"1008 1096 LINE SMOOTH",
"1018 1115 OFFCURVE",
"1018 1130 QCURVE SMOOTH",
"1018 1141 OFFCURVE",
"1013 1149 QCURVE SMOOTH",
"1000 1173 OFFCURVE"
);
},
{
closed = 1;
nodes = (
"1102 43 QCURVE SMOOTH",
"1067 43 LINE",
"1067 176 LINE",
"1130 176 OFFCURVE",
"1130 197 QCURVE SMOOTH",
"1130 218 OFFCURVE",
"1067 218 QCURVE",
"1067 628 LINE",
"979 628 LINE",
"746 225 LINE",
"746 176 LINE",
"1024 176 LINE",
"1025 43 LINE",
"989 43 LINE SMOOTH",
"961 43 OFFCURVE",
"961 21 QCURVE SMOOTH",
"961 0 OFFCURVE",
"989 0 QCURVE SMOOTH",
"1102 0 LINE SMOOTH",
"1130 0 OFFCURVE",
"1130 21 QCURVE SMOOTH",
"1130 43 OFFCURVE"
);
},
{
closed = 1;
nodes = (
"482 870 QCURVE",
"579 916 OFFCURVE",
"579 1010 QCURVE SMOOTH",
"579 1082 OFFCURVE",
"523 1128 QCURVE SMOOTH",
"471 1171 OFFCURVE",
"397 1171 QCURVE SMOOTH",
"320 1171 OFFCURVE",
"260 1129 QCURVE SMOOTH",
"216 1098 OFFCURVE",
"216 1078 QCURVE SMOOTH",
"216 1059 OFFCURVE",
"237 1059 QCURVE SMOOTH",
"246 1059 OFFCURVE",
"259 1073 QCURVE SMOOTH",
"307 1129 OFFCURVE",
"397 1129 QCURVE SMOOTH",
"452 1129 OFFCURVE",
"492 1098 QCURVE SMOOTH",
"536 1064 OFFCURVE",
"536 1010 QCURVE SMOOTH",
"536 959 OFFCURVE",
"495 926 QCURVE SMOOTH",
"458 896 OFFCURVE",
"406 896 QCURVE SMOOTH",
"345 896 OFFCURVE",
"345 875 QCURVE SMOOTH",
"345 854 OFFCURVE",
"373 854 QCURVE SMOOTH",
"442 854 OFFCURVE",
"498 814 QCURVE SMOOTH",
"559 770 OFFCURVE",
"559 703 QCURVE SMOOTH",
"559 639 OFFCURVE",
"504 596 QCURVE SMOOTH",
"453 556 OFFCURVE",
"388 556 QCURVE SMOOTH",
"330 556 OFFCURVE",
"273 586 QCURVE SMOOTH",
"221 614 OFFCURVE",
"221 616 QCURVE",
"201 616 OFFCURVE",
"201 596 QCURVE SMOOTH",
"201 566 OFFCURVE",
"275 537 QCURVE SMOOTH",
"333 514 OFFCURVE",
"387 514 QCURVE SMOOTH",
"471 514 OFFCURVE",
"534 566 QCURVE SMOOTH",
"601 621 OFFCURVE",
"601 705 QCURVE SMOOTH",
"601 817 OFFCURVE"
);
},
{
closed = 1;
nodes = (
"1002 586 LINE",
"1024 586 LINE",
"1024 218 LINE",
"790 218 LINE"
);
}
);
};
layerId = m01;
paths = (
{
closed = 1;
nodes = (
"470 90 OFFCURVE",
"478 93 OFFCURVE",
"487 98 CURVE SMOOTH",
"495 103 OFFCURVE",
"503 113 OFFCURVE",
"510 128 CURVE SMOOTH",
"1008 1096 LINE SMOOTH",
"1015 1109 OFFCURVE",
"1018 1120 OFFCURVE",
"1018 1130 CURVE SMOOTH",
"1018 1137 OFFCURVE",
"1016 1144 OFFCURVE",
"1013 1149 CURVE SMOOTH",
"1004 1165 OFFCURVE",
"993 1173 OFFCURVE",
"980 1173 CURVE SMOOTH",
"973 1173 OFFCURVE",
"965 1170 OFFCURVE",
"956 1165 CURVE SMOOTH",
"948 1160 OFFCURVE",
"940 1150 OFFCURVE",
"933 1135 CURVE SMOOTH",
"435 167 LINE SMOOTH",
"428 154 OFFCURVE",
"425 143 OFFCURVE",
"425 133 CURVE SMOOTH",
"425 126 OFFCURVE",
"427 119 OFFCURVE",
"430 114 CURVE SMOOTH",
"439 98 OFFCURVE",
"450 90 OFFCURVE",
"463 90 CURVE SMOOTH"
);
},
{
closed = 1;
nodes = (
"443 514 OFFCURVE",
"492 531 OFFCURVE",
"534 566 CURVE SMOOTH",
"579 603 OFFCURVE",
"601 649 OFFCURVE",
"601 705 CURVE SMOOTH",
"601 780 OFFCURVE",
"561 835 OFFCURVE",
"482 870 CURVE",
"547 901 OFFCURVE",
"579 947 OFFCURVE",
"579 1010 CURVE SMOOTH",
"579 1058 OFFCURVE",
"560 1097 OFFCURVE",
"523 1128 CURVE SMOOTH",
"488 1157 OFFCURVE",
"446 1171 OFFCURVE",
"397 1171 CURVE SMOOTH",
"346 1171 OFFCURVE",
"300 1157 OFFCURVE",
"260 1129 CURVE SMOOTH",
"231 1108 OFFCURVE",
"216 1091 OFFCURVE",
"216 1078 CURVE SMOOTH",
"216 1065 OFFCURVE",
"223 1059 OFFCURVE",
"237 1059 CURVE SMOOTH",
"243 1059 OFFCURVE",
"250 1064 OFFCURVE",
"259 1073 CURVE SMOOTH",
"291 1110 OFFCURVE",
"337 1129 OFFCURVE",
"397 1129 CURVE SMOOTH",
"434 1129 OFFCURVE",
"465 1119 OFFCURVE",
"492 1098 CURVE SMOOTH",
"521 1075 OFFCURVE",
"536 1046 OFFCURVE",
"536 1010 CURVE SMOOTH",
"536 976 OFFCURVE",
"522 948 OFFCURVE",
"495 926 CURVE SMOOTH",
"470 906 OFFCURVE",
"441 896 OFFCURVE",
"406 896 CURVE SMOOTH",
"365 896 OFFCURVE",
"345 889 OFFCURVE",
"345 875 CURVE SMOOTH",
"345 861 OFFCURVE",
"354 854 OFFCURVE",
"373 854 CURVE SMOOTH",
"419 854 OFFCURVE",
"461 841 OFFCURVE",
"498 814 CURVE SMOOTH",
"539 785 OFFCURVE",
"559 748 OFFCURVE",
"559 703 CURVE SMOOTH",
"559 660 OFFCURVE",
"541 625 OFFCURVE",
"504 596 CURVE SMOOTH",
"470 569 OFFCURVE",
"431 556 OFFCURVE",
"388 556 CURVE SMOOTH",
"349 556 OFFCURVE",
"311 566 OFFCURVE",
"273 586 CURVE SMOOTH",
"238 605 OFFCURVE",
"221 615 OFFCURVE",
"221 616 CURVE",
"208 616 OFFCURVE",
"201 609 OFFCURVE",
"201 596 CURVE SMOOTH",
"201 576 OFFCURVE",
"226 556 OFFCURVE",
"275 537 CURVE SMOOTH",
"314 522 OFFCURVE",
"351 514 OFFCURVE",
"387 514 CURVE SMOOTH"
);
},
{
closed = 1;
nodes = (
"1102 0 LINE SMOOTH",
"1121 0 OFFCURVE",
"1130 7 OFFCURVE",
"1130 21 CURVE SMOOTH",
"1130 36 OFFCURVE",
"1121 43 OFFCURVE",
"1102 43 CURVE SMOOTH",
"1067 43 LINE",
"1067 176 LINE",
"1109 176 OFFCURVE",
"1130 183 OFFCURVE",
"1130 197 CURVE SMOOTH",
"1130 211 OFFCURVE",
"1109 218 OFFCURVE",
"1067 218 CURVE",
"1067 628 LINE",
"979 628 LINE",
"746 225 LINE",
"746 176 LINE",
"1024 176 LINE",
"1025 43 LINE",
"989 43 LINE SMOOTH",
"970 43 OFFCURVE",
"961 36 OFFCURVE",
"961 21 CURVE SMOOTH",
"961 7 OFFCURVE",
"970 0 OFFCURVE",
"989 0 CURVE SMOOTH"
);
},
{
closed = 1;
nodes = (
"1002 586 LINE",
"1024 586 LINE",
"1024 218 LINE",
"790 218 LINE"
);
}
);
width = 1280;
}
);
note = threequarters;
unicode = 00BE;
},
{
glyphname = questiondown;
lastChange = "2025-02-10 17:39:32 +0000";
layers = (
{
background = {
paths = (
{
closed = 1;
nodes = (
"622 883 OFFCURVE",
"579 883 QCURVE SMOOTH",
"495 883 LINE SMOOTH",
"451 883 OFFCURVE",
"391 822 OFFCURVE",
"391 778 QCURVE SMOOTH",
"391 735 OFFCURVE",
"452 675 OFFCURVE",
"495 675 QCURVE SMOOTH",
"579 675 LINE SMOOTH",
"623 675 OFFCURVE",
"683 735 OFFCURVE",
"683 779 QCURVE SMOOTH",
"683 822 OFFCURVE"
);
},
{
closed = 1;
nodes = (
"878 -116 OFFCURVE",
"836 -116 QCURVE SMOOTH",
"800 -116 OFFCURVE",
"794 -165 QCURVE",
"794 -241 LINE",
"645 -312 OFFCURVE",
"527 -312 QCURVE SMOOTH",
"405 -312 OFFCURVE",
"322 -238 QCURVE SMOOTH",
"234 -161 OFFCURVE",
"234 -41 QCURVE SMOOTH",
"234 58 OFFCURVE",
"362 138 QCURVE SMOOTH",
"430 180 OFFCURVE",
"578 234 QCURVE",
"578 375 LINE SMOOTH",
"578 432 OFFCURVE",
"536 432 QCURVE SMOOTH",
"497 432 OFFCURVE",
"491 375 QCURVE SMOOTH",
"491 377 LINE",
"493 377 OFFCURVE",
"493 290 QCURVE",
"328 220 OFFCURVE",
"265 172 QCURVE SMOOTH",
"150 85 OFFCURVE",
"150 -42 QCURVE SMOOTH",
"150 -201 OFFCURVE",
"256 -300 QCURVE SMOOTH",
"359 -396 OFFCURVE",
"520 -396 QCURVE SMOOTH",
"613 -396 OFFCURVE",
"705 -366 QCURVE SMOOTH",
"755 -350 OFFCURVE",
"878 -295 QCURVE",
"878 -173 LINE SMOOTH"
);
}
);
};
layerId = m01;
paths = (
{
closed = 1;
nodes = (
"582 -396 OFFCURVE",
"644 -386 OFFCURVE",
"705 -366 CURVE SMOOTH",
"738 -355 OFFCURVE",
"796 -332 OFFCURVE",
"878 -295 CURVE",
"878 -173 LINE SMOOTH",
"878 -135 OFFCURVE",
"864 -116 OFFCURVE",
"836 -116 CURVE SMOOTH",
"812 -116 OFFCURVE",
"798 -132 OFFCURVE",
"794 -165 CURVE",
"794 -241 LINE",
"695 -288 OFFCURVE",
"606 -312 OFFCURVE",
"527 -312 CURVE SMOOTH",
"446 -312 OFFCURVE",
"377 -287 OFFCURVE",
"322 -238 CURVE SMOOTH",
"263 -187 OFFCURVE",
"234 -121 OFFCURVE",
"234 -41 CURVE SMOOTH",
"234 25 OFFCURVE",
"277 85 OFFCURVE",
"362 138 CURVE SMOOTH",
"407 166 OFFCURVE",
"479 198 OFFCURVE",
"578 234 CURVE",
"578 375 LINE SMOOTH",
"578 413 OFFCURVE",
"564 432 OFFCURVE",
"536 432 CURVE SMOOTH",
"510 432 OFFCURVE",
"495 413 OFFCURVE",
"491 375 CURVE SMOOTH",
"491 377 LINE",
"492 377 OFFCURVE",
"493 348 OFFCURVE",
"493 290 CURVE",
"383 243 OFFCURVE",
"307 204 OFFCURVE",
"265 172 CURVE SMOOTH",
"188 114 OFFCURVE",
"150 43 OFFCURVE",
"150 -42 CURVE SMOOTH",
"150 -148 OFFCURVE",
"185 -234 OFFCURVE",
"256 -300 CURVE SMOOTH",
"325 -364 OFFCURVE",
"413 -396 OFFCURVE",
"520 -396 CURVE SMOOTH"
);
},
{
closed = 1;
nodes = (
"579 675 LINE SMOOTH",
"638 675 OFFCURVE",
"683 720 OFFCURVE",
"683 779 CURVE SMOOTH",
"683 836 OFFCURVE",
"636 883 OFFCURVE",
"579 883 CURVE SMOOTH",
"495 883 LINE SMOOTH",
"436 883 OFFCURVE",
"391 837 OFFCURVE",
"391 778 CURVE SMOOTH",
"391 721 OFFCURVE",
"438 675 OFFCURVE",
"495 675 CURVE SMOOTH"
);
}
);
width = 1029;
}
);
note = questiondown;
unicode = 00BF;
},
{
glyphname = Agrave;
lastChange = "2025-02-10 17:39:32 +0000";
layers = (
{
background = {
paths = (
{
closed = 1;
nodes = (
"787 1284 QCURVE",
"775 1303 OFFCURVE",
"650 1413 QCURVE SMOOTH",
"516 1533 OFFCURVE",
"491 1533 QCURVE SMOOTH",
"448 1533 OFFCURVE",
"448 1490 QCURVE SMOOTH",
"448 1471 OFFCURVE",
"473 1449 QCURVE SMOOTH",
"709 1245 LINE SMOOTH",
"732 1225 OFFCURVE",
"747 1225 QCURVE SMOOTH",
"790 1225 OFFCURVE",
"790 1268 QCURVE SMOOTH",
"790 1275 OFFCURVE"
);
},
{
closed = 1;
nodes = (
"1300 88 QCURVE SMOOTH",
"1229 88 LINE",
"823 1174 LINE",
"683 1175 LINE",
"277 88 LINE",
"206 88 LINE SMOOTH",
"150 88 OFFCURVE",
"150 45 QCURVE SMOOTH",
"150 3 OFFCURVE",
"206 3 QCURVE SMOOTH",
"432 3 LINE SMOOTH",
"488 3 OFFCURVE",
"488 45 QCURVE SMOOTH",
"488 88 OFFCURVE",
"432 88 QCURVE SMOOTH",
"371 88 LINE",
"478 395 LINE",
"1030 395 LINE",
"1145 88 LINE",
"1074 88 LINE SMOOTH",
"1018 88 OFFCURVE",
"1018 45 QCURVE SMOOTH",
"1018 3 OFFCURVE",
"1074 3 QCURVE SMOOTH",
"1300 3 LINE SMOOTH",
"1356 3 OFFCURVE",
"1356 45 QCURVE SMOOTH",
"1356 88 OFFCURVE"
);
},
{
closed = 1;
nodes = (
"735 1090 LINE",
"766 1090 LINE",
"998 479 LINE",
"510 479 LINE"
);
}
);
};
layerId = m01;
paths = (
{
closed = 1;
nodes = (
"432 3 LINE SMOOTH",
"469 3 OFFCURVE",
"488 17 OFFCURVE",
"488 45 CURVE SMOOTH",
"488 74 OFFCURVE",
"469 88 OFFCURVE",
"432 88 CURVE SMOOTH",
"371 88 LINE",
"478 395 LINE",
"1030 395 LINE",
"1145 88 LINE",
"1074 88 LINE SMOOTH",
"1037 88 OFFCURVE",
"1018 74 OFFCURVE",
"1018 45 CURVE SMOOTH",
"1018 17 OFFCURVE",
"1037 3 OFFCURVE",
"1074 3 CURVE SMOOTH",
"1300 3 LINE SMOOTH",
"1337 3 OFFCURVE",
"1356 17 OFFCURVE",
"1356 45 CURVE SMOOTH",
"1356 74 OFFCURVE",
"1337 88 OFFCURVE",
"1300 88 CURVE SMOOTH",
"1229 88 LINE",
"823 1174 LINE",
"683 1175 LINE",
"277 88 LINE",
"206 88 LINE SMOOTH",
"169 88 OFFCURVE",
"150 74 OFFCURVE",
"150 45 CURVE SMOOTH",
"150 17 OFFCURVE",
"169 3 OFFCURVE",
"206 3 CURVE SMOOTH"
);
},
{
closed = 1;
nodes = (
"735 1090 LINE",
"766 1090 LINE",
"998 479 LINE",
"510 479 LINE"
);
},
{
closed = 1;
nodes = (
"776 1225 OFFCURVE",
"790 1239 OFFCURVE",
"790 1268 CURVE SMOOTH",
"790 1273 OFFCURVE",
"789 1278 OFFCURVE",
"787 1284 CURVE",
"779 1297 OFFCURVE",
"733 1340 OFFCURVE",
"650 1413 CURVE SMOOTH",
"561 1493 OFFCURVE",
"508 1533 OFFCURVE",
"491 1533 CURVE SMOOTH",
"462 1533 OFFCURVE",
"448 1519 OFFCURVE",
"448 1490 CURVE SMOOTH",
"448 1477 OFFCURVE",
"456 1464 OFFCURVE",
"473 1449 CURVE SMOOTH",
"709 1245 LINE SMOOTH",
"724 1232 OFFCURVE",
"737 1225 OFFCURVE",
"747 1225 CURVE SMOOTH"
);
}
);
width = 1504;
}
);
note = Agrave;
unicode = 00C0;
},
{
glyphname = Aacute;
lastChange = "2025-02-10 17:39:32 +0000";
layers = (
{
background = {
paths = (
{
closed = 1;
nodes = (
"1007 1533 QCURVE SMOOTH",
"982 1533 OFFCURVE",
"848 1413 QCURVE SMOOTH",
"723 1303 OFFCURVE",
"711 1284 QCURVE",
"708 1275 OFFCURVE",
"708 1268 QCURVE SMOOTH",
"708 1225 OFFCURVE",
"751 1225 QCURVE SMOOTH",
"766 1225 OFFCURVE",
"789 1245 QCURVE SMOOTH",
"1025 1449 LINE SMOOTH",
"1050 1471 OFFCURVE",
"1050 1490 QCURVE SMOOTH",
"1050 1533 OFFCURVE"
);
},
{
closed = 1;
nodes = (
"1300 88 QCURVE SMOOTH",
"1229 88 LINE",
"823 1174 LINE",
"683 1175 LINE",
"277 88 LINE",
"206 88 LINE SMOOTH",
"150 88 OFFCURVE",
"150 45 QCURVE SMOOTH",
"150 3 OFFCURVE",
"206 3 QCURVE SMOOTH",
"432 3 LINE SMOOTH",
"488 3 OFFCURVE",
"488 45 QCURVE SMOOTH",
"488 88 OFFCURVE",
"432 88 QCURVE SMOOTH",
"371 88 LINE",
"478 395 LINE",
"1030 395 LINE",
"1145 88 LINE",
"1074 88 LINE SMOOTH",
"1018 88 OFFCURVE",
"1018 45 QCURVE SMOOTH",
"1018 3 OFFCURVE",
"1074 3 QCURVE SMOOTH",
"1300 3 LINE SMOOTH",
"1356 3 OFFCURVE",
"1356 45 QCURVE SMOOTH",
"1356 88 OFFCURVE"
);
},
{
closed = 1;
nodes = (
"735 1090 LINE",
"766 1090 LINE",
"998 479 LINE",
"510 479 LINE"
);
}
);
};
layerId = m01;
paths = (
{
closed = 1;
nodes = (
"432 3 LINE SMOOTH",
"469 3 OFFCURVE",
"488 17 OFFCURVE",
"488 45 CURVE SMOOTH",
"488 74 OFFCURVE",
"469 88 OFFCURVE",
"432 88 CURVE SMOOTH",
"371 88 LINE",
"478 395 LINE",
"1030 395 LINE",
"1145 88 LINE",
"1074 88 LINE SMOOTH",
"1037 88 OFFCURVE",
"1018 74 OFFCURVE",
"1018 45 CURVE SMOOTH",
"1018 17 OFFCURVE",
"1037 3 OFFCURVE",
"1074 3 CURVE SMOOTH",
"1300 3 LINE SMOOTH",
"1337 3 OFFCURVE",
"1356 17 OFFCURVE",
"1356 45 CURVE SMOOTH",
"1356 74 OFFCURVE",
"1337 88 OFFCURVE",
"1300 88 CURVE SMOOTH",
"1229 88 LINE",
"823 1174 LINE",
"683 1175 LINE",
"277 88 LINE",
"206 88 LINE SMOOTH",
"169 88 OFFCURVE",
"150 74 OFFCURVE",
"150 45 CURVE SMOOTH",
"150 17 OFFCURVE",
"169 3 OFFCURVE",
"206 3 CURVE SMOOTH"
);
},
{
closed = 1;
nodes = (
"735 1090 LINE",
"766 1090 LINE",
"998 479 LINE",
"510 479 LINE"
);
},
{
closed = 1;
nodes = (
"761 1225 OFFCURVE",
"774 1232 OFFCURVE",
"789 1245 CURVE SMOOTH",
"1025 1449 LINE SMOOTH",
"1042 1464 OFFCURVE",
"1050 1477 OFFCURVE",
"1050 1490 CURVE SMOOTH",
"1050 1519 OFFCURVE",
"1036 1533 OFFCURVE",
"1007 1533 CURVE SMOOTH",
"990 1533 OFFCURVE",
"937 1493 OFFCURVE",
"848 1413 CURVE SMOOTH",
"765 1340 OFFCURVE",
"719 1297 OFFCURVE",
"711 1284 CURVE",
"709 1278 OFFCURVE",
"708 1273 OFFCURVE",
"708 1268 CURVE SMOOTH",
"708 1239 OFFCURVE",
"722 1225 OFFCURVE",
"751 1225 CURVE SMOOTH"
);
}
);
width = 1504;
}
);
note = Aacute;
unicode = 00C1;
},
{
glyphname = Acircumflex;
lastChange = "2025-02-10 17:39:32 +0000";
layers = (
{
background = {
paths = (
{
closed = 1;
nodes = (
"1013 1308 QCURVE SMOOTH",
"742 1514 LINE",
"472 1308 LINE SMOOTH",
"444 1287 OFFCURVE",
"444 1266 QCURVE SMOOTH",
"444 1224 OFFCURVE",
"486 1224 QCURVE SMOOTH",
"508 1224 OFFCURVE",
"619 1310 QCURVE SMOOTH",
"680 1360 OFFCURVE",
"742 1410 QCURVE",
"804 1360 OFFCURVE",
"866 1311 QCURVE SMOOTH",
"977 1224 OFFCURVE",
"998 1224 QCURVE SMOOTH",
"1041 1224 OFFCURVE",
"1041 1266 QCURVE SMOOTH",
"1041 1287 OFFCURVE"
);
},
{
closed = 1;
nodes = (
"1300 88 QCURVE SMOOTH",
"1229 88 LINE",
"823 1174 LINE",
"683 1175 LINE",
"277 88 LINE",
"206 88 LINE SMOOTH",
"150 88 OFFCURVE",
"150 45 QCURVE SMOOTH",
"150 3 OFFCURVE",
"206 3 QCURVE SMOOTH",
"432 3 LINE SMOOTH",
"488 3 OFFCURVE",
"488 45 QCURVE SMOOTH",
"488 88 OFFCURVE",
"432 88 QCURVE SMOOTH",
"371 88 LINE",
"478 395 LINE",
"1030 395 LINE",
"1145 88 LINE",
"1074 88 LINE SMOOTH",
"1018 88 OFFCURVE",
"1018 45 QCURVE SMOOTH",
"1018 3 OFFCURVE",
"1074 3 QCURVE SMOOTH",
"1300 3 LINE SMOOTH",
"1356 3 OFFCURVE",
"1356 45 QCURVE SMOOTH",
"1356 88 OFFCURVE"
);
},
{
closed = 1;
nodes = (
"735 1090 LINE",
"766 1090 LINE",
"998 479 LINE",
"510 479 LINE"
);
}
);
};
layerId = m01;
paths = (
{
closed = 1;
nodes = (
"432 3 LINE SMOOTH",
"469 3 OFFCURVE",
"488 17 OFFCURVE",
"488 45 CURVE SMOOTH",
"488 74 OFFCURVE",
"469 88 OFFCURVE",
"432 88 CURVE SMOOTH",
"371 88 LINE",
"478 395 LINE",
"1030 395 LINE",
"1145 88 LINE",
"1074 88 LINE SMOOTH",
"1037 88 OFFCURVE",
"1018 74 OFFCURVE",
"1018 45 CURVE SMOOTH",
"1018 17 OFFCURVE",
"1037 3 OFFCURVE",
"1074 3 CURVE SMOOTH",
"1300 3 LINE SMOOTH",
"1337 3 OFFCURVE",
"1356 17 OFFCURVE",
"1356 45 CURVE SMOOTH",
"1356 74 OFFCURVE",
"1337 88 OFFCURVE",
"1300 88 CURVE SMOOTH",
"1229 88 LINE",
"823 1174 LINE",
"683 1175 LINE",
"277 88 LINE",
"206 88 LINE SMOOTH",
"169 88 OFFCURVE",
"150 74 OFFCURVE",
"150 45 CURVE SMOOTH",
"150 17 OFFCURVE",
"169 3 OFFCURVE",
"206 3 CURVE SMOOTH"
);
},
{
closed = 1;
nodes = (
"735 1090 LINE",
"766 1090 LINE",
"998 479 LINE",
"510 479 LINE"
);
},
{
closed = 1;
nodes = (
"501 1224 OFFCURVE",
"545 1253 OFFCURVE",
"619 1310 CURVE SMOOTH",
"742 1410 LINE",
"866 1311 LINE SMOOTH",
"940 1253 OFFCURVE",
"984 1224 OFFCURVE",
"998 1224 CURVE SMOOTH",
"1027 1224 OFFCURVE",
"1041 1238 OFFCURVE",
"1041 1266 CURVE SMOOTH",
"1041 1280 OFFCURVE",
"1032 1294 OFFCURVE",
"1013 1308 CURVE SMOOTH",
"742 1514 LINE",
"472 1308 LINE SMOOTH",
"453 1294 OFFCURVE",
"444 1280 OFFCURVE",
"444 1266 CURVE SMOOTH",
"444 1238 OFFCURVE",
"458 1224 OFFCURVE",
"486 1224 CURVE SMOOTH"
);
}
);
width = 1504;
}
);
note = Acircumflex;
unicode = 00C2;
},
{
glyphname = Atilde;
lastChange = "2025-02-10 17:39:32 +0000";
layers = (
{
background = {
paths = (
{
closed = 1;
nodes = (
"1028 1390 QCURVE SMOOTH",
"1014 1390 OFFCURVE",
"913 1309 OFFCURVE",
"883 1309 QCURVE SMOOTH",
"852 1309 OFFCURVE",
"673 1430 OFFCURVE",
"619 1430 QCURVE SMOOTH",
"575 1430 OFFCURVE",
"506 1388 QCURVE SMOOTH",
"432 1343 OFFCURVE",
"432 1305 QCURVE SMOOTH",
"432 1265 OFFCURVE",
"473 1265 QCURVE SMOOTH",
"489 1265 OFFCURVE",
"586 1346 OFFCURVE",
"620 1346 QCURVE SMOOTH",
"647 1346 OFFCURVE",
"827 1224 OFFCURVE",
"883 1224 QCURVE SMOOTH",
"928 1224 OFFCURVE",
"996 1266 QCURVE SMOOTH",
"1070 1311 OFFCURVE",
"1070 1351 QCURVE SMOOTH",
"1070 1390 OFFCURVE"
);
},
{
closed = 1;
nodes = (
"1300 88 QCURVE SMOOTH",
"1229 88 LINE",
"823 1174 LINE",
"683 1175 LINE",
"277 88 LINE",
"206 88 LINE SMOOTH",
"150 88 OFFCURVE",
"150 45 QCURVE SMOOTH",
"150 3 OFFCURVE",
"206 3 QCURVE SMOOTH",
"432 3 LINE SMOOTH",
"488 3 OFFCURVE",
"488 45 QCURVE SMOOTH",
"488 88 OFFCURVE",
"432 88 QCURVE SMOOTH",
"371 88 LINE",
"478 395 LINE",
"1030 395 LINE",
"1145 88 LINE",
"1074 88 LINE SMOOTH",
"1018 88 OFFCURVE",
"1018 45 QCURVE SMOOTH",
"1018 3 OFFCURVE",
"1074 3 QCURVE SMOOTH",
"1300 3 LINE SMOOTH",
"1356 3 OFFCURVE",
"1356 45 QCURVE SMOOTH",
"1356 88 OFFCURVE"
);
},
{
closed = 1;
nodes = (
"735 1090 LINE",
"766 1090 LINE",
"998 479 LINE",
"510 479 LINE"
);
}
);
};
layerId = m01;
paths = (
{
closed = 1;
nodes = (
"432 3 LINE SMOOTH",
"469 3 OFFCURVE",
"488 17 OFFCURVE",
"488 45 CURVE SMOOTH",
"488 74 OFFCURVE",
"469 88 OFFCURVE",
"432 88 CURVE SMOOTH",
"371 88 LINE",
"478 395 LINE",
"1030 395 LINE",
"1145 88 LINE",
"1074 88 LINE SMOOTH",
"1037 88 OFFCURVE",
"1018 74 OFFCURVE",
"1018 45 CURVE SMOOTH",
"1018 17 OFFCURVE",
"1037 3 OFFCURVE",
"1074 3 CURVE SMOOTH",
"1300 3 LINE SMOOTH",
"1337 3 OFFCURVE",
"1356 17 OFFCURVE",
"1356 45 CURVE SMOOTH",
"1356 74 OFFCURVE",
"1337 88 OFFCURVE",
"1300 88 CURVE SMOOTH",
"1229 88 LINE",
"823 1174 LINE",
"683 1175 LINE",
"277 88 LINE",
"206 88 LINE SMOOTH",
"169 88 OFFCURVE",
"150 74 OFFCURVE",
"150 45 CURVE SMOOTH",
"150 17 OFFCURVE",
"169 3 OFFCURVE",
"206 3 CURVE SMOOTH"
);
},
{
closed = 1;
nodes = (
"735 1090 LINE",
"766 1090 LINE",
"998 479 LINE",
"510 479 LINE"
);
},
{
closed = 1;
nodes = (
"913 1224 OFFCURVE",
"951 1238 OFFCURVE",
"996 1266 CURVE SMOOTH",
"1045 1296 OFFCURVE",
"1070 1324 OFFCURVE",
"1070 1351 CURVE SMOOTH",
"1070 1377 OFFCURVE",
"1056 1390 OFFCURVE",
"1028 1390 CURVE SMOOTH",
"1019 1390 OFFCURVE",
"997 1377 OFFCURVE",
"964 1350 CURVE SMOOTH",
"930 1323 OFFCURVE",
"903 1309 OFFCURVE",
"883 1309 CURVE SMOOTH",
"862 1309 OFFCURVE",
"822 1329 OFFCURVE",
"763 1370 CURVE SMOOTH",
"703 1410 OFFCURVE",
"655 1430 OFFCURVE",
"619 1430 CURVE SMOOTH",
"590 1430 OFFCURVE",
"552 1416 OFFCURVE",
"506 1388 CURVE SMOOTH",
"457 1358 OFFCURVE",
"432 1330 OFFCURVE",
"432 1305 CURVE SMOOTH",
"432 1278 OFFCURVE",
"446 1265 OFFCURVE",
"473 1265 CURVE SMOOTH",
"484 1265 OFFCURVE",
"505 1279 OFFCURVE",
"538 1306 CURVE SMOOTH",
"570 1333 OFFCURVE",
"597 1346 OFFCURVE",
"620 1346 CURVE SMOOTH",
"638 1346 OFFCURVE",
"677 1326 OFFCURVE",
"737 1285 CURVE SMOOTH",
"797 1244 OFFCURVE",
"846 1224 OFFCURVE",
"883 1224 CURVE SMOOTH"
);
}
);
width = 1504;
}
);
note = Atilde;
unicode = 00C3;
},
{
glyphname = Adieresis;
lastChange = "2025-02-10 17:39:32 +0000";
layers = (
{
background = {
paths = (
{
closed = 1;
nodes = (
"935 1378 OFFCURVE",
"903 1378 QCURVE SMOOTH",
"871 1378 OFFCURVE",
"826 1333 OFFCURVE",
"826 1301 QCURVE SMOOTH",
"826 1269 OFFCURVE",
"871 1224 OFFCURVE",
"903 1224 QCURVE SMOOTH",
"935 1224 OFFCURVE",
"980 1269 OFFCURVE",
"980 1301 QCURVE SMOOTH",
"980 1332 OFFCURVE"
);
},
{
closed = 1;
nodes = (
"635 1378 OFFCURVE",
"603 1378 QCURVE SMOOTH",
"571 1378 OFFCURVE",
"526 1333 OFFCURVE",
"526 1301 QCURVE SMOOTH",
"526 1269 OFFCURVE",
"571 1224 OFFCURVE",
"603 1224 QCURVE SMOOTH",
"635 1224 OFFCURVE",
"680 1269 OFFCURVE",
"680 1301 QCURVE SMOOTH",
"680 1332 OFFCURVE"
);
},
{
closed = 1;
nodes = (
"1300 88 QCURVE SMOOTH",
"1229 88 LINE",
"823 1174 LINE",
"683 1175 LINE",
"277 88 LINE",
"206 88 LINE SMOOTH",
"150 88 OFFCURVE",
"150 45 QCURVE SMOOTH",
"150 3 OFFCURVE",
"206 3 QCURVE SMOOTH",
"432 3 LINE SMOOTH",
"488 3 OFFCURVE",
"488 45 QCURVE SMOOTH",
"488 88 OFFCURVE",
"432 88 QCURVE SMOOTH",
"371 88 LINE",
"478 395 LINE",
"1030 395 LINE",
"1145 88 LINE",
"1074 88 LINE SMOOTH",
"1018 88 OFFCURVE",
"1018 45 QCURVE SMOOTH",
"1018 3 OFFCURVE",
"1074 3 QCURVE SMOOTH",
"1300 3 LINE SMOOTH",
"1356 3 OFFCURVE",
"1356 45 QCURVE SMOOTH",
"1356 88 OFFCURVE"
);
},
{
closed = 1;
nodes = (
"735 1090 LINE",
"766 1090 LINE",
"998 479 LINE",
"510 479 LINE"
);
}
);
};
layerId = m01;
paths = (
{
closed = 1;
nodes = (
"432 3 LINE SMOOTH",
"469 3 OFFCURVE",
"488 17 OFFCURVE",
"488 45 CURVE SMOOTH",
"488 74 OFFCURVE",
"469 88 OFFCURVE",
"432 88 CURVE SMOOTH",
"371 88 LINE",
"478 395 LINE",
"1030 395 LINE",
"1145 88 LINE",
"1074 88 LINE SMOOTH",
"1037 88 OFFCURVE",
"1018 74 OFFCURVE",
"1018 45 CURVE SMOOTH",
"1018 17 OFFCURVE",
"1037 3 OFFCURVE",
"1074 3 CURVE SMOOTH",
"1300 3 LINE SMOOTH",
"1337 3 OFFCURVE",
"1356 17 OFFCURVE",
"1356 45 CURVE SMOOTH",
"1356 74 OFFCURVE",
"1337 88 OFFCURVE",
"1300 88 CURVE SMOOTH",
"1229 88 LINE",
"823 1174 LINE",
"683 1175 LINE",
"277 88 LINE",
"206 88 LINE SMOOTH",
"169 88 OFFCURVE",
"150 74 OFFCURVE",
"150 45 CURVE SMOOTH",
"150 17 OFFCURVE",
"169 3 OFFCURVE",
"206 3 CURVE SMOOTH"
);
},
{
closed = 1;
nodes = (
"735 1090 LINE",
"766 1090 LINE",
"998 479 LINE",
"510 479 LINE"
);
},
{
closed = 1;
nodes = (
"646 1224 OFFCURVE",
"680 1258 OFFCURVE",
"680 1301 CURVE SMOOTH",
"680 1342 OFFCURVE",
"646 1378 OFFCURVE",
"603 1378 CURVE SMOOTH",
"560 1378 OFFCURVE",
"526 1344 OFFCURVE",
"526 1301 CURVE SMOOTH",
"526 1258 OFFCURVE",
"560 1224 OFFCURVE",
"603 1224 CURVE SMOOTH"
);
},
{
closed = 1;
nodes = (
"946 1224 OFFCURVE",
"980 1258 OFFCURVE",
"980 1301 CURVE SMOOTH",
"980 1342 OFFCURVE",
"946 1378 OFFCURVE",
"903 1378 CURVE SMOOTH",
"860 1378 OFFCURVE",
"826 1344 OFFCURVE",
"826 1301 CURVE SMOOTH",
"826 1258 OFFCURVE",
"860 1224 OFFCURVE",
"903 1224 CURVE SMOOTH"
);
}
);
width = 1504;
}
);
note = Adieresis;
unicode = 00C4;
},
{
glyphname = Aring;
lastChange = "2025-02-10 17:39:32 +0000";
layers = (
{
background = {
paths = (
{
closed = 1;
nodes = (
"809 1492 OFFCURVE",
"753 1492 QCURVE SMOOTH",
"697 1492 OFFCURVE",
"617 1414 OFFCURVE",
"617 1359 QCURVE SMOOTH",
"617 1303 OFFCURVE",
"697 1225 OFFCURVE",
"753 1225 QCURVE SMOOTH",
"809 1225 OFFCURVE",
"889 1303 OFFCURVE",
"889 1359 QCURVE SMOOTH",
"889 1414 OFFCURVE"
);
},
{
closed = 1;
nodes = (
"1300 88 QCURVE SMOOTH",
"1229 88 LINE",
"823 1174 LINE",
"683 1175 LINE",
"277 88 LINE",
"206 88 LINE SMOOTH",
"150 88 OFFCURVE",
"150 45 QCURVE SMOOTH",
"150 3 OFFCURVE",
"206 3 QCURVE SMOOTH",
"432 3 LINE SMOOTH",
"488 3 OFFCURVE",
"488 45 QCURVE SMOOTH",
"488 88 OFFCURVE",
"432 88 QCURVE SMOOTH",
"371 88 LINE",
"478 395 LINE",
"1030 395 LINE",
"1145 88 LINE",
"1074 88 LINE SMOOTH",
"1018 88 OFFCURVE",
"1018 45 QCURVE SMOOTH",
"1018 3 OFFCURVE",
"1074 3 QCURVE SMOOTH",
"1300 3 LINE SMOOTH",
"1356 3 OFFCURVE",
"1356 45 QCURVE SMOOTH",
"1356 88 OFFCURVE"
);
},
{
closed = 1;
nodes = (
"790 1270 OFFCURVE",
"753 1270 QCURVE SMOOTH",
"716 1270 OFFCURVE",
"662 1322 OFFCURVE",
"662 1359 QCURVE SMOOTH",
"662 1396 OFFCURVE",
"716 1447 OFFCURVE",
"753 1447 QCURVE SMOOTH",
"790 1447 OFFCURVE",
"844 1396 OFFCURVE",
"844 1359 QCURVE SMOOTH",
"844 1321 OFFCURVE"
);
},
{
closed = 1;
nodes = (
"735 1090 LINE",
"766 1090 LINE",
"998 479 LINE",
"510 479 LINE"
);
}
);
};
layerId = m01;
paths = (
{
closed = 1;
nodes = (
"432 3 LINE SMOOTH",
"469 3 OFFCURVE",
"488 17 OFFCURVE",
"488 45 CURVE SMOOTH",
"488 74 OFFCURVE",
"469 88 OFFCURVE",
"432 88 CURVE SMOOTH",
"371 88 LINE",
"478 395 LINE",
"1030 395 LINE",
"1145 88 LINE",
"1074 88 LINE SMOOTH",
"1037 88 OFFCURVE",
"1018 74 OFFCURVE",
"1018 45 CURVE SMOOTH",
"1018 17 OFFCURVE",
"1037 3 OFFCURVE",
"1074 3 CURVE SMOOTH",
"1300 3 LINE SMOOTH",
"1337 3 OFFCURVE",
"1356 17 OFFCURVE",
"1356 45 CURVE SMOOTH",
"1356 74 OFFCURVE",
"1337 88 OFFCURVE",
"1300 88 CURVE SMOOTH",
"1229 88 LINE",
"823 1174 LINE",
"683 1175 LINE",
"277 88 LINE",
"206 88 LINE SMOOTH",
"169 88 OFFCURVE",
"150 74 OFFCURVE",
"150 45 CURVE SMOOTH",
"150 17 OFFCURVE",
"169 3 OFFCURVE",
"206 3 CURVE SMOOTH"
);
},
{
closed = 1;
nodes = (
"735 1090 LINE",
"766 1090 LINE",
"998 479 LINE",
"510 479 LINE"
);
},
{
closed = 1;
nodes = (
"828 1225 OFFCURVE",
"889 1284 OFFCURVE",
"889 1359 CURVE SMOOTH",
"889 1432 OFFCURVE",
"828 1492 OFFCURVE",
"753 1492 CURVE SMOOTH",
"678 1492 OFFCURVE",
"617 1432 OFFCURVE",
"617 1359 CURVE SMOOTH",
"617 1284 OFFCURVE",
"678 1225 OFFCURVE",
"753 1225 CURVE SMOOTH"
);
},
{
closed = 1;
nodes = (
"704 1270 OFFCURVE",
"662 1310 OFFCURVE",
"662 1359 CURVE SMOOTH",
"662 1408 OFFCURVE",
"704 1447 OFFCURVE",
"753 1447 CURVE SMOOTH",
"802 1447 OFFCURVE",
"844 1408 OFFCURVE",
"844 1359 CURVE SMOOTH",
"844 1308 OFFCURVE",
"802 1270 OFFCURVE",
"753 1270 CURVE SMOOTH"
);
}
);
width = 1504;
}
);
note = Aring;
unicode = 00C5;
},
